SplineFontDB: 3.2
FontName: P39
FullName: P39
FamilyName: P39
Weight: Book
Copyright: Allan Loder (c) 2002; All Rights Reserved
Version: Dec 10, 2002  
ItalicAngle: 0
UnderlinePosition: -292
UnderlineWidth: 150
Ascent: 1638
Descent: 410
InvalidEm: 0
sfntRevision: 0x00010000
LayerCount: 2
Layer: 0 1 "Back" 1
Layer: 1 1 "Fore" 0
XUID: [1021 847 1691024228 3141826]
StyleMap: 0x0040
FSType: 8
OS2Version: 1
OS2_WeightWidthSlopeOnly: 0
OS2_UseTypoMetrics: 0
CreationTime: 935496000
ModificationTime: 1769551596
PfmFamily: 17
TTFWeight: 400
TTFWidth: 5
LineGap: 67
VLineGap: 0
Panose: 2 0 0 0 0 0 0 0 0 0
OS2TypoAscent: 1491
OS2TypoAOffset: 0
OS2TypoDescent: -431
OS2TypoDOffset: 0
OS2TypoLinegap: 307
OS2WinAscent: 1854
OS2WinAOffset: 0
OS2WinDescent: 434
OS2WinDOffset: 0
HheadAscent: 1854
HheadAOffset: 0
HheadDescent: -434
HheadDOffset: 0
OS2SubXSize: 1434
OS2SubYSize: 1331
OS2SubXOff: 0
OS2SubYOff: 283
OS2SupXSize: 1434
OS2SupYSize: 1331
OS2SupXOff: 0
OS2SupYOff: 977
OS2StrikeYSize: 102
OS2StrikeYPos: 530
OS2Vendor: 'HL  '
OS2CodePages: 4000001f.00000000
OS2UnicodeRanges: 00000287.00000000.00000000.00000000
DEI: 91125
ShortTable: maxp 16
  1
  0
  643
  52
  3
  0
  0
  2
  16
  47
  66
  0
  1036
  0
  0
  0
EndShort

StartChar: .notdef
Encoding: 65536 -1 0
Width: 1536
Flags: W
LayerCount: 2
Fore
SplineSet
256 0 m 1,0,-1
 256 1280 l 1,1,-1
 1280 1280 l 1,2,-1
 1280 0 l 1,3,-1
 256 0 l 1,0,-1
288 32 m 1,4,-1
 1248 32 l 1,5,-1
 1248 1248 l 1,6,-1
 288 1248 l 1,7,-1
 288 32 l 1,4,-1
EndSplineSet
Validated: 1
EndChar

StartChar: exclam
Encoding: 33 33 4
Width: 48
Flags: W
LayerCount: 2
Fore
SplineSet
314 1442 m 2,0,-1
 441 1606 l 1,1,2
 478 1680 478 1680 548.5 1687.5 c 128,-1,3
 619 1695 619 1695 615 1646 c 128,-1,4
 611 1597 611 1597 557 1545 c 2,5,-1
 343 1325 l 2,6,7
 293 1276 293 1276 261.5 1259.5 c 128,-1,8
 230 1243 230 1243 211 1266 c 0,9,10
 192 1290 192 1290 314 1442 c 2,0,-1
EndSplineSet
Validated: 33
EndChar

StartChar: percent
Encoding: 37 37 8
Width: 1496
Flags: W
LayerCount: 2
Fore
SplineSet
1991 63 m 128,-1,1
 2156 -62 2156 -62 567 11 c 1,2,3
 -2 -37 -2 -37 167 86 c 1,4,5
 700 638 700 638 899 986 c 1,6,7
 754 1187 754 1187 872.5 1225.5 c 128,-1,8
 991 1264 991 1264 1158 1237 c 1,9,10
 1344 780 1344 780 1585 484 c 128,-1,0
 1826 188 1826 188 1991 63 c 128,-1,1
1627 109 m 1,11,12
 1205 480 1205 480 1000 807 c 1,13,14
 907 665 907 665 425 126 c 1,15,-1
 922 114 l 1,16,-1
 1627 109 l 1,11,12
EndSplineSet
Validated: 33
EndChar

StartChar: ampersand
Encoding: 38 38 9
Width: 2
Flags: W
LayerCount: 2
Fore
SplineSet
941 1483 m 1,0,1
 736 1568 736 1568 1161 1585 c 1,2,3
 2287 1592 2287 1592 2657 1590.5 c 128,-1,4
 3027 1589 3027 1589 3007.5 1523.5 c 128,-1,5
 2988 1458 2988 1458 2607 1485 c 1,6,-1
 941 1483 l 1,0,1
EndSplineSet
Validated: 33
EndChar

StartChar: parenright
Encoding: 41 41 11
Width: 2
Flags: W
LayerCount: 2
Fore
SplineSet
941 1483 m 1,0,1
 736 1568 736 1568 1161 1585 c 1,2,3
 2915 1604 2915 1604 3470.5 1590.5 c 128,-1,4
 4026 1577 4026 1577 3902 1511.5 c 128,-1,5
 3778 1446 3778 1446 3037 1473 c 1,6,-1
 941 1483 l 1,0,1
EndSplineSet
Validated: 33
EndChar

StartChar: asterisk
Encoding: 42 42 12
Width: 171
Flags: W
LayerCount: 2
Fore
SplineSet
291 1460 m 1,0,-1
 88 1082 l 1,1,-1
 72 1081 l 1,2,-1
 -127 1455 l 1,3,-1
 -123 1472 l 1,4,-1
 279 1473 l 1,5,-1
 225 1408 l 1,6,-1
 -55 1407 l 1,7,-1
 78 1238 l 1,8,-1
 243 1427 l 1,9,-1
 280 1472 l 1,10,-1
 291 1460 l 1,0,-1
EndSplineSet
Validated: 1
EndChar

StartChar: plus
Encoding: 43 43 13
Width: 1803
Flags: W
LayerCount: 2
Fore
SplineSet
1450 1151 m 1,0,-1
 1702 1136 l 1,1,2
 1502 1002 1502 1002 1347 879 c 1,3,4
 1112 604 1112 604 1012 441 c 1,5,-1
 1006 -541 l 1,6,-1
 736 -562 l 1,7,-1
 736 466 l 1,8,-1
 573 736 l 1,9,10
 324 1034 324 1034 84 1113 c 1,11,-1
 206 1213 l 1,12,13
 277 1227 277 1227 384 1163 c 1,14,15
 688 873 688 873 899 590 c 1,16,17
 1379 1207 1379 1207 1450 1151 c 1,0,-1
505 1206.5 m 128,-1,19
 518 1121 518 1121 630 1139 c 128,-1,20
 742 1157 742 1157 804 1246 c 128,-1,21
 866 1335 866 1335 753.5 1346.5 c 128,-1,22
 641 1358 641 1358 566.5 1325 c 128,-1,18
 492 1292 492 1292 505 1206.5 c 128,-1,19
1005 1210.5 m 128,-1,24
 1018 1125 1018 1125 1130 1143 c 128,-1,25
 1242 1161 1242 1161 1304 1250 c 128,-1,26
 1366 1339 1366 1339 1253.5 1350.5 c 128,-1,27
 1141 1362 1141 1362 1066.5 1329 c 128,-1,23
 992 1296 992 1296 1005 1210.5 c 128,-1,24
EndSplineSet
Validated: 41
EndChar

StartChar: hyphen
Encoding: 45 45 15
AltUni2: 0000ad.ffffffff.0
Width: 41
Flags: W
LayerCount: 2
Fore
SplineSet
539 1305 m 0,1,2
 544 1210 544 1210 637 1213 c 1,3,4
 735 1227 735 1227 736 1299 c 1,5,6
 744 1345 744 1345 717 1378 c 0,7,8
 684 1426 684 1426 619 1418 c 1,9,0
 533 1390 533 1390 539 1305 c 0,1,2
EndSplineSet
Validated: 41
EndChar

StartChar: period
Encoding: 46 46 17
Width: 603
Flags: W
LayerCount: 2
Fore
SplineSet
230 616 m 1,1,2
 239 482 239 482 370 486 c 1,3,4
 500 525 500 525 509 621 c 1,5,6
 521 672 521 672 483 719 c 1,7,8
 436 789 436 789 343 755 c 0,9,0
 246 722 246 722 230 616 c 1,1,2
EndSplineSet
Validated: 41
EndChar

StartChar: slash
Encoding: 47 47 18
Width: 1003
Flags: W
LayerCount: 2
Fore
SplineSet
936 1374 m 1,0,-1
 510 -190 l 1,1,-1
 391 -190 l 1,2,-1
 815 1374 l 1,3,-1
 936 1374 l 1,0,-1
694 1374 m 1,4,-1
 270 -190 l 1,5,-1
 152 -190 l 1,6,-1
 575 1374 l 1,7,-1
 694 1374 l 1,4,-1
EndSplineSet
Validated: 1
EndChar

StartChar: zero
Encoding: 48 48 19
Width: 864
Flags: W
LayerCount: 2
Fore
SplineSet
803 1130 m 0,0,1
 803 913 803 913 711 778 c 0,2,3
 612 633 612 633 432 633 c 256,4,5
 252 633 252 633 152 778 c 0,6,7
 61 913 61 913 61 1130 c 0,8,9
 61 1350 61 1350 152 1483 c 0,10,11
 252 1630 252 1630 432 1630 c 256,12,13
 612 1630 612 1630 711 1483 c 0,14,15
 803 1348 803 1348 803 1130 c 0,0,1
641 1130 m 0,16,17
 641 1556 641 1556 432 1556 c 256,18,19
 223 1556 223 1556 223 1130 c 0,20,21
 223 705 223 705 432 705 c 256,22,23
 641 705 641 705 641 1130 c 0,16,17
EndSplineSet
Validated: 1
EndChar

StartChar: one
Encoding: 49 49 20
Width: 864
Flags: W
LayerCount: 2
Fore
SplineSet
684 649 m 1,0,-1
 166 649 l 1,1,-1
 166 715 l 1,2,-1
 322 721 l 2,3,4
 354 723 354 723 354 752 c 2,5,-1
 354 1507 l 1,6,-1
 117 1468 l 1,7,-1
 117 1534 l 1,8,-1
 449 1630 l 1,9,-1
 508 1630 l 1,10,-1
 508 752 l 2,11,12
 508 723 508 723 541 721 c 2,13,-1
 684 715 l 1,14,-1
 684 649 l 1,0,-1
EndSplineSet
Validated: 1
EndChar

StartChar: two
Encoding: 50 50 21
Width: 864
Flags: W
LayerCount: 2
Fore
SplineSet
793 649 m 1,0,-1
 72 649 l 1,1,-1
 72 745 l 1,2,3
 387 991 387 991 457 1059 c 0,4,5
 608 1208 608 1208 608 1341 c 0,6,7
 608 1440 608 1440 543 1499 c 0,8,9
 483 1552 483 1552 389 1552 c 0,10,11
 344 1552 344 1552 301 1536 c 0,12,13
 281 1528 281 1528 260 1520 c 1,14,-1
 260 1362 l 1,15,16
 229 1337 229 1337 186 1337 c 0,17,18
 94 1337 94 1337 94 1421 c 0,19,20
 94 1509 94 1509 194.5 1569.5 c 128,-1,21
 295 1630 295 1630 432 1630 c 0,22,23
 582 1630 582 1630 678 1554.5 c 128,-1,24
 774 1479 774 1479 774 1356 c 0,25,26
 774 1223 774 1223 608 1063 c 0,27,28
 526 985 526 985 236 770 c 1,29,-1
 690 770 l 1,30,-1
 717 893 l 1,31,-1
 793 893 l 1,32,-1
 793 649 l 1,0,-1
EndSplineSet
Validated: 1
EndChar

StartChar: three
Encoding: 51 51 22
Width: 864
Flags: W
LayerCount: 2
Fore
SplineSet
793 924 m 0,0,1
 793 795 793 795 676 714 c 128,-1,2
 559 633 559 633 389 633 c 0,3,4
 246 633 246 633 154 688 c 0,5,6
 72 737 72 737 72 797 c 0,7,8
 72 872 72 872 162 872 c 0,9,10
 203 872 203 872 215 864 c 1,11,-1
 260 735 l 1,12,13
 322 705 322 705 395 705 c 0,14,15
 498 705 498 705 566.5 770.5 c 128,-1,16
 635 836 635 836 635 924 c 0,17,18
 635 1018 635 1018 557 1067 c 0,19,20
 496 1104 496 1104 403 1104 c 0,21,22
 354 1104 354 1104 311 1098 c 1,23,-1
 311 1188 l 1,24,25
 342 1186 342 1186 350 1186 c 0,26,27
 455 1186 455 1186 525.5 1232 c 128,-1,28
 596 1278 596 1278 596 1368 c 0,29,30
 596 1454 596 1454 535 1505 c 0,31,32
 479 1550 479 1550 395 1550 c 0,33,34
 319 1550 319 1550 256 1516 c 1,35,-1
 256 1372 l 1,36,37
 201 1354 201 1354 188 1354 c 0,38,39
 98 1354 98 1354 98 1434 c 0,40,41
 98 1516 98 1516 198.5 1573 c 128,-1,42
 299 1630 299 1630 438 1630 c 0,43,44
 575 1630 575 1630 664.5 1563.5 c 128,-1,45
 754 1497 754 1497 754 1386 c 0,46,47
 754 1219 754 1219 516 1157 c 1,48,49
 627 1151 627 1151 702 1098 c 0,50,51
 793 1032 793 1032 793 924 c 0,0,1
EndSplineSet
Validated: 1
EndChar

StartChar: four
Encoding: 52 52 23
Width: 864
Flags: W
LayerCount: 2
Fore
SplineSet
803 936 m 1,0,-1
 672 936 l 1,1,-1
 672 633 l 1,2,-1
 528 633 l 1,3,-1
 528 936 l 1,4,-1
 61 936 l 1,5,-1
 61 1034 l 1,6,-1
 565 1630 l 1,7,-1
 672 1630 l 1,8,-1
 672 1032 l 1,9,-1
 803 1032 l 1,10,-1
 803 936 l 1,0,-1
528 1032 m 1,11,-1
 528 1446 l 1,12,-1
 182 1032 l 1,13,-1
 528 1032 l 1,11,-1
EndSplineSet
Validated: 1
EndChar

StartChar: five
Encoding: 53 53 24
Width: 864
Flags: W
LayerCount: 2
Fore
SplineSet
795 961 m 0,0,1
 795 811 795 811 684 723 c 0,2,3
 567 633 567 633 360 633 c 0,4,5
 246 633 246 633 158 685 c 128,-1,6
 70 737 70 737 70 797 c 0,7,8
 70 877 70 877 166 877 c 0,9,10
 188 877 188 877 207 870 c 1,11,-1
 266 739 l 1,12,13
 307 702 307 702 383 702 c 0,14,15
 498 702 498 702 571 776 c 0,16,17
 637 842 637 842 637 926 c 0,18,19
 637 1042 637 1042 561 1106 c 0,20,21
 492 1163 492 1163 375 1163 c 0,22,23
 283 1163 283 1163 131 1114 c 1,24,-1
 131 1612 l 1,25,-1
 723 1612 l 1,26,-1
 723 1491 l 1,27,-1
 240 1491 l 1,28,-1
 240 1219 l 1,29,30
 356 1255 356 1255 446 1255 c 0,31,32
 608 1255 608 1255 701.5 1176.5 c 128,-1,33
 795 1098 795 1098 795 961 c 0,0,1
EndSplineSet
Validated: 1
EndChar

StartChar: six
Encoding: 54 54 25
Width: 864
Flags: W
LayerCount: 2
Fore
SplineSet
803 979 m 0,0,1
 803 823 803 823 696.5 728 c 128,-1,2
 590 633 590 633 430 633 c 0,3,4
 61 633 61 633 61 1061 c 0,5,6
 61 1323 61 1323 223 1476.5 c 128,-1,7
 385 1630 385 1630 676 1630 c 1,8,-1
 676 1540 l 1,9,-1
 623 1542 l 2,10,11
 473 1548 473 1548 362.5 1451 c 128,-1,12
 252 1354 252 1354 227 1186 c 1,13,14
 336 1276 336 1276 483 1276 c 0,15,16
 627 1276 627 1276 715 1192 c 128,-1,17
 803 1108 803 1108 803 979 c 0,0,1
647 958 m 0,18,19
 647 1065 647 1065 589.5 1124.5 c 128,-1,20
 532 1184 532 1184 430 1184 c 0,21,22
 322 1184 322 1184 223 1112 c 1,23,24
 219 1081 219 1081 219 1032 c 0,25,26
 219 707 219 707 430 707 c 0,27,28
 537 707 537 707 592 776.5 c 128,-1,29
 647 846 647 846 647 958 c 0,18,19
EndSplineSet
Validated: 33
EndChar

StartChar: seven
Encoding: 55 55 26
Width: 864
Flags: W
LayerCount: 2
Fore
SplineSet
801 1532 m 1,0,-1
 297 680 l 1,1,-1
 297 633 l 1,2,-1
 133 633 l 1,3,-1
 641 1491 l 1,4,-1
 168 1491 l 1,5,-1
 143 1360 l 1,6,-1
 63 1360 l 1,7,-1
 63 1612 l 1,8,-1
 801 1612 l 1,9,-1
 801 1532 l 1,0,-1
EndSplineSet
Validated: 1
EndChar

StartChar: eight
Encoding: 56 56 27
Width: 864
Flags: W
LayerCount: 2
Fore
SplineSet
801 911 m 0,0,1
 801 788 801 788 696.5 710.5 c 128,-1,2
 592 633 592 633 432 633 c 0,3,4
 262 633 262 633 161.5 708.5 c 128,-1,5
 61 784 61 784 61 909 c 0,6,7
 61 1071 61 1071 281 1147 c 1,8,9
 102 1217 102 1217 102 1366 c 0,10,11
 102 1487 102 1487 192.5 1558.5 c 128,-1,12
 283 1630 283 1630 432 1630 c 0,13,14
 571 1630 571 1630 665.5 1561.5 c 128,-1,15
 760 1493 760 1493 760 1389 c 0,16,17
 760 1241 760 1241 573 1157 c 1,18,19
 801 1077 801 1077 801 911 c 0,0,1
618 1374 m 0,20,21
 618 1460 618 1460 565 1508 c 128,-1,22
 512 1556 512 1556 432 1556 c 0,23,24
 354 1556 354 1556 305 1510 c 128,-1,25
 256 1464 256 1464 256 1399 c 0,26,27
 256 1268 256 1268 508 1184 c 1,28,29
 618 1262 618 1262 618 1374 c 0,20,21
647 889 m 0,30,31
 647 969 647 969 567 1020 c 0,32,33
 520 1051 520 1051 342 1116 c 1,34,35
 205 1047 205 1047 205 920 c 0,36,37
 205 825 205 825 264.5 768 c 128,-1,38
 324 711 324 711 432 711 c 0,39,40
 528 711 528 711 587.5 763 c 128,-1,41
 647 815 647 815 647 889 c 0,30,31
EndSplineSet
Validated: 1
EndChar

StartChar: nine
Encoding: 57 57 28
Width: 864
Flags: W
LayerCount: 2
Fore
SplineSet
803 1200 m 0,0,1
 803 940 803 940 640 786.5 c 128,-1,2
 477 633 477 633 188 633 c 1,3,-1
 188 721 l 1,4,-1
 240 721 l 2,5,6
 391 721 391 721 502.5 815 c 128,-1,7
 614 909 614 909 637 1075 c 1,8,9
 524 985 524 985 381 985 c 256,10,11
 238 985 238 985 149.5 1069 c 128,-1,12
 61 1153 61 1153 61 1282 c 0,13,14
 61 1436 61 1436 167.5 1533 c 128,-1,15
 274 1630 274 1630 434 1630 c 0,16,17
 803 1630 803 1630 803 1200 c 0,0,1
643 1229 m 0,18,19
 643 1554 643 1554 434 1554 c 0,20,21
 328 1554 328 1554 272.5 1484.5 c 128,-1,22
 217 1415 217 1415 217 1303 c 0,23,24
 217 1196 217 1196 274.5 1137.5 c 128,-1,25
 332 1079 332 1079 434 1079 c 0,26,27
 539 1079 539 1079 641 1151 c 1,28,29
 643 1180 643 1180 643 1229 c 0,18,19
EndSplineSet
Validated: 1
EndChar

StartChar: colon
Encoding: 58 58 29
Width: 776
Flags: W
LayerCount: 2
Fore
SplineSet
247.5 274 m 128,-1,1
 251 413 251 413 414 426 c 128,-1,2
 577 439 577 439 566 300 c 128,-1,3
 555 161 555 161 399.5 148 c 128,-1,0
 244 135 244 135 247.5 274 c 128,-1,1
256 975 m 128,-1,5
 256 1114 256 1114 420.5 1127 c 128,-1,6
 585 1140 585 1140 579.5 1003 c 128,-1,7
 574 866 574 866 415 851 c 128,-1,4
 256 836 256 836 256 975 c 128,-1,5
EndSplineSet
Validated: 33
EndChar

StartChar: less
Encoding: 60 60 31
Width: 0
Flags: W
LayerCount: 2
Fore
SplineSet
291 718.5 m 128,-1,1
 344 640 344 640 456 648.5 c 128,-1,2
 568 657 568 657 590 760 c 128,-1,3
 612 863 612 863 497.5 886 c 128,-1,4
 383 909 383 909 310.5 853 c 128,-1,0
 238 797 238 797 291 718.5 c 128,-1,1
957 723.5 m 128,-1,6
 1010 645 1010 645 1122 653.5 c 128,-1,7
 1234 662 1234 662 1256 765 c 128,-1,8
 1278 868 1278 868 1163.5 891 c 128,-1,9
 1049 914 1049 914 976.5 858 c 128,-1,5
 904 802 904 802 957 723.5 c 128,-1,6
EndSplineSet
Validated: 41
EndChar

StartChar: equal
Encoding: 61 61 32
Width: 1357
Flags: W
LayerCount: 2
Fore
SplineSet
1041 1175 m 1,0,-1
 1293 1160 l 1,1,2
 1093 1026 1093 1026 938 903 c 1,3,4
 703 628 703 628 603 465 c 1,5,-1
 597 -517 l 1,6,-1
 327 -538 l 1,7,-1
 327 490 l 1,8,-1
 164 760 l 1,9,10
 -85 1058 -85 1058 -325 1137 c 1,11,-1
 -203 1237 l 1,12,13
 -132 1251 -132 1251 -25 1187 c 1,14,15
 279 897 279 897 490 614 c 1,16,17
 979 1245 979 1245 1041 1175 c 1,0,-1
EndSplineSet
Validated: 33
EndChar

StartChar: greater
Encoding: 62 62 33
Width: 0
Flags: W
LayerCount: 2
Fore
SplineSet
291 1368.5 m 128,-1,1
 344 1290 344 1290 456 1298.5 c 128,-1,2
 568 1307 568 1307 590 1410 c 128,-1,3
 612 1513 612 1513 497.5 1536 c 128,-1,4
 383 1559 383 1559 310.5 1503 c 128,-1,0
 238 1447 238 1447 291 1368.5 c 128,-1,1
957 1373.5 m 128,-1,6
 1010 1295 1010 1295 1122 1303.5 c 128,-1,7
 1234 1312 1234 1312 1256 1415 c 128,-1,8
 1278 1518 1278 1518 1163.5 1541 c 128,-1,9
 1049 1564 1049 1564 976.5 1508 c 128,-1,5
 904 1452 904 1452 957 1373.5 c 128,-1,6
EndSplineSet
Validated: 41
EndChar

StartChar: A
Encoding: 65 65 36
Width: 1576
Flags: W
LayerCount: 2
Fore
SplineSet
1526 92 m 1,0,1
 1260 78 1260 78 1199 106 c 128,-1,2
 1138 134 1138 134 900 438 c 1,3,4
 423 46 423 46 224 148 c 1,5,6
 136 174 136 174 246 318 c 2,7,-1
 654 837 l 1,8,-1
 536 1102 l 1,9,10
 668 1174 668 1174 828 1125 c 1,11,12
 1127 511 1127 511 1284.5 331 c 128,-1,13
 1442 151 1442 151 1479.5 156.5 c 128,-1,14
 1517 162 1517 162 1526 92 c 1,0,1
469 419 m 1,15,16
 362 267 362 267 464 297 c 1,17,-1
 815 526 l 1,18,-1
 690 748 l 1,19,-1
 469 419 l 1,15,16
EndSplineSet
Validated: 33
EndChar

StartChar: B
Encoding: 66 66 37
Width: 1025
Flags: W
LayerCount: 2
Fore
SplineSet
1314.5 289 m 128,-1,1
 1284 128 1284 128 1194 112.5 c 128,-1,2
 1104 97 1104 97 1035 100 c 2,3,-1
 493 113 l 1,4,5
 467 231 467 231 497 1097 c 1,6,7
 724 1122 724 1122 860 1115.5 c 128,-1,8
 996 1109 996 1109 1103 1053 c 128,-1,9
 1210 997 1210 997 1166.5 836.5 c 128,-1,10
 1123 676 1123 676 901 656 c 1,11,12
 1190 650 1190 650 1267.5 550 c 128,-1,0
 1345 450 1345 450 1314.5 289 c 128,-1,1
940.5 816 m 128,-1,14
 966 891 966 891 924 945.5 c 128,-1,15
 882 1000 882 1000 662 1028 c 1,16,17
 685 910 685 910 672 687 c 1,18,13
 915 741 915 741 940.5 816 c 128,-1,14
1071.5 341.5 m 128,-1,20
 1097 501 1097 501 991 533.5 c 128,-1,21
 885 566 885 566 673 567 c 1,22,-1
 672 654 l 1,23,24
 666 361 666 361 693 173 c 1,25,19
 1046 182 1046 182 1071.5 341.5 c 128,-1,20
EndSplineSet
Validated: 33
EndChar

StartChar: C
Encoding: 67 67 38
Width: 1432
Flags: W
LayerCount: 2
Fore
SplineSet
1055 -11 m 1,0,1
 918 50 918 50 557.5 50.5 c 128,-1,2
 197 51 197 51 111 34 c 128,-1,3
 25 17 25 17 70 148 c 1,4,-1
 682 515 l 1,5,-1
 348 647 l 1,6,7
 142 756 142 756 357.5 872 c 128,-1,8
 573 988 573 988 784 1044 c 1,9,-1
 118 1022 l 1,10,11
 52 1024 52 1024 101 1136 c 1,12,-1
 1002 1112 l 1,13,14
 1520 1137 1520 1137 1236.5 1043.5 c 128,-1,15
 953 950 953 950 584 746 c 1,16,17
 1000 678 1000 678 1024 613.5 c 128,-1,18
 1048 549 1048 549 414 157 c 1,19,20
 879 217 879 217 1324 134 c 1,21,-1
 1055 -11 l 1,0,1
EndSplineSet
Validated: 33
EndChar

StartChar: D
Encoding: 68 68 39
Width: 1746
Flags: W
LayerCount: 2
Fore
SplineSet
1852.5 146 m 128,-1,1
 1993 40 1993 40 642 102 c 1,2,3
 158 61 158 61 302 166 c 1,4,5
 755 635 755 635 924 930 c 1,6,7
 801 1101 801 1101 901.5 1134 c 128,-1,8
 1002 1167 1002 1167 1144 1144 c 1,9,10
 1302 755 1302 755 1507 503.5 c 128,-1,0
 1712 252 1712 252 1852.5 146 c 128,-1,1
1546 212 m 1,11,12
 1187 528 1187 528 1013 806 c 1,13,14
 934 685 934 685 524 227 c 1,15,-1
 947 217 l 1,16,-1
 1546 212 l 1,11,12
EndSplineSet
Validated: 33
EndChar

StartChar: E
Encoding: 69 69 40
Width: 1156
Flags: W
LayerCount: 2
Fore
SplineSet
911 1124 m 1,1,2
 730 1134 730 1134 659 1128.5 c 128,-1,3
 588 1123 588 1123 524 1020 c 128,-1,4
 460 917 460 917 448 757 c 1,5,6
 850 756 850 756 1140 740 c 1,7,8
 1175 687 1175 687 1102 660 c 1,9,10
 793 643 793 643 445 650 c 1,11,12
 438 414 438 414 494.5 323 c 128,-1,13
 551 232 551 232 699 230.5 c 128,-1,14
 847 229 847 229 1000.5 244.5 c 128,-1,15
 1154 260 1154 260 1094 163 c 1,16,17
 928 109 928 109 694.5 106 c 128,-1,18
 461 103 461 103 351.5 122.5 c 128,-1,19
 242 142 242 142 209.5 320.5 c 128,-1,20
 177 499 177 499 193.5 703.5 c 128,-1,21
 210 908 210 908 262.5 1055.5 c 128,-1,22
 315 1203 315 1203 530.5 1222 c 128,-1,23
 746 1241 746 1241 964.5 1210.5 c 128,-1,24
 1183 1180 1183 1180 1108 1135.5 c 128,-1,0
 1033 1091 1033 1091 911 1124 c 1,1,2
EndSplineSet
Validated: 33
EndChar

StartChar: F
Encoding: 70 70 41
Width: 2316
Flags: W
LayerCount: 2
Fore
SplineSet
1784.5 522 m 128,-1,1
 1611 300 1611 300 1092 145 c 1,2,-1
 1093 -248 l 1,3,-1
 856 -290 l 1,4,-1
 853 130 l 1,5,6
 426 228 426 228 226.5 463.5 c 128,-1,7
 27 699 27 699 233 898.5 c 128,-1,8
 439 1098 439 1098 859 1174 c 1,9,-1
 859 1671 l 1,10,-1
 1091 1661 l 1,11,-1
 1096 1167 l 1,12,13
 1466 1116 1466 1116 1712 930 c 128,-1,0
 1958 744 1958 744 1784.5 522 c 128,-1,1
1090 1000 m 1,15,-1
 1092 296 l 1,16,17
 1443 402 1443 402 1541 559 c 128,-1,18
 1639 716 1639 716 1517 835 c 128,-1,14
 1395 954 1395 954 1090 1000 c 1,15,-1
856 972 m 1,19,20
 615 968 615 968 440 831.5 c 128,-1,21
 265 695 265 695 420.5 514 c 128,-1,22
 576 333 576 333 856 302 c 1,23,-1
 856 972 l 1,19,20
EndSplineSet
Validated: 33
EndChar

StartChar: G
Encoding: 71 71 42
Width: 1338
Flags: W
LayerCount: 2
Fore
SplineSet
1250 1048.5 m 128,-1,1
 1250 993 1250 993 1165.5 973 c 128,-1,2
 1081 953 1081 953 995 997 c 1,3,4
 730 1040 730 1040 421 1007 c 1,5,6
 385 838 385 838 393 281 c 1,7,8
 406 87 406 87 327.5 82.5 c 128,-1,9
 249 78 249 78 201.5 98.5 c 128,-1,10
 154 119 154 119 169 250 c 1,11,-1
 171 988 l 1,12,13
 137 1075 137 1075 185 1114 c 1,14,15
 695 1110 695 1110 972.5 1107 c 128,-1,0
 1250 1104 1250 1104 1250 1048.5 c 128,-1,1
EndSplineSet
Validated: 33
EndChar

StartChar: H
Encoding: 72 72 43
Width: 1340
Flags: W
LayerCount: 2
Fore
SplineSet
1209 92 m 1,0,-1
 1006 88 l 1,1,-1
 982 576 l 1,2,3
 694 583 694 583 354 587 c 1,4,-1
 349 88 l 1,5,-1
 140 92 l 1,6,7
 166 606 166 606 140 1120 c 1,8,-1
 354 1121 l 1,9,-1
 360 674 l 1,10,11
 702 677 702 677 982 655 c 1,12,-1
 999 1148 l 1,13,-1
 1209 1140 l 1,14,15
 1178 594 1178 594 1209 92 c 1,0,-1
EndSplineSet
Validated: 33
EndChar

StartChar: I
Encoding: 73 73 44
Width: 710
Flags: W
LayerCount: 2
Fore
SplineSet
495 136 m 1,0,1
 484 94 484 94 342.5 99.5 c 128,-1,2
 201 105 201 105 242 235 c 1,3,4
 246 594 246 594 243 956 c 1,5,6
 219 1103 219 1103 298 1103 c 2,7,-1
 474 1107 l 1,8,9
 505 1080 505 1080 504 833 c 128,-1,10
 503 586 503 586 495 136 c 1,0,1
EndSplineSet
Validated: 33
EndChar

StartChar: J
Encoding: 74 74 45
Width: 1168
Flags: W
LayerCount: 2
Fore
SplineSet
785 34 m 1,0,1
 772 -15 772 -15 605.5 -8.5 c 128,-1,2
 439 -2 439 -2 488 151 c 1,3,4
 493 573 493 573 489 999 c 1,5,6
 461 1172 461 1172 554 1172 c 2,7,-1
 761 1177 l 1,8,9
 797 1145 797 1145 796 854.5 c 128,-1,10
 795 564 795 564 785 34 c 1,0,1
240 1350.5 m 128,-1,12
 253 1265 253 1265 365 1283 c 128,-1,13
 477 1301 477 1301 539 1390 c 128,-1,14
 601 1479 601 1479 488.5 1490.5 c 128,-1,15
 376 1502 376 1502 301.5 1469 c 128,-1,11
 227 1436 227 1436 240 1350.5 c 128,-1,12
714 1338.5 m 128,-1,17
 727 1253 727 1253 862.5 1278 c 128,-1,18
 998 1303 998 1303 1036.5 1385 c 128,-1,19
 1075 1467 1075 1467 944.5 1489.5 c 128,-1,20
 814 1512 814 1512 757.5 1468 c 128,-1,16
 701 1424 701 1424 714 1338.5 c 128,-1,17
EndSplineSet
Validated: 41
EndChar

StartChar: K
Encoding: 75 75 46
Width: 1475
Flags: W
LayerCount: 2
Fore
SplineSet
1334 123 m 1,0,1
 1352 51 1352 51 1053 87 c 1,2,3
 819 277 819 277 536 476 c 1,4,5
 492 472 492 472 462 444 c 1,6,7
 476 88 476 88 414 88 c 1,8,9
 -57 42 -57 42 212 148 c 1,10,-1
 220 899 l 1,11,12
 192 981 192 981 255.5 1005.5 c 128,-1,13
 319 1030 319 1030 391.5 1032 c 128,-1,14
 464 1034 464 1034 466 973 c 2,15,-1
 466 631 l 1,16,17
 442 564 442 564 533 602 c 1,18,19
 1125 1005 1125 1005 1258 1058 c 1,20,21
 1429 1050 1429 1050 1415 1017 c 128,-1,22
 1401 984 1401 984 1346 956.5 c 128,-1,23
 1291 929 1291 929 1217 886.5 c 128,-1,24
 1143 844 1143 844 983 754 c 128,-1,25
 823 664 823 664 667 561 c 1,26,27
 962 378 962 378 1106 289.5 c 128,-1,28
 1250 201 1250 201 1334 123 c 1,0,1
EndSplineSet
Validated: 33
EndChar

StartChar: L
Encoding: 76 76 47
Width: 1572
Flags: W
LayerCount: 2
Fore
SplineSet
1442 120 m 1,0,1
 1512 67 1512 67 1164 93 c 1,2,3
 859 390 859 390 723 642 c 1,4,5
 391 201 391 201 257 80 c 1,6,7
 57 55 57 55 76 107 c 1,8,9
 251 270 251 270 626 769 c 1,10,-1
 501 963 l 1,11,12
 343 1135 343 1135 712 1070 c 1,13,14
 743 1038 743 1038 930.5 744 c 128,-1,15
 1118 450 1118 450 1442 120 c 1,0,1
EndSplineSet
Validated: 33
EndChar

StartChar: M
Encoding: 77 77 48
Width: 1644
Flags: W
LayerCount: 2
Fore
SplineSet
1504 42 m 1,0,-1
 1258 70 l 1,1,2
 1250 358 1250 358 1230 638 c 1,3,-1
 1048 381 l 1,4,5
 838 49 838 49 722.5 180 c 128,-1,6
 607 311 607 311 394 560 c 1,7,8
 397 287 397 287 393 26 c 1,9,-1
 184 -11 l 1,10,-1
 179 167 l 1,11,12
 173 818 173 818 162 948 c 1,13,-1
 405 959 l 1,14,-1
 413 838 l 1,15,16
 491 682 491 682 631.5 467 c 128,-1,17
 772 252 772 252 867 353 c 1,18,19
 1027 501 1027 501 1232 774 c 1,20,-1
 1222 983 l 1,21,22
 1310 989 1310 989 1462 975 c 1,23,24
 1460 476 1460 476 1468 330 c 128,-1,25
 1476 184 1476 184 1504 42 c 1,0,-1
EndSplineSet
Validated: 33
EndChar

StartChar: N
Encoding: 78 78 49
Width: 1549
Flags: W
LayerCount: 2
Fore
SplineSet
1384 16 m 1,0,-1
 1183 -44 l 1,1,-1
 1165 39 l 1,2,3
 949 218 949 218 669.5 442 c 128,-1,4
 390 666 390 666 379 622 c 1,5,6
 395 271 395 271 379 30 c 1,7,-1
 159 -27 l 1,8,9
 184 385 184 385 165 955 c 1,10,-1
 380 947 l 1,11,-1
 380 808 l 1,12,13
 998 301 998 301 1166 250 c 1,14,15
 1160 481 1160 481 1193 917 c 1,16,-1
 1402 933 l 1,17,18
 1351 484 1351 484 1384 16 c 1,0,-1
EndSplineSet
Validated: 33
EndChar

StartChar: O
Encoding: 79 79 50
Width: 1432
Flags: W
LayerCount: 2
Fore
SplineSet
1092.5 221.5 m 128,-1,1
 890 82 890 82 658 82 c 128,-1,2
 426 82 426 82 276.5 210 c 128,-1,3
 127 338 127 338 127 618.5 c 128,-1,4
 127 899 127 899 307 987.5 c 128,-1,5
 487 1076 487 1076 723 1076 c 128,-1,6
 959 1076 959 1076 1127 961.5 c 128,-1,7
 1295 847 1295 847 1295 604 c 128,-1,0
 1295 361 1295 361 1092.5 221.5 c 128,-1,1
1038.5 771 m 128,-1,9
 990 924 990 924 816.5 968.5 c 128,-1,10
 643 1013 643 1013 537 943.5 c 128,-1,11
 431 874 431 874 432.5 628.5 c 128,-1,12
 434 383 434 383 522 261.5 c 128,-1,13
 610 140 610 140 741.5 152.5 c 128,-1,14
 873 165 873 165 947.5 214.5 c 128,-1,15
 1022 264 1022 264 1054.5 441 c 128,-1,8
 1087 618 1087 618 1038.5 771 c 128,-1,9
EndSplineSet
Validated: 33
EndChar

StartChar: P
Encoding: 80 80 51
Width: 1627
Flags: W
LayerCount: 2
Fore
SplineSet
1394 968 m 1,0,1
 1521 977 1521 977 1509 906 c 1,2,-1
 1373 892 l 1,3,4
 1372 432 1372 432 1411 0 c 1,5,6
 1301 -7 1301 -7 1189 28 c 1,7,-1
 1146 880 l 1,8,9
 1009 885 1009 885 459 864 c 1,10,11
 504 358 504 358 462 69 c 1,12,-1
 243 51 l 1,13,14
 242 390 242 390 239 856 c 1,15,-1
 125 868 l 1,16,17
 46 887 46 887 165 951 c 1,18,-1
 1394 968 l 1,0,1
EndSplineSet
Validated: 33
EndChar

StartChar: Q
Encoding: 81 81 52
Width: 1545
Flags: W
LayerCount: 2
Fore
SplineSet
1169.5 201 m 128,-1,1
 955 59 955 59 708 59 c 128,-1,2
 461 59 461 59 302.5 189.5 c 128,-1,3
 144 320 144 320 144 605.5 c 128,-1,4
 144 891 144 891 335.5 981 c 128,-1,5
 527 1071 527 1071 777.5 1071 c 128,-1,6
 1028 1071 1028 1071 1206 954.5 c 128,-1,7
 1384 838 1384 838 1384 590.5 c 128,-1,0
 1384 343 1384 343 1169.5 201 c 128,-1,1
1124.5 770 m 128,-1,9
 1072 935 1072 935 912 976 c 128,-1,10
 752 1017 752 1017 592.5 964 c 128,-1,11
 433 911 433 911 407 683 c 1,12,13
 763 668 763 668 1178 671 c 1,14,-1
 1174 591 l 1,15,16
 707 573 707 573 406 586 c 1,17,18
 404 380 404 380 514 270 c 128,-1,19
 624 160 624 160 776 164 c 128,-1,20
 928 168 928 168 1017 231 c 128,-1,21
 1106 294 1106 294 1141.5 449.5 c 128,-1,8
 1177 605 1177 605 1124.5 770 c 128,-1,9
EndSplineSet
Validated: 41
EndChar

StartChar: R
Encoding: 82 82 53
Width: 1173
Flags: W
LayerCount: 2
Fore
SplineSet
906.5 600 m 128,-1,1
 760 454 760 454 430 457 c 1,2,-1
 446 549 l 1,3,4
 797 523 797 523 782 732 c 128,-1,5
 767 941 767 941 605 984.5 c 128,-1,6
 443 1028 443 1028 435 966 c 1,7,-1
 423 3 l 1,8,-1
 435 -212 l 1,9,10
 340 -274 340 -274 154 -219 c 1,11,12
 219 228 219 228 204 851 c 0,13,14
 197 1067 197 1067 280 1110 c 1,15,16
 590 1144 590 1144 722.5 1111.5 c 128,-1,17
 855 1079 855 1079 956 924 c 1,18,0
 1053 746 1053 746 906.5 600 c 128,-1,1
EndSplineSet
Validated: 33
EndChar

StartChar: S
Encoding: 83 83 54
Width: 1337
Flags: W
LayerCount: 2
Fore
SplineSet
1249 917 m 1,0,1
 1218 858 1218 858 1180.5 853.5 c 128,-1,2
 1143 849 1143 849 1022 930 c 0,3,4
 951 981 951 981 757 1015 c 1,5,6
 491 1019 491 1019 442 871 c 128,-1,7
 393 723 393 723 397 602.5 c 128,-1,8
 401 482 401 482 438.5 366.5 c 128,-1,9
 476 251 476 251 585 201 c 128,-1,10
 694 151 694 151 801.5 155 c 128,-1,11
 909 159 909 159 1020 182 c 1,12,13
 1188 262 1188 262 1177.5 180.5 c 128,-1,14
 1167 99 1167 99 958 75 c 1,15,16
 316 24 316 24 206 219.5 c 128,-1,17
 96 415 96 415 134.5 701 c 128,-1,18
 173 987 173 987 406.5 1073 c 128,-1,19
 640 1159 640 1159 943.5 1098 c 128,-1,20
 1247 1037 1247 1037 1249 917 c 1,0,1
EndSplineSet
Validated: 33
EndChar

StartChar: T
Encoding: 84 84 55
Width: 1729
Flags: W
LayerCount: 2
Fore
SplineSet
1307 897 m 1,1,2
 1116 907 1116 907 1060.5 900.5 c 128,-1,3
 1005 894 1005 894 984 763 c 1,4,-1
 983 -8 l 1,5,6
 909 -58 909 -58 742 -26 c 1,7,-1
 759 890 l 1,8,9
 702 906 702 906 422 896 c 1,10,11
 199 816 199 816 154 914 c 1,12,-1
 157 974 l 1,13,-1
 242 991 l 1,14,-1
 1487 986 l 1,15,16
 1678 993 1678 993 1631 916 c 128,-1,0
 1584 839 1584 839 1307 897 c 1,1,2
EndSplineSet
Validated: 33
EndChar

StartChar: U
Encoding: 85 85 56
Width: 1580
Flags: W
LayerCount: 2
Fore
SplineSet
1281 1023 m 1,0,-1
 1496 1011 l 1,1,2
 1326 897 1326 897 1194 792 c 1,3,4
 994 558 994 558 909 420 c 1,5,-1
 904 -415 l 1,6,-1
 675 -433 l 1,7,-1
 675 441 l 1,8,-1
 536 671 l 1,9,10
 324 924 324 924 120 991 c 1,11,-1
 224 1076 l 1,12,13
 284 1088 284 1088 375 1034 c 1,14,15
 634 787 634 787 813 547 c 1,16,17
 1229 1083 1229 1083 1281 1023 c 1,0,-1
EndSplineSet
Validated: 33
EndChar

StartChar: V
Encoding: 86 86 57
Width: 1653
Flags: W
LayerCount: 2
Fore
SplineSet
1385 64 m 1,0,1
 1457 -11 1457 -11 838 -355 c 1,2,3
 562 -470 562 -470 593 -391 c 1,4,5
 1093 -152 1093 -152 1103 29 c 1,6,7
 1017 139 1017 139 795 324 c 1,8,9
 655 456 655 456 607 485 c 1,10,11
 552 480 552 480 489 413 c 1,12,-1
 488 135 l 2,13,14
 490 49 490 49 381 4 c 1,15,-1
 309 -12 l 1,16,17
 163 -35 163 -35 193 96 c 1,18,-1
 201 819 l 1,19,20
 169 1070 169 1070 204 1086.5 c 128,-1,21
 239 1103 239 1103 365 1105 c 128,-1,22
 491 1107 491 1107 493 1035 c 2,23,-1
 493 632 l 1,24,25
 485 554 485 554 529 598 c 1,26,27
 778 802 778 802 976 952.5 c 128,-1,28
 1174 1103 1174 1103 1236 1101 c 1,29,30
 1303 1111 1303 1111 1314 1024 c 1,31,32
 1287 966 1287 966 1139 887.5 c 128,-1,33
 991 809 991 809 757 625 c 1,34,35
 1223 232 1223 232 1300.5 162 c 128,-1,36
 1378 92 1378 92 1385 64 c 1,0,1
EndSplineSet
Validated: 33
EndChar

StartChar: W
Encoding: 87 87 58
Width: 2391
Flags: W
LayerCount: 2
Fore
SplineSet
2066.5 224.5 m 128,-1,1
 1878 101 1878 101 1659.5 101 c 128,-1,2
 1441 101 1441 101 1383 172.5 c 128,-1,3
 1325 244 1325 244 1291 225 c 1,4,5
 1118 186 1118 186 1007 146.5 c 128,-1,6
 896 107 896 107 692 99 c 128,-1,7
 488 91 488 91 350 187 c 128,-1,8
 212 283 212 283 170.5 536.5 c 128,-1,9
 129 790 129 790 262.5 914 c 128,-1,10
 396 1038 396 1038 626 1115 c 1,11,12
 773 1132 773 1132 702 1015 c 1,13,14
 392 794 392 794 441 564 c 128,-1,15
 490 334 490 334 622.5 241 c 128,-1,16
 755 148 755 148 936.5 198 c 128,-1,17
 1118 248 1118 248 1168 309 c 1,18,-1
 1171 684 l 1,19,-1
 1177 1019 l 1,20,21
 1254 1078 1254 1078 1413 1028 c 1,22,23
 1381 715 1381 715 1453 345 c 1,24,25
 1540 188 1540 188 1726 203 c 128,-1,26
 1912 218 1912 218 1970 338 c 128,-1,27
 2028 458 2028 458 2046.5 555.5 c 128,-1,28
 2065 653 2065 653 2034 778 c 128,-1,29
 2003 903 2003 903 1826.5 950.5 c 128,-1,30
 1650 998 1650 998 1742 1086 c 1,31,32
 1920 1080 1920 1080 2081 1034 c 1,33,34
 2331 862 2331 862 2293 605 c 128,-1,0
 2255 348 2255 348 2066.5 224.5 c 128,-1,1
EndSplineSet
Validated: 33
EndChar

StartChar: X
Encoding: 88 88 59
Width: 1609
Flags: W
LayerCount: 2
Fore
SplineSet
1402 60.5 m 128,-1,1
 1329 57 1329 57 1239.5 63.5 c 128,-1,2
 1150 70 1150 70 1092 126 c 1,3,-1
 844 519 l 1,4,5
 725 440 725 440 454 233 c 1,6,7
 264 79 264 79 162 89 c 0,8,9
 88 94 88 94 92.5 127.5 c 128,-1,10
 97 161 97 161 366 331 c 1,11,12
 566 440 566 440 773 617 c 1,13,-1
 430 1130 l 1,14,15
 494 1182 494 1182 670 1153 c 1,16,-1
 935 744 l 1,17,-1
 1372 1119 l 1,18,19
 1471 1143 1471 1143 1516 1119.5 c 128,-1,20
 1561 1096 1561 1096 1493.5 1035.5 c 128,-1,21
 1426 975 1426 975 1269 879 c 1,22,-1
 992 664 l 1,23,24
 1281 213 1281 213 1378 138.5 c 128,-1,0
 1475 64 1475 64 1402 60.5 c 128,-1,1
EndSplineSet
Validated: 33
EndChar

StartChar: Y
Encoding: 89 89 60
Width: 1689
Flags: W
LayerCount: 2
Fore
SplineSet
1372 1077 m 1,0,1
 1706 1154 1706 1154 1457 951 c 1,2,3
 1054 550 1054 550 913 387 c 1,4,-1
 914 -108 l 1,5,-1
 700 -101 l 1,6,-1
 702 371 l 1,7,-1
 130 1039 l 1,8,-1
 154 1080 l 1,9,10
 306 1061 306 1061 385 1013 c 1,11,-1
 709 557 l 1,12,-1
 704 1241 l 1,13,-1
 894 1172 l 1,14,-1
 901 546 l 1,15,16
 1276 926 1276 926 1372 1077 c 1,0,1
EndSplineSet
Validated: 33
EndChar

StartChar: Z
Encoding: 90 90 61
Width: 1880
Flags: W
LayerCount: 2
Fore
SplineSet
1732.5 964 m 128,-1,1
 1652 864 1652 864 1505 870 c 1,2,-1
 1421 817 l 1,3,4
 1207 560 1207 560 868 285 c 1,5,6
 1145 256 1145 256 1416 190 c 1,7,8
 1625 114 1625 114 1594.5 37 c 128,-1,9
 1564 -40 1564 -40 1473.5 -18 c 128,-1,10
 1383 4 1383 4 1258 87 c 1,11,12
 1009 172 1009 172 587 101 c 1,13,14
 72 -73 72 -73 89 28.5 c 128,-1,15
 106 130 106 130 236 194.5 c 128,-1,16
 366 259 366 259 519 282 c 1,17,18
 897 513 897 513 1230 882 c 1,19,20
 1066 915 1066 915 562 907 c 1,21,22
 324 830 324 830 152 895 c 1,23,24
 183 1010 183 1010 312.5 1025 c 128,-1,25
 442 1040 442 1040 697.5 1028 c 128,-1,26
 953 1016 953 1016 1127 1012.5 c 128,-1,27
 1301 1009 1301 1009 1448 1056.5 c 128,-1,28
 1595 1104 1595 1104 1704 1084 c 128,-1,0
 1813 1064 1813 1064 1732.5 964 c 128,-1,1
EndSplineSet
Validated: 33
EndChar

StartChar: underscore
Encoding: 95 95 63
Width: 20
Flags: W
LayerCount: 2
Fore
SplineSet
1157 130 m 1,0,-1
 1093 127 l 1,1,-1
 482 125 l 1,2,3
 471 141 471 141 492.5 169 c 128,-1,4
 514 197 514 197 551 197 c 2,5,-1
 1208 197 l 1,6,7
 1189 141 1189 141 1157 130 c 1,0,-1
EndSplineSet
Validated: 1
EndChar

StartChar: a
Encoding: 97 97 65
Width: 1798
Flags: W
LayerCount: 2
Fore
SplineSet
1644 -1 m 1,0,1
 1332 -17 1332 -17 1260 16 c 128,-1,2
 1188 49 1188 49 908 407 c 1,3,4
 347 -55 347 -55 113 66 c 1,5,6
 9 96 9 96 138 265 c 2,7,-1
 618 876 l 1,8,-1
 480 1188 l 1,9,10
 635 1273 635 1273 823 1215 c 1,11,12
 1175 493 1175 493 1360.5 281 c 128,-1,13
 1546 69 1546 69 1590 75.5 c 128,-1,14
 1634 82 1634 82 1644 -1 c 1,0,1
419 383 m 2,15,16
 294 204 294 204 413 240 c 1,17,-1
 826 509 l 1,18,-1
 680 770 l 1,19,-1
 419 383 l 2,15,16
EndSplineSet
Validated: 33
EndChar

StartChar: b
Encoding: 98 98 66
Width: 1235
Flags: W
LayerCount: 2
Fore
SplineSet
1387.5 233 m 128,-1,1
 1352 44 1352 44 1246 25.5 c 128,-1,2
 1140 7 1140 7 1058 10 c 2,3,-1
 421 26 l 1,4,5
 390 165 390 165 425 1183 c 1,6,7
 693 1213 693 1213 853 1205.5 c 128,-1,8
 1013 1198 1013 1198 1138.5 1132 c 128,-1,9
 1264 1066 1264 1066 1213 877 c 128,-1,10
 1162 688 1162 688 901 665 c 1,11,12
 1241 657 1241 657 1332 539.5 c 128,-1,0
 1423 422 1423 422 1387.5 233 c 128,-1,1
970 854.5 m 128,-1,14
 1000 943 1000 943 950.5 1007 c 128,-1,15
 901 1071 901 1071 642 1104 c 1,16,17
 670 965 670 965 654 703 c 1,18,13
 940 766 940 766 970 854.5 c 128,-1,14
1106 292 m 128,-1,20
 1136 480 1136 480 1011.5 518 c 128,-1,21
 887 556 887 556 638 557 c 1,22,-1
 636 659 l 1,23,24
 630 315 630 315 661 94 c 1,25,19
 1076 104 1076 104 1106 292 c 128,-1,20
EndSplineSet
Validated: 33
EndChar

StartChar: c
Encoding: 99 99 67
Width: 1704
Flags: W
LayerCount: 2
Fore
SplineSet
1118 -112 m 1,0,1
 957 -40 957 -40 533 -39.5 c 128,-1,2
 109 -39 109 -39 8 -59 c 128,-1,3
 -93 -79 -93 -79 -41 75 c 1,4,-1
 680 507 l 1,5,-1
 286 662 l 1,6,7
 44 790 44 790 297.5 926.5 c 128,-1,8
 551 1063 551 1063 800 1129 c 1,9,-1
 16 1103 l 1,10,11
 -62 1105 -62 1105 -4 1237 c 1,12,-1
 1056 1209 l 1,13,14
 1666 1238 1666 1238 1332 1128 c 128,-1,15
 998 1018 998 1018 564 778 c 1,16,17
 1054 699 1054 699 1082 623 c 128,-1,18
 1110 547 1110 547 364 85 c 1,19,20
 911 156 911 156 1435 58 c 1,21,-1
 1118 -112 l 1,0,1
EndSplineSet
Validated: 33
EndChar

StartChar: d
Encoding: 100 100 68
Width: 2058
Flags: W
LayerCount: 2
Fore
SplineSet
1991 63 m 128,-1,1
 2156 -62 2156 -62 567 11 c 1,2,3
 -2 -37 -2 -37 167 86 c 1,4,5
 700 638 700 638 899 986 c 1,6,7
 754 1187 754 1187 872.5 1225.5 c 128,-1,8
 991 1264 991 1264 1158 1237 c 1,9,10
 1344 780 1344 780 1585 484 c 128,-1,0
 1826 188 1826 188 1991 63 c 128,-1,1
1627 109 m 1,11,12
 1205 480 1205 480 1000 807 c 1,13,14
 907 665 907 665 425 126 c 1,15,-1
 922 114 l 1,16,-1
 1627 109 l 1,11,12
EndSplineSet
Validated: 33
EndChar

StartChar: e
Encoding: 101 101 69
Width: 1369
Flags: W
LayerCount: 2
Fore
SplineSet
992 1211 m 1,1,2
 779 1223 779 1223 695.5 1216.5 c 128,-1,3
 612 1210 612 1210 536.5 1088.5 c 128,-1,4
 461 967 461 967 447 779 c 1,5,6
 920 778 920 778 1261 759 c 1,7,8
 1302 697 1302 697 1216 665 c 1,9,10
 853 645 853 645 443 653 c 1,11,12
 435 375 435 375 501.5 268 c 128,-1,13
 568 161 568 161 742 159.5 c 128,-1,14
 916 158 916 158 1096.5 176 c 128,-1,15
 1277 194 1277 194 1207 80 c 1,16,17
 1012 16 1012 16 737 13 c 128,-1,18
 462 10 462 10 333.5 32.5 c 128,-1,19
 205 55 205 55 166.5 265 c 128,-1,20
 128 475 128 475 147.5 715.5 c 128,-1,21
 167 956 167 956 228.5 1130 c 128,-1,22
 290 1304 290 1304 544 1326 c 128,-1,23
 798 1348 798 1348 1055 1312.5 c 128,-1,24
 1312 1277 1312 1277 1223.5 1224.5 c 128,-1,0
 1135 1172 1135 1172 992 1211 c 1,1,2
EndSplineSet
Validated: 33
EndChar

StartChar: f
Encoding: 102 102 70
Width: 2382
Flags: W
LayerCount: 2
Fore
SplineSet
2128.5 547.5 m 128,-1,1
 1924 286 1924 286 1314 104 c 1,2,-1
 1315 -358 l 1,3,-1
 1036 -408 l 1,4,-1
 1032 86 l 1,5,6
 530 202 530 202 295.5 479 c 128,-1,7
 61 756 61 756 303 990.5 c 128,-1,8
 545 1225 545 1225 1040 1315 c 1,9,-1
 1040 1833 l 1,10,-1
 1306 1837 l 1,11,-1
 1318 1306 l 1,12,13
 1754 1246 1754 1246 2043.5 1027.5 c 128,-1,0
 2333 809 2333 809 2128.5 547.5 c 128,-1,1
1305 1123 m 1,15,-1
 1308 295 l 1,16,17
 1721 419 1721 419 1836 604 c 128,-1,18
 1951 789 1951 789 1807.5 929 c 128,-1,14
 1664 1069 1664 1069 1305 1123 c 1,15,-1
1033 1108 m 1,19,20
 750 1104 750 1104 544 943 c 128,-1,21
 338 782 338 782 521 569 c 128,-1,22
 704 356 704 356 1033 320 c 1,23,-1
 1033 1108 l 1,19,20
EndSplineSet
Validated: 33
EndChar

StartChar: g
Encoding: 103 103 71
Width: 1551
Flags: W
LayerCount: 2
Fore
SplineSet
1482.5 1102 m 128,-1,1
 1482 1037 1482 1037 1383 1013.5 c 128,-1,2
 1284 990 1284 990 1183 1042 c 1,3,4
 871 1092 871 1092 507 1053 c 1,5,6
 465 854 465 854 474 199 c 1,7,8
 490 -29 490 -29 397.5 -34.5 c 128,-1,9
 305 -40 305 -40 249 -15.5 c 128,-1,10
 193 9 193 9 211 163 c 1,11,-1
 213 1031 l 1,12,13
 173 1133 173 1133 230 1179 c 1,14,15
 830 1174 830 1174 1156.5 1170.5 c 128,-1,0
 1483 1167 1483 1167 1482.5 1102 c 128,-1,1
EndSplineSet
Validated: 33
EndChar

StartChar: h
Encoding: 104 104 72
Width: 1607
Flags: W
LayerCount: 2
Fore
SplineSet
1446 -7 m 1,0,-1
 1208 -11 l 1,1,-1
 1179 562 l 1,2,3
 840 571 840 571 441 576 c 1,4,-1
 435 -11 l 1,5,-1
 189 -7 l 1,6,7
 219 598 219 598 189 1203 c 1,8,-1
 440 1204 l 1,9,-1
 447 678 l 1,10,11
 850 681 850 681 1179 656 c 1,12,-1
 1199 1236 l 1,13,-1
 1446 1226 l 1,14,15
 1410 584 1410 584 1446 -7 c 1,0,-1
EndSplineSet
Validated: 33
EndChar

StartChar: i
Encoding: 105 105 73
Width: 780
Flags: W
LayerCount: 2
Fore
SplineSet
553 38 m 1,0,1
 540 -11 540 -11 373.5 -4.5 c 128,-1,2
 207 2 207 2 256 155 c 1,3,4
 261 577 261 577 257 1003 c 1,5,6
 229 1176 229 1176 322 1176 c 2,7,-1
 529 1181 l 1,8,9
 565 1149 565 1149 564 858.5 c 128,-1,10
 563 568 563 568 553 38 c 1,0,1
EndSplineSet
Validated: 33
EndChar

StartChar: j
Encoding: 106 106 74
Width: 1614
Flags: W
LayerCount: 2
Fore
SplineSet
1503 977 m 1,0,1
 1467 908 1467 908 1423 902.5 c 128,-1,2
 1379 897 1379 897 1236 992 c 1,3,4
 1153 1053 1153 1053 925 1092 c 1,5,6
 612 1097 612 1097 554 923 c 128,-1,7
 496 749 496 749 501 607.5 c 128,-1,8
 506 466 506 466 550 330 c 128,-1,9
 594 194 594 194 722 135 c 128,-1,10
 850 76 850 76 976.5 80.5 c 128,-1,11
 1103 85 1103 85 1234 112 c 1,12,13
 1431 206 1431 206 1419 110.5 c 128,-1,14
 1407 15 1407 15 1161 -14 c 1,15,16
 406 -73 406 -73 276.5 157 c 128,-1,17
 147 387 147 387 192 723.5 c 128,-1,18
 237 1060 237 1060 512 1161 c 128,-1,19
 787 1262 787 1262 1144 1190 c 128,-1,20
 1501 1118 1501 1118 1503 977 c 1,0,1
EndSplineSet
Validated: 33
EndChar

StartChar: k
Encoding: 107 107 75
Width: 1684
Flags: W
LayerCount: 2
Fore
SplineSet
1553 54 m 1,0,1
 1574 -31 1574 -31 1223 11 c 1,2,3
 948 235 948 235 614 469 c 1,4,5
 563 464 563 464 528 432 c 1,6,7
 544 13 544 13 471 13 c 1,8,9
 -83 -42 -83 -42 233 83 c 1,10,-1
 243 967 l 1,11,12
 210 1063 210 1063 284.5 1092 c 128,-1,13
 359 1121 359 1121 444.5 1123.5 c 128,-1,14
 530 1126 530 1126 532 1054 c 2,15,-1
 532 651 l 1,16,17
 504 573 504 573 611 617 c 1,18,19
 1307 1092 1307 1092 1464 1154 c 1,20,21
 1665 1145 1665 1145 1648.5 1106 c 128,-1,22
 1632 1067 1632 1067 1567.5 1034.5 c 128,-1,23
 1503 1002 1503 1002 1416 952 c 128,-1,24
 1329 902 1329 902 1140.5 796 c 128,-1,25
 952 690 952 690 769 569 c 1,26,27
 1116 354 1116 354 1285 250 c 128,-1,28
 1454 146 1454 146 1553 54 c 1,0,1
EndSplineSet
Validated: 33
EndChar

StartChar: l
Encoding: 108 108 76
Width: 1794
Flags: W
LayerCount: 2
Fore
SplineSet
1702 36 m 1,0,1
 1784 -27 1784 -27 1375 4 c 1,2,3
 1016 353 1016 353 856 650 c 1,4,5
 465 131 465 131 308 -11 c 1,6,7
 72 -41 72 -41 95 20 c 1,8,9
 300 212 300 212 742 799 c 1,10,-1
 595 1028 l 1,11,12
 409 1230 409 1230 843 1154 c 1,13,14
 879 1116 879 1116 1099.5 770 c 128,-1,15
 1320 424 1320 424 1702 36 c 1,0,1
EndSplineSet
Validated: 33
EndChar

StartChar: m
Encoding: 109 109 77
Width: 1866
Flags: W
LayerCount: 2
Fore
SplineSet
1854 -2 m 5,0,-1
 1564 30 l 5,1,2
 1554 369 1554 369 1531 699 c 5,3,-1
 1317 396 l 5,4,5
 1070 6 1070 6 934 160 c 132,-1,6
 798 314 798 314 547 607 c 5,7,8
 551 286 551 286 546 -21 c 5,9,-1
 301 -65 l 5,10,-1
 295 145 l 5,11,12
 288 910 288 910 274 1063 c 5,13,-1
 561 1076 l 5,14,-1
 570 934 l 5,15,16
 662 750 662 750 827 497.5 c 132,-1,17
 992 245 992 245 1104 363 c 5,18,19
 1292 537 1292 537 1534 859 c 5,20,-1
 1522 1105 l 5,21,22
 1625 1112 1625 1112 1804 1095 c 5,23,24
 1802 508 1802 508 1811 336.5 c 132,-1,25
 1820 165 1820 165 1854 -2 c 5,0,-1
EndSplineSet
Validated: 33
EndChar

StartChar: n
Encoding: 110 110 78
Width: 1789
Flags: W
LayerCount: 2
Fore
SplineSet
1621 23 m 1,0,-1
 1385 -47 l 1,1,-1
 1364 51 l 1,2,3
 1110 261 1110 261 781 524.5 c 128,-1,4
 452 788 452 788 439 737 c 1,5,6
 458 323 458 323 439 40 c 1,7,-1
 180 -27 l 1,8,9
 210 458 210 458 187 1128 c 1,10,-1
 441 1119 l 1,11,-1
 441 955 l 1,12,13
 1167 359 1167 359 1365 299 c 1,14,15
 1358 571 1358 571 1397 1084 c 1,16,-1
 1643 1102 l 1,17,18
 1583 574 1583 574 1621 23 c 1,0,-1
EndSplineSet
Validated: 33
EndChar

StartChar: o
Encoding: 111 111 79
Width: 1644
Flags: W
LayerCount: 2
Fore
SplineSet
1274 152 m 128,-1,1
 1036 -12 1036 -12 763 -12 c 128,-1,2
 490 -12 490 -12 314 138.5 c 128,-1,3
 138 289 138 289 138 619 c 128,-1,4
 138 949 138 949 350 1053.5 c 128,-1,5
 562 1158 562 1158 839.5 1158 c 128,-1,6
 1117 1158 1117 1158 1314.5 1023 c 128,-1,7
 1512 888 1512 888 1512 602 c 128,-1,0
 1512 316 1512 316 1274 152 c 128,-1,1
1177 799 m 128,-1,9
 1120 979 1120 979 915.5 1031 c 128,-1,10
 711 1083 711 1083 586.5 1001.5 c 128,-1,11
 462 920 462 920 463.5 631 c 128,-1,12
 465 342 465 342 569 199 c 128,-1,13
 673 56 673 56 827.5 71 c 128,-1,14
 982 86 982 86 1069.5 144 c 128,-1,15
 1157 202 1157 202 1195.5 410.5 c 128,-1,8
 1234 619 1234 619 1177 799 c 128,-1,9
EndSplineSet
Validated: 33
EndChar

StartChar: p
Encoding: 112 112 80
Width: 2025
Flags: W
LayerCount: 2
Fore
SplineSet
1545.5 1061.5 m 128,-1,1
 1773 1102 1773 1102 1764.5 1039.5 c 128,-1,2
 1756 977 1756 977 1634 974 c 1,3,-1
 1474 964 l 1,4,5
 1472 423 1472 423 1518 -85 c 1,6,7
 1389 -94 1389 -94 1257 -52 c 1,8,-1
 1207 950 l 1,9,10
 1046 956 1046 956 399 931 c 1,11,12
 451 336 451 336 402 -4 c 1,13,-1
 144 -26 l 1,14,15
 143 373 143 373 140 922 c 1,16,-1
 6 936 l 2,17,18
 -126 946 -126 946 -101 1000 c 128,-1,19
 -76 1054 -76 1054 59 1031 c 1,20,0
 1318 1021 1318 1021 1545.5 1061.5 c 128,-1,1
EndSplineSet
Validated: 33
EndChar

StartChar: q
Encoding: 113 113 81
Width: 1732
Flags: W
LayerCount: 2
Fore
SplineSet
1372.5 137 m 128,-1,1
 1120 -30 1120 -30 829.5 -30 c 128,-1,2
 539 -30 539 -30 352.5 123.5 c 128,-1,3
 166 277 166 277 166 612.5 c 128,-1,4
 166 948 166 948 391 1054 c 128,-1,5
 616 1160 616 1160 910.5 1160 c 128,-1,6
 1205 1160 1205 1160 1415 1023 c 128,-1,7
 1625 886 1625 886 1625 595 c 128,-1,0
 1625 304 1625 304 1372.5 137 c 128,-1,1
1288 795 m 128,-1,9
 1226 989 1226 989 1038 1037 c 128,-1,10
 850 1085 850 1085 662.5 1023 c 128,-1,11
 475 961 475 961 444 693 c 1,12,13
 863 675 863 675 1351 678 c 1,14,-1
 1346 584 l 1,15,16
 797 563 797 563 443 578 c 1,17,18
 441 336 441 336 570 206.5 c 128,-1,19
 699 77 699 77 878 82 c 128,-1,20
 1057 87 1057 87 1161.5 161 c 128,-1,21
 1266 235 1266 235 1308 418 c 128,-1,8
 1350 601 1350 601 1288 795 c 128,-1,9
EndSplineSet
Validated: 41
EndChar

StartChar: r
Encoding: 114 114 82
Width: 1320
Flags: W
LayerCount: 2
Fore
SplineSet
1081 632 m 128,-1,1
 909 460 909 460 521 464 c 1,2,-1
 540 572 l 1,3,4
 952 542 952 542 934.5 787.5 c 128,-1,5
 917 1033 917 1033 726.5 1084 c 128,-1,6
 536 1135 536 1135 526 1063 c 1,7,-1
 512 -70 l 1,8,-1
 526 -323 l 1,9,10
 415 -396 415 -396 196 -331 c 1,11,12
 272 194 272 194 255 927 c 0,13,14
 246 1181 246 1181 344 1232 c 1,15,16
 709 1272 709 1272 865 1234 c 128,-1,17
 1021 1196 1021 1196 1140 1013 c 1,18,0
 1253 804 1253 804 1081 632 c 128,-1,1
EndSplineSet
Validated: 33
EndChar

StartChar: s
Encoding: 115 115 83
Width: 1578
Flags: W
LayerCount: 2
Fore
SplineSet
1479 974 m 1,0,1
 1443 905 1443 905 1399 899.5 c 128,-1,2
 1355 894 1355 894 1212 989 c 1,3,4
 1129 1050 1129 1050 901 1089 c 1,5,6
 588 1094 588 1094 530 920 c 128,-1,7
 472 746 472 746 477 604.5 c 128,-1,8
 482 463 482 463 526 327 c 128,-1,9
 570 191 570 191 698 132 c 128,-1,10
 826 73 826 73 952.5 77.5 c 128,-1,11
 1079 82 1079 82 1210 109 c 1,12,13
 1407 203 1407 203 1395 107.5 c 128,-1,14
 1383 12 1383 12 1137 -17 c 1,15,16
 382 -76 382 -76 252.5 154 c 128,-1,17
 123 384 123 384 168 720.5 c 128,-1,18
 213 1057 213 1057 488 1158 c 128,-1,19
 763 1259 763 1259 1120 1187 c 128,-1,20
 1477 1115 1477 1115 1479 974 c 1,0,1
EndSplineSet
Validated: 33
EndChar

StartChar: t
Encoding: 116 116 84
Width: 1970
Flags: W
LayerCount: 2
Fore
SplineSet
1495 1047 m 1,1,2
 1271 1059 1271 1059 1205.5 1051.5 c 128,-1,3
 1140 1044 1140 1044 1115 890 c 1,4,-1
 1114 -17 l 1,5,6
 1027 -76 1027 -76 831 -39 c 1,7,-1
 851 1039 l 1,8,9
 784 1058 784 1058 454 1046 c 1,10,11
 192 952 192 952 139 1067 c 1,12,-1
 142 1138 l 1,13,-1
 243 1158 l 1,14,-1
 1707 1152 l 1,15,16
 1932 1160 1932 1160 1876.5 1069.5 c 128,-1,0
 1821 979 1821 979 1495 1047 c 1,1,2
EndSplineSet
Validated: 33
EndChar

StartChar: u
Encoding: 117 117 85
Width: 1803
Flags: W
LayerCount: 2
Fore
SplineSet
1450 1151 m 1,0,-1
 1702 1136 l 1,1,2
 1502 1002 1502 1002 1347 879 c 1,3,4
 1112 604 1112 604 1012 441 c 1,5,-1
 1006 -541 l 1,6,-1
 736 -562 l 1,7,-1
 736 466 l 1,8,-1
 573 736 l 1,9,10
 324 1034 324 1034 84 1113 c 1,11,-1
 206 1213 l 1,12,13
 277 1227 277 1227 384 1163 c 1,14,15
 688 873 688 873 899 590 c 1,16,17
 1388 1221 1388 1221 1450 1151 c 1,0,-1
EndSplineSet
Validated: 33
EndChar

StartChar: v
Encoding: 118 118 86
Width: 1578
Flags: W
LayerCount: 2
Fore
SplineSet
1479 974 m 1,0,1
 1443 905 1443 905 1399 899.5 c 128,-1,2
 1355 894 1355 894 1212 989 c 1,3,4
 1129 1050 1129 1050 901 1089 c 1,5,6
 588 1094 588 1094 530 920 c 128,-1,7
 472 746 472 746 477 604.5 c 128,-1,8
 482 463 482 463 526 327 c 128,-1,9
 570 191 570 191 698 132 c 128,-1,10
 826 73 826 73 952.5 77.5 c 128,-1,11
 1079 82 1079 82 1210 109 c 1,12,13
 1407 203 1407 203 1395 107.5 c 128,-1,14
 1383 12 1383 12 1137 -17 c 1,15,16
 382 -76 382 -76 252.5 154 c 128,-1,17
 123 384 123 384 168 720.5 c 128,-1,18
 213 1057 213 1057 488 1158 c 128,-1,19
 763 1259 763 1259 1120 1187 c 128,-1,20
 1477 1115 1477 1115 1479 974 c 1,0,1
EndSplineSet
Validated: 33
EndChar

StartChar: w
Encoding: 119 119 87
Width: 2910
Flags: W
LayerCount: 2
Fore
SplineSet
2460 137 m 128,-1,1
 2238 -8 2238 -8 1981 -8 c 128,-1,2
 1724 -8 1724 -8 1656 76 c 128,-1,3
 1588 160 1588 160 1548 137 c 1,4,5
 1345 91 1345 91 1214 44.5 c 128,-1,6
 1083 -2 1083 -2 843 -11 c 128,-1,7
 603 -20 603 -20 440.5 93 c 128,-1,8
 278 206 278 206 229.5 504 c 128,-1,9
 181 802 181 802 338 948 c 128,-1,10
 495 1094 495 1094 766 1185 c 1,11,12
 938 1204 938 1204 855 1067 c 1,13,14
 490 807 490 807 547.5 536.5 c 128,-1,15
 605 266 605 266 761 156.5 c 128,-1,16
 917 47 917 47 1131 105.5 c 128,-1,17
 1345 164 1345 164 1403 236 c 1,18,-1
 1407 678 l 1,19,-1
 1414 1071 l 1,20,21
 1504 1141 1504 1141 1692 1082 c 1,22,23
 1654 714 1654 714 1739 279 c 1,24,25
 1841 94 1841 94 2060 111.5 c 128,-1,26
 2279 129 2279 129 2347 270.5 c 128,-1,27
 2415 412 2415 412 2437 526.5 c 128,-1,28
 2459 641 2459 641 2422.5 788 c 128,-1,29
 2386 935 2386 935 2178 991 c 128,-1,30
 1970 1047 1970 1047 2079 1150 c 1,31,32
 2288 1143 2288 1143 2477 1089 c 1,33,34
 2772 887 2772 887 2727 584.5 c 128,-1,0
 2682 282 2682 282 2460 137 c 128,-1,1
EndSplineSet
Validated: 33
EndChar

StartChar: x
Encoding: 120 120 88
Width: 1899
Flags: W
LayerCount: 2
Fore
SplineSet
1615 -37 m 128,-1,1
 1529 -41 1529 -41 1423.5 -33.5 c 128,-1,2
 1318 -26 1318 -26 1250 40 c 1,3,-1
 959 503 l 1,4,5
 818 410 818 410 500 166 c 1,6,7
 276 -15 276 -15 156 -3 c 0,8,9
 69 3 69 3 74.5 42.5 c 128,-1,10
 80 82 80 82 396 282 c 1,11,12
 632 410 632 410 875 618 c 1,13,-1
 472 1221 l 1,14,15
 547 1283 547 1283 754 1249 c 1,16,-1
 1066 768 l 1,17,-1
 1580 1209 l 1,18,19
 1696 1237 1696 1237 1749 1209 c 128,-1,20
 1802 1181 1802 1181 1722.5 1110 c 128,-1,21
 1643 1039 1643 1039 1459 926 c 1,22,-1
 1133 673 l 1,23,24
 1473 143 1473 143 1587 55 c 128,-1,0
 1701 -33 1701 -33 1615 -37 c 128,-1,1
EndSplineSet
Validated: 33
EndChar

StartChar: y
Encoding: 121 121 89
Width: 1927
Flags: W
LayerCount: 2
Fore
SplineSet
1590 1167 m 1,0,1
 1983 1258 1983 1258 1690 1019 c 1,2,3
 1215 547 1215 547 1050 355 c 1,4,-1
 1051 -227 l 1,5,-1
 799 -219 l 1,6,-1
 801 337 l 1,7,-1
 129 1122 l 1,8,-1
 157 1171 l 1,9,10
 336 1148 336 1148 429 1092 c 1,11,-1
 810 555 l 1,12,-1
 804 1360 l 1,13,-1
 1027 1279 l 1,14,-1
 1035 543 l 1,15,16
 1477 990 1477 990 1590 1167 c 1,0,1
EndSplineSet
Validated: 33
EndChar

StartChar: z
Encoding: 122 122 90
Width: 2124
Flags: W
LayerCount: 2
Fore
SplineSet
2018.5 1052 m 128,-1,1
 1924 934 1924 934 1751 941 c 1,2,-1
 1652 879 l 1,3,4
 1400 577 1400 577 1002 253 c 1,5,6
 1327 219 1327 219 1646 141 c 1,7,8
 1892 52 1892 52 1856 -38.5 c 128,-1,9
 1820 -129 1820 -129 1714 -103 c 128,-1,10
 1608 -77 1608 -77 1460 20 c 1,11,12
 1167 120 1167 120 671 36 c 1,13,14
 65 -168 65 -168 85 -48.5 c 128,-1,15
 105 71 105 71 258 146.5 c 128,-1,16
 411 222 411 222 591 250 c 1,17,18
 1036 521 1036 521 1427 955 c 1,19,20
 1234 994 1234 994 641 985 c 1,21,22
 362 894 362 894 159 971 c 1,23,24
 196 1106 196 1106 348 1123.5 c 128,-1,25
 500 1141 500 1141 801 1127 c 128,-1,26
 1102 1113 1102 1113 1306.5 1109 c 128,-1,27
 1511 1105 1511 1105 1684 1161 c 128,-1,28
 1857 1217 1857 1217 1985 1193.5 c 128,-1,0
 2113 1170 2113 1170 2018.5 1052 c 128,-1,1
EndSplineSet
Validated: 33
EndChar

StartChar: braceleft
Encoding: 123 123 91
Width: 20
Flags: W
LayerCount: 2
Fore
SplineSet
2171 1369 m 1,0,-1
 2022 1358 l 1,1,-1
 420 1361 l 1,2,3
 390 1385 390 1385 447 1428.5 c 128,-1,4
 504 1472 504 1472 599 1470 c 2,5,-1
 2303 1470 l 1,6,7
 2253 1384 2253 1384 2171 1369 c 1,0,-1
EndSplineSet
Validated: 33
EndChar

StartChar: bar
Encoding: 124 124 92
Width: 695
Flags: W
LayerCount: 2
Fore
SplineSet
481 -423 m 1,0,-1
 481 1499 l 1,1,-1
 569 1499 l 1,2,-1
 569 -423 l 1,3,-1
 481 -423 l 1,0,-1
135 -423 m 1,4,-1
 135 1499 l 1,5,-1
 213 1499 l 1,6,-1
 213 -423 l 1,7,-1
 135 -423 l 1,4,-1
EndSplineSet
Validated: 1
EndChar

StartChar: braceright
Encoding: 125 125 93
Width: 13
Flags: W
LayerCount: 2
Fore
SplineSet
1063 1394 m 1,0,-1
 1008 1388 l 1,1,-1
 388 1388 l 1,2,3
 377 1408 377 1408 398.5 1442 c 128,-1,4
 420 1476 420 1476 457 1476 c 2,5,-1
 1114 1476 l 1,6,7
 1095 1408 1095 1408 1063 1394 c 1,0,-1
EndSplineSet
Validated: 1
EndChar

StartChar: Gamma
Encoding: 915 915 291
Width: 1551
Flags: W
LayerCount: 2
Fore
SplineSet
1482.5 1102 m 128,-1,1
 1482 1037 1482 1037 1383 1013.5 c 128,-1,2
 1284 990 1284 990 1183 1042 c 1,3,4
 871 1092 871 1092 507 1053 c 1,5,6
 465 854 465 854 474 199 c 1,7,8
 490 -29 490 -29 397.5 -34.5 c 128,-1,9
 305 -40 305 -40 249 -15.5 c 128,-1,10
 193 9 193 9 211 163 c 1,11,-1
 213 1031 l 1,12,13
 173 1133 173 1133 230 1179 c 1,14,15
 830 1174 830 1174 1156.5 1170.5 c 128,-1,0
 1483 1167 1483 1167 1482.5 1102 c 128,-1,1
EndSplineSet
Validated: 33
EndChar

StartChar: Theta
Encoding: 920 920 292
Width: 1732
Flags: W
LayerCount: 2
Fore
SplineSet
1372.5 137 m 128,-1,1
 1120 -30 1120 -30 829.5 -30 c 128,-1,2
 539 -30 539 -30 352.5 123.5 c 128,-1,3
 166 277 166 277 166 612.5 c 128,-1,4
 166 948 166 948 391 1054 c 128,-1,5
 616 1160 616 1160 910.5 1160 c 128,-1,6
 1205 1160 1205 1160 1415 1023 c 128,-1,7
 1625 886 1625 886 1625 595 c 128,-1,0
 1625 304 1625 304 1372.5 137 c 128,-1,1
1288 795 m 128,-1,9
 1226 989 1226 989 1038 1037 c 128,-1,10
 850 1085 850 1085 662.5 1023 c 128,-1,11
 475 961 475 961 444 693 c 1,12,13
 863 675 863 675 1351 678 c 1,14,-1
 1346 584 l 1,15,16
 797 563 797 563 443 578 c 1,17,18
 441 336 441 336 570 206.5 c 128,-1,19
 699 77 699 77 878 82 c 128,-1,20
 1057 87 1057 87 1161.5 161 c 128,-1,21
 1266 235 1266 235 1308 418 c 128,-1,8
 1350 601 1350 601 1288 795 c 128,-1,9
EndSplineSet
Validated: 41
EndChar

StartChar: Phi
Encoding: 934 934 293
Width: 2382
Flags: W
LayerCount: 2
Fore
SplineSet
2128.5 547.5 m 128,-1,1
 1924 286 1924 286 1314 104 c 1,2,-1
 1315 -358 l 1,3,-1
 1036 -408 l 1,4,-1
 1032 86 l 1,5,6
 530 202 530 202 295.5 479 c 128,-1,7
 61 756 61 756 303 990.5 c 128,-1,8
 545 1225 545 1225 1040 1315 c 1,9,-1
 1040 1833 l 1,10,-1
 1306 1837 l 1,11,-1
 1318 1306 l 1,12,13
 1754 1246 1754 1246 2043.5 1027.5 c 128,-1,0
 2333 809 2333 809 2128.5 547.5 c 128,-1,1
1305 1123 m 1,15,-1
 1308 295 l 1,16,17
 1721 419 1721 419 1836 604 c 128,-1,18
 1951 789 1951 789 1807.5 929 c 128,-1,14
 1664 1069 1664 1069 1305 1123 c 1,15,-1
1033 1108 m 1,19,20
 750 1104 750 1104 544 943 c 128,-1,21
 338 782 338 782 521 569 c 128,-1,22
 704 356 704 356 1033 320 c 1,23,-1
 1033 1108 l 1,19,20
EndSplineSet
Validated: 33
EndChar

StartChar: alpha
Encoding: 945 945 294
Width: 1798
Flags: W
LayerCount: 2
Fore
SplineSet
1644 -1 m 1,0,1
 1332 -17 1332 -17 1260 16 c 128,-1,2
 1188 49 1188 49 908 407 c 1,3,4
 347 -55 347 -55 113 66 c 1,5,6
 9 96 9 96 138 265 c 2,7,-1
 618 876 l 1,8,-1
 480 1188 l 1,9,10
 635 1273 635 1273 823 1215 c 1,11,12
 1175 493 1175 493 1360.5 281 c 128,-1,13
 1546 69 1546 69 1590 75.5 c 128,-1,14
 1634 82 1634 82 1644 -1 c 1,0,1
419 383 m 2,15,16
 294 204 294 204 413 240 c 1,17,-1
 826 509 l 1,18,-1
 680 770 l 1,19,-1
 419 383 l 2,15,16
EndSplineSet
Validated: 33
EndChar

StartChar: delta
Encoding: 948 948 295
Width: 2058
Flags: W
LayerCount: 2
Fore
SplineSet
1991 63 m 128,-1,1
 2156 -62 2156 -62 567 11 c 1,2,3
 -2 -37 -2 -37 167 86 c 1,4,5
 700 638 700 638 899 986 c 1,6,7
 754 1187 754 1187 872.5 1225.5 c 128,-1,8
 991 1264 991 1264 1158 1237 c 1,9,10
 1344 780 1344 780 1585 484 c 128,-1,0
 1826 188 1826 188 1991 63 c 128,-1,1
1627 109 m 1,11,12
 1205 480 1205 480 1000 807 c 1,13,14
 907 665 907 665 425 126 c 1,15,-1
 922 114 l 1,16,-1
 1627 109 l 1,11,12
EndSplineSet
Validated: 33
EndChar

StartChar: epsilon
Encoding: 949 949 296
Width: 1369
Flags: W
LayerCount: 2
Fore
SplineSet
992 1211 m 1,1,2
 779 1223 779 1223 695.5 1216.5 c 128,-1,3
 612 1210 612 1210 536.5 1088.5 c 128,-1,4
 461 967 461 967 447 779 c 1,5,6
 920 778 920 778 1261 759 c 1,7,8
 1302 697 1302 697 1216 665 c 1,9,10
 853 645 853 645 443 653 c 1,11,12
 435 375 435 375 501.5 268 c 128,-1,13
 568 161 568 161 742 159.5 c 128,-1,14
 916 158 916 158 1096.5 176 c 128,-1,15
 1277 194 1277 194 1207 80 c 1,16,17
 1012 16 1012 16 737 13 c 128,-1,18
 462 10 462 10 333.5 32.5 c 128,-1,19
 205 55 205 55 166.5 265 c 128,-1,20
 128 475 128 475 147.5 715.5 c 128,-1,21
 167 956 167 956 228.5 1130 c 128,-1,22
 290 1304 290 1304 544 1326 c 128,-1,23
 798 1348 798 1348 1055 1312.5 c 128,-1,24
 1312 1277 1312 1277 1223.5 1224.5 c 128,-1,0
 1135 1172 1135 1172 992 1211 c 1,1,2
EndSplineSet
Validated: 33
EndChar

StartChar: sigma
Encoding: 963 963 297
Width: 1970
Flags: W
LayerCount: 2
Fore
SplineSet
1495 1047 m 1,1,2
 1271 1059 1271 1059 1205.5 1051.5 c 128,-1,3
 1140 1044 1140 1044 1115 890 c 1,4,-1
 1114 -17 l 1,5,6
 1027 -76 1027 -76 831 -39 c 1,7,-1
 851 1039 l 1,8,9
 784 1058 784 1058 454 1046 c 1,10,11
 192 952 192 952 139 1067 c 1,12,-1
 142 1138 l 1,13,-1
 243 1158 l 1,14,-1
 1707 1152 l 1,15,16
 1932 1160 1932 1160 1876.5 1069.5 c 128,-1,0
 1821 979 1821 979 1495 1047 c 1,1,2
EndSplineSet
Validated: 33
EndChar

StartChar: tau
Encoding: 964 964 298
Width: 1803
Flags: W
LayerCount: 2
Fore
SplineSet
1450 1151 m 1,0,-1
 1702 1136 l 1,1,2
 1502 1002 1502 1002 1347 879 c 1,3,4
 1112 604 1112 604 1012 441 c 1,5,-1
 1006 -541 l 1,6,-1
 736 -562 l 1,7,-1
 736 466 l 1,8,-1
 573 736 l 1,9,10
 324 1034 324 1034 84 1113 c 1,11,-1
 206 1213 l 1,12,13
 277 1227 277 1227 384 1163 c 1,14,15
 688 873 688 873 899 590 c 1,16,17
 1388 1221 1388 1221 1450 1151 c 1,0,-1
EndSplineSet
Validated: 33
EndChar

StartChar: phi
Encoding: 966 966 299
Width: 1899
Flags: W
LayerCount: 2
Fore
SplineSet
1615 -37 m 128,-1,1
 1529 -41 1529 -41 1423.5 -33.5 c 128,-1,2
 1318 -26 1318 -26 1250 40 c 1,3,-1
 959 503 l 1,4,5
 818 410 818 410 500 166 c 1,6,7
 276 -15 276 -15 156 -3 c 0,8,9
 69 3 69 3 74.5 42.5 c 128,-1,10
 80 82 80 82 396 282 c 1,11,12
 632 410 632 410 875 618 c 1,13,-1
 472 1221 l 1,14,15
 547 1283 547 1283 754 1249 c 1,16,-1
 1066 768 l 1,17,-1
 1580 1209 l 1,18,19
 1696 1237 1696 1237 1749 1209 c 128,-1,20
 1802 1181 1802 1181 1722.5 1110 c 128,-1,21
 1643 1039 1643 1039 1459 926 c 1,22,-1
 1133 673 l 1,23,24
 1473 143 1473 143 1587 55 c 128,-1,0
 1701 -33 1701 -33 1615 -37 c 128,-1,1
EndSplineSet
Validated: 33
EndChar

StartChar: Alphatonos
Encoding: 902 902 487
Width: 1798
Flags: W
LayerCount: 2
Fore
SplineSet
1644 -1 m 1,0,1
 1332 -17 1332 -17 1260 16 c 128,-1,2
 1188 49 1188 49 908 407 c 1,3,4
 347 -55 347 -55 113 66 c 1,5,6
 9 96 9 96 138 265 c 2,7,-1
 618 876 l 1,8,-1
 480 1188 l 1,9,10
 635 1273 635 1273 823 1215 c 1,11,12
 1175 493 1175 493 1360.5 281 c 128,-1,13
 1546 69 1546 69 1590 75.5 c 128,-1,14
 1634 82 1634 82 1644 -1 c 1,0,1
419 383 m 2,15,16
 294 204 294 204 413 240 c 1,17,-1
 826 509 l 1,18,-1
 680 770 l 1,19,-1
 419 383 l 2,15,16
EndSplineSet
Validated: 33
EndChar

StartChar: Epsilontonos
Encoding: 904 904 488
Width: 1369
Flags: W
LayerCount: 2
Fore
SplineSet
992 1211 m 1,1,2
 779 1223 779 1223 695.5 1216.5 c 128,-1,3
 612 1210 612 1210 536.5 1088.5 c 128,-1,4
 461 967 461 967 447 779 c 1,5,6
 920 778 920 778 1261 759 c 1,7,8
 1302 697 1302 697 1216 665 c 1,9,10
 853 645 853 645 443 653 c 1,11,12
 435 375 435 375 501.5 268 c 128,-1,13
 568 161 568 161 742 159.5 c 128,-1,14
 916 158 916 158 1096.5 176 c 128,-1,15
 1277 194 1277 194 1207 80 c 1,16,17
 1012 16 1012 16 737 13 c 128,-1,18
 462 10 462 10 333.5 32.5 c 128,-1,19
 205 55 205 55 166.5 265 c 128,-1,20
 128 475 128 475 147.5 715.5 c 128,-1,21
 167 956 167 956 228.5 1130 c 128,-1,22
 290 1304 290 1304 544 1326 c 128,-1,23
 798 1348 798 1348 1055 1312.5 c 128,-1,24
 1312 1277 1312 1277 1223.5 1224.5 c 128,-1,0
 1135 1172 1135 1172 992 1211 c 1,1,2
EndSplineSet
Validated: 33
EndChar

StartChar: Etatonos
Encoding: 905 905 489
Width: 1607
Flags: W
LayerCount: 2
Fore
SplineSet
1446 -7 m 1,0,-1
 1208 -11 l 1,1,-1
 1179 562 l 1,2,3
 840 571 840 571 441 576 c 1,4,-1
 435 -11 l 1,5,-1
 189 -7 l 1,6,7
 219 598 219 598 189 1203 c 1,8,-1
 440 1204 l 1,9,-1
 447 678 l 1,10,11
 850 681 850 681 1179 656 c 1,12,-1
 1199 1236 l 1,13,-1
 1446 1226 l 1,14,15
 1410 584 1410 584 1446 -7 c 1,0,-1
EndSplineSet
Validated: 33
EndChar

StartChar: Iotatonos
Encoding: 906 906 490
Width: 780
Flags: W
LayerCount: 2
Fore
SplineSet
553 38 m 1,0,1
 540 -11 540 -11 373.5 -4.5 c 128,-1,2
 207 2 207 2 256 155 c 1,3,4
 261 577 261 577 257 1003 c 1,5,6
 229 1176 229 1176 322 1176 c 2,7,-1
 529 1181 l 1,8,9
 565 1149 565 1149 564 858.5 c 128,-1,10
 563 568 563 568 553 38 c 1,0,1
EndSplineSet
Validated: 33
EndChar

StartChar: Omicrontonos
Encoding: 908 908 491
Width: 1644
Flags: W
LayerCount: 2
Fore
SplineSet
1274 152 m 128,-1,1
 1036 -12 1036 -12 763 -12 c 128,-1,2
 490 -12 490 -12 314 138.5 c 128,-1,3
 138 289 138 289 138 619 c 128,-1,4
 138 949 138 949 350 1053.5 c 128,-1,5
 562 1158 562 1158 839.5 1158 c 128,-1,6
 1117 1158 1117 1158 1314.5 1023 c 128,-1,7
 1512 888 1512 888 1512 602 c 128,-1,0
 1512 316 1512 316 1274 152 c 128,-1,1
1177 799 m 128,-1,9
 1120 979 1120 979 915.5 1031 c 128,-1,10
 711 1083 711 1083 586.5 1001.5 c 128,-1,11
 462 920 462 920 463.5 631 c 128,-1,12
 465 342 465 342 569 199 c 128,-1,13
 673 56 673 56 827.5 71 c 128,-1,14
 982 86 982 86 1069.5 144 c 128,-1,15
 1157 202 1157 202 1195.5 410.5 c 128,-1,8
 1234 619 1234 619 1177 799 c 128,-1,9
EndSplineSet
Validated: 33
EndChar

StartChar: Upsilontonos
Encoding: 910 910 492
Width: 1803
Flags: W
LayerCount: 2
Fore
SplineSet
1450 1151 m 1,0,-1
 1702 1136 l 1,1,2
 1502 1002 1502 1002 1347 879 c 1,3,4
 1112 604 1112 604 1012 441 c 1,5,-1
 1006 -541 l 1,6,-1
 736 -562 l 1,7,-1
 736 466 l 1,8,-1
 573 736 l 1,9,10
 324 1034 324 1034 84 1113 c 1,11,-1
 206 1213 l 1,12,13
 277 1227 277 1227 384 1163 c 1,14,15
 688 873 688 873 899 590 c 1,16,17
 1388 1221 1388 1221 1450 1151 c 1,0,-1
EndSplineSet
Validated: 33
EndChar

StartChar: Omegatonos
Encoding: 911 911 493
Width: 2910
Flags: W
LayerCount: 2
Fore
SplineSet
2460 137 m 128,-1,1
 2238 -8 2238 -8 1981 -8 c 128,-1,2
 1724 -8 1724 -8 1656 76 c 128,-1,3
 1588 160 1588 160 1548 137 c 1,4,5
 1345 91 1345 91 1214 44.5 c 128,-1,6
 1083 -2 1083 -2 843 -11 c 128,-1,7
 603 -20 603 -20 440.5 93 c 128,-1,8
 278 206 278 206 229.5 504 c 128,-1,9
 181 802 181 802 338 948 c 128,-1,10
 495 1094 495 1094 766 1185 c 1,11,12
 938 1204 938 1204 855 1067 c 1,13,14
 490 807 490 807 547.5 536.5 c 128,-1,15
 605 266 605 266 761 156.5 c 128,-1,16
 917 47 917 47 1131 105.5 c 128,-1,17
 1345 164 1345 164 1403 236 c 1,18,-1
 1407 678 l 1,19,-1
 1414 1071 l 1,20,21
 1504 1141 1504 1141 1692 1082 c 1,22,23
 1654 714 1654 714 1739 279 c 1,24,25
 1841 94 1841 94 2060 111.5 c 128,-1,26
 2279 129 2279 129 2347 270.5 c 128,-1,27
 2415 412 2415 412 2437 526.5 c 128,-1,28
 2459 641 2459 641 2422.5 788 c 128,-1,29
 2386 935 2386 935 2178 991 c 128,-1,30
 1970 1047 1970 1047 2079 1150 c 1,31,32
 2288 1143 2288 1143 2477 1089 c 1,33,34
 2772 887 2772 887 2727 584.5 c 128,-1,0
 2682 282 2682 282 2460 137 c 128,-1,1
EndSplineSet
Validated: 33
EndChar

StartChar: iotadieresistonos
Encoding: 912 912 494
Width: 780
Flags: W
LayerCount: 2
Fore
SplineSet
553 38 m 1,0,1
 540 -11 540 -11 373.5 -4.5 c 128,-1,2
 207 2 207 2 256 155 c 1,3,4
 261 577 261 577 257 1003 c 1,5,6
 229 1176 229 1176 322 1176 c 2,7,-1
 529 1181 l 1,8,9
 565 1149 565 1149 564 858.5 c 128,-1,10
 563 568 563 568 553 38 c 1,0,1
EndSplineSet
Validated: 33
EndChar

StartChar: Alpha
Encoding: 913 913 495
Width: 1798
Flags: W
LayerCount: 2
Fore
SplineSet
1644 -1 m 1,0,1
 1332 -17 1332 -17 1260 16 c 128,-1,2
 1188 49 1188 49 908 407 c 1,3,4
 347 -55 347 -55 113 66 c 1,5,6
 9 96 9 96 138 265 c 2,7,-1
 618 876 l 1,8,-1
 480 1188 l 1,9,10
 635 1273 635 1273 823 1215 c 1,11,12
 1175 493 1175 493 1360.5 281 c 128,-1,13
 1546 69 1546 69 1590 75.5 c 128,-1,14
 1634 82 1634 82 1644 -1 c 1,0,1
419 383 m 2,15,16
 294 204 294 204 413 240 c 1,17,-1
 826 509 l 1,18,-1
 680 770 l 1,19,-1
 419 383 l 2,15,16
EndSplineSet
Validated: 33
EndChar

StartChar: Beta
Encoding: 914 914 496
Width: 1235
Flags: W
LayerCount: 2
Fore
SplineSet
1387.5 233 m 128,-1,1
 1352 44 1352 44 1246 25.5 c 128,-1,2
 1140 7 1140 7 1058 10 c 2,3,-1
 421 26 l 1,4,5
 390 165 390 165 425 1183 c 1,6,7
 693 1213 693 1213 853 1205.5 c 128,-1,8
 1013 1198 1013 1198 1138.5 1132 c 128,-1,9
 1264 1066 1264 1066 1213 877 c 128,-1,10
 1162 688 1162 688 901 665 c 1,11,12
 1241 657 1241 657 1332 539.5 c 128,-1,0
 1423 422 1423 422 1387.5 233 c 128,-1,1
970 854.5 m 128,-1,14
 1000 943 1000 943 950.5 1007 c 128,-1,15
 901 1071 901 1071 642 1104 c 1,16,17
 670 965 670 965 654 703 c 1,18,13
 940 766 940 766 970 854.5 c 128,-1,14
1106 292 m 128,-1,20
 1136 480 1136 480 1011.5 518 c 128,-1,21
 887 556 887 556 638 557 c 1,22,-1
 636 659 l 1,23,24
 630 315 630 315 661 94 c 1,25,19
 1076 104 1076 104 1106 292 c 128,-1,20
EndSplineSet
Validated: 33
EndChar

StartChar: Delta
Encoding: 916 916 497
Width: 2058
Flags: W
LayerCount: 2
Fore
SplineSet
1991 63 m 128,-1,1
 2156 -62 2156 -62 567 11 c 1,2,3
 -2 -37 -2 -37 167 86 c 1,4,5
 700 638 700 638 899 986 c 1,6,7
 754 1187 754 1187 872.5 1225.5 c 128,-1,8
 991 1264 991 1264 1158 1237 c 1,9,10
 1344 780 1344 780 1585 484 c 128,-1,0
 1826 188 1826 188 1991 63 c 128,-1,1
1627 109 m 1,11,12
 1205 480 1205 480 1000 807 c 1,13,14
 907 665 907 665 425 126 c 1,15,-1
 922 114 l 1,16,-1
 1627 109 l 1,11,12
EndSplineSet
Validated: 2097185
EndChar

StartChar: Epsilon
Encoding: 917 917 498
Width: 1369
Flags: W
LayerCount: 2
Fore
SplineSet
992 1211 m 1,1,2
 779 1223 779 1223 695.5 1216.5 c 128,-1,3
 612 1210 612 1210 536.5 1088.5 c 128,-1,4
 461 967 461 967 447 779 c 1,5,6
 920 778 920 778 1261 759 c 1,7,8
 1302 697 1302 697 1216 665 c 1,9,10
 853 645 853 645 443 653 c 1,11,12
 435 375 435 375 501.5 268 c 128,-1,13
 568 161 568 161 742 159.5 c 128,-1,14
 916 158 916 158 1096.5 176 c 128,-1,15
 1277 194 1277 194 1207 80 c 1,16,17
 1012 16 1012 16 737 13 c 128,-1,18
 462 10 462 10 333.5 32.5 c 128,-1,19
 205 55 205 55 166.5 265 c 128,-1,20
 128 475 128 475 147.5 715.5 c 128,-1,21
 167 956 167 956 228.5 1130 c 128,-1,22
 290 1304 290 1304 544 1326 c 128,-1,23
 798 1348 798 1348 1055 1312.5 c 128,-1,24
 1312 1277 1312 1277 1223.5 1224.5 c 128,-1,0
 1135 1172 1135 1172 992 1211 c 1,1,2
EndSplineSet
Validated: 33
EndChar

StartChar: Zeta
Encoding: 918 918 499
Width: 2124
Flags: W
LayerCount: 2
Fore
SplineSet
2018.5 1052 m 128,-1,1
 1924 934 1924 934 1751 941 c 1,2,-1
 1652 879 l 1,3,4
 1400 577 1400 577 1002 253 c 1,5,6
 1327 219 1327 219 1646 141 c 1,7,8
 1892 52 1892 52 1856 -38.5 c 128,-1,9
 1820 -129 1820 -129 1714 -103 c 128,-1,10
 1608 -77 1608 -77 1460 20 c 1,11,12
 1167 120 1167 120 671 36 c 1,13,14
 65 -168 65 -168 85 -48.5 c 128,-1,15
 105 71 105 71 258 146.5 c 128,-1,16
 411 222 411 222 591 250 c 1,17,18
 1036 521 1036 521 1427 955 c 1,19,20
 1234 994 1234 994 641 985 c 1,21,22
 362 894 362 894 159 971 c 1,23,24
 196 1106 196 1106 348 1123.5 c 128,-1,25
 500 1141 500 1141 801 1127 c 128,-1,26
 1102 1113 1102 1113 1306.5 1109 c 128,-1,27
 1511 1105 1511 1105 1684 1161 c 128,-1,28
 1857 1217 1857 1217 1985 1193.5 c 128,-1,0
 2113 1170 2113 1170 2018.5 1052 c 128,-1,1
EndSplineSet
Validated: 33
EndChar

StartChar: Eta
Encoding: 919 919 500
Width: 1607
Flags: W
LayerCount: 2
Fore
SplineSet
1446 -7 m 1,0,-1
 1208 -11 l 1,1,-1
 1179 562 l 1,2,3
 840 571 840 571 441 576 c 1,4,-1
 435 -11 l 1,5,-1
 189 -7 l 1,6,7
 219 598 219 598 189 1203 c 1,8,-1
 440 1204 l 1,9,-1
 447 678 l 1,10,11
 850 681 850 681 1179 656 c 1,12,-1
 1199 1236 l 1,13,-1
 1446 1226 l 1,14,15
 1410 584 1410 584 1446 -7 c 1,0,-1
EndSplineSet
Validated: 33
EndChar

StartChar: Iota
Encoding: 921 921 501
Width: 780
Flags: W
LayerCount: 2
Fore
SplineSet
553 38 m 1,0,1
 540 -11 540 -11 373.5 -4.5 c 128,-1,2
 207 2 207 2 256 155 c 1,3,4
 261 577 261 577 257 1003 c 1,5,6
 229 1176 229 1176 322 1176 c 2,7,-1
 529 1181 l 1,8,9
 565 1149 565 1149 564 858.5 c 128,-1,10
 563 568 563 568 553 38 c 1,0,1
EndSplineSet
Validated: 33
EndChar

StartChar: Kappa
Encoding: 922 922 502
Width: 1684
Flags: W
LayerCount: 2
Fore
SplineSet
1553 54 m 1,0,1
 1574 -31 1574 -31 1223 11 c 1,2,3
 948 235 948 235 614 469 c 1,4,5
 563 464 563 464 528 432 c 1,6,7
 544 13 544 13 471 13 c 1,8,9
 -83 -42 -83 -42 233 83 c 1,10,-1
 243 967 l 1,11,12
 210 1063 210 1063 284.5 1092 c 128,-1,13
 359 1121 359 1121 444.5 1123.5 c 128,-1,14
 530 1126 530 1126 532 1054 c 2,15,-1
 532 651 l 1,16,17
 504 573 504 573 611 617 c 1,18,19
 1307 1092 1307 1092 1464 1154 c 1,20,21
 1665 1145 1665 1145 1648.5 1106 c 128,-1,22
 1632 1067 1632 1067 1567.5 1034.5 c 128,-1,23
 1503 1002 1503 1002 1416 952 c 128,-1,24
 1329 902 1329 902 1140.5 796 c 128,-1,25
 952 690 952 690 769 569 c 1,26,27
 1116 354 1116 354 1285 250 c 128,-1,28
 1454 146 1454 146 1553 54 c 1,0,1
EndSplineSet
Validated: 33
EndChar

StartChar: Lambda
Encoding: 923 923 503
Width: 1794
Flags: W
LayerCount: 2
Fore
SplineSet
1702 36 m 1,0,1
 1784 -27 1784 -27 1375 4 c 1,2,3
 1016 353 1016 353 856 650 c 1,4,5
 465 131 465 131 308 -11 c 1,6,7
 72 -41 72 -41 95 20 c 1,8,9
 300 212 300 212 742 799 c 1,10,-1
 595 1028 l 1,11,12
 409 1230 409 1230 843 1154 c 1,13,14
 879 1116 879 1116 1099.5 770 c 128,-1,15
 1320 424 1320 424 1702 36 c 1,0,1
EndSplineSet
Validated: 33
EndChar

StartChar: Mu
Encoding: 924 924 504
Width: 1866
Flags: W
LayerCount: 2
Fore
SplineSet
1788 -3 m 5,0,-1
 1498 29 l 5,1,2
 1488 368 1488 368 1465 698 c 5,3,-1
 1251 395 l 5,4,5
 1004 5 1004 5 868 159 c 132,-1,6
 732 313 732 313 481 606 c 5,7,8
 485 285 485 285 480 -22 c 5,9,-1
 235 -66 l 5,10,-1
 229 144 l 5,11,12
 222 909 222 909 208 1062 c 5,13,-1
 495 1075 l 5,14,-1
 504 933 l 5,15,16
 596 749 596 749 761 496.5 c 132,-1,17
 926 244 926 244 1038 362 c 5,18,19
 1226 536 1226 536 1468 858 c 5,20,-1
 1456 1104 l 5,21,22
 1559 1111 1559 1111 1738 1094 c 5,23,24
 1736 507 1736 507 1745 335.5 c 132,-1,25
 1754 164 1754 164 1788 -3 c 5,0,-1
EndSplineSet
EndChar

StartChar: Nu
Encoding: 925 925 505
Width: 1789
Flags: W
LayerCount: 2
Fore
SplineSet
1621 23 m 1,0,-1
 1385 -47 l 1,1,-1
 1364 51 l 1,2,3
 1110 261 1110 261 781 524.5 c 128,-1,4
 452 788 452 788 439 737 c 1,5,6
 458 323 458 323 439 40 c 1,7,-1
 180 -27 l 1,8,9
 210 458 210 458 187 1128 c 1,10,-1
 441 1119 l 1,11,-1
 441 955 l 1,12,13
 1167 359 1167 359 1365 299 c 1,14,15
 1358 571 1358 571 1397 1084 c 1,16,-1
 1643 1102 l 1,17,18
 1583 574 1583 574 1621 23 c 1,0,-1
EndSplineSet
Validated: 33
EndChar

StartChar: Xi
Encoding: 926 926 506
Width: 1704
Flags: W
LayerCount: 2
Fore
SplineSet
1118 -112 m 1,0,1
 957 -40 957 -40 533 -39.5 c 128,-1,2
 109 -39 109 -39 8 -59 c 128,-1,3
 -93 -79 -93 -79 -41 75 c 1,4,-1
 680 507 l 1,5,-1
 286 662 l 1,6,7
 44 790 44 790 297.5 926.5 c 128,-1,8
 551 1063 551 1063 800 1129 c 1,9,-1
 16 1103 l 1,10,11
 -62 1105 -62 1105 -4 1237 c 1,12,-1
 1056 1209 l 1,13,14
 1666 1238 1666 1238 1332 1128 c 128,-1,15
 998 1018 998 1018 564 778 c 1,16,17
 1054 699 1054 699 1082 623 c 128,-1,18
 1110 547 1110 547 364 85 c 1,19,20
 911 156 911 156 1435 58 c 1,21,-1
 1118 -112 l 1,0,1
EndSplineSet
Validated: 33
EndChar

StartChar: Omicron
Encoding: 927 927 507
Width: 1644
Flags: W
LayerCount: 2
Fore
SplineSet
1274 152 m 128,-1,1
 1036 -12 1036 -12 763 -12 c 128,-1,2
 490 -12 490 -12 314 138.5 c 128,-1,3
 138 289 138 289 138 619 c 128,-1,4
 138 949 138 949 350 1053.5 c 128,-1,5
 562 1158 562 1158 839.5 1158 c 128,-1,6
 1117 1158 1117 1158 1314.5 1023 c 128,-1,7
 1512 888 1512 888 1512 602 c 128,-1,0
 1512 316 1512 316 1274 152 c 128,-1,1
1177 799 m 128,-1,9
 1120 979 1120 979 915.5 1031 c 128,-1,10
 711 1083 711 1083 586.5 1001.5 c 128,-1,11
 462 920 462 920 463.5 631 c 128,-1,12
 465 342 465 342 569 199 c 128,-1,13
 673 56 673 56 827.5 71 c 128,-1,14
 982 86 982 86 1069.5 144 c 128,-1,15
 1157 202 1157 202 1195.5 410.5 c 128,-1,8
 1234 619 1234 619 1177 799 c 128,-1,9
EndSplineSet
Validated: 33
EndChar

StartChar: Pi
Encoding: 928 928 508
Width: 2025
Flags: W
LayerCount: 2
Fore
SplineSet
1545.5 1061.5 m 128,-1,1
 1773 1102 1773 1102 1764.5 1039.5 c 128,-1,2
 1756 977 1756 977 1634 974 c 1,3,-1
 1474 964 l 1,4,5
 1472 423 1472 423 1518 -85 c 1,6,7
 1389 -94 1389 -94 1257 -52 c 1,8,-1
 1207 950 l 1,9,10
 1046 956 1046 956 399 931 c 1,11,12
 451 336 451 336 402 -4 c 1,13,-1
 144 -26 l 1,14,15
 143 373 143 373 140 922 c 1,16,-1
 6 936 l 2,17,18
 -126 946 -126 946 -101 1000 c 128,-1,19
 -76 1054 -76 1054 59 1031 c 1,20,0
 1318 1021 1318 1021 1545.5 1061.5 c 128,-1,1
EndSplineSet
Validated: 33
EndChar

StartChar: Rho
Encoding: 929 929 509
Width: 1320
Flags: W
LayerCount: 2
Fore
SplineSet
1081 632 m 128,-1,1
 909 460 909 460 521 464 c 1,2,-1
 540 572 l 1,3,4
 952 542 952 542 934.5 787.5 c 128,-1,5
 917 1033 917 1033 726.5 1084 c 128,-1,6
 536 1135 536 1135 526 1063 c 1,7,-1
 512 -70 l 1,8,-1
 526 -323 l 1,9,10
 415 -396 415 -396 196 -331 c 1,11,12
 272 194 272 194 255 927 c 0,13,14
 246 1181 246 1181 344 1232 c 1,15,16
 709 1272 709 1272 865 1234 c 128,-1,17
 1021 1196 1021 1196 1140 1013 c 1,18,0
 1253 804 1253 804 1081 632 c 128,-1,1
EndSplineSet
Validated: 33
EndChar

StartChar: Sigma
Encoding: 931 931 510
Width: 1578
Flags: W
LayerCount: 2
Fore
SplineSet
1479 974 m 1,0,1
 1443 905 1443 905 1399 899.5 c 128,-1,2
 1355 894 1355 894 1212 989 c 1,3,4
 1129 1050 1129 1050 901 1089 c 1,5,6
 588 1094 588 1094 530 920 c 128,-1,7
 472 746 472 746 477 604.5 c 128,-1,8
 482 463 482 463 526 327 c 128,-1,9
 570 191 570 191 698 132 c 128,-1,10
 826 73 826 73 952.5 77.5 c 128,-1,11
 1079 82 1079 82 1210 109 c 1,12,13
 1407 203 1407 203 1395 107.5 c 128,-1,14
 1383 12 1383 12 1137 -17 c 1,15,16
 382 -76 382 -76 252.5 154 c 128,-1,17
 123 384 123 384 168 720.5 c 128,-1,18
 213 1057 213 1057 488 1158 c 128,-1,19
 763 1259 763 1259 1120 1187 c 128,-1,20
 1477 1115 1477 1115 1479 974 c 1,0,1
EndSplineSet
Validated: 33
EndChar

StartChar: Tau
Encoding: 932 932 511
Width: 1970
Flags: W
LayerCount: 2
Fore
SplineSet
1495 1047 m 1,1,2
 1271 1059 1271 1059 1205.5 1051.5 c 128,-1,3
 1140 1044 1140 1044 1115 890 c 1,4,-1
 1114 -17 l 1,5,6
 1027 -76 1027 -76 831 -39 c 1,7,-1
 851 1039 l 1,8,9
 784 1058 784 1058 454 1046 c 1,10,11
 192 952 192 952 139 1067 c 1,12,-1
 142 1138 l 1,13,-1
 243 1158 l 1,14,-1
 1707 1152 l 1,15,16
 1932 1160 1932 1160 1876.5 1069.5 c 128,-1,0
 1821 979 1821 979 1495 1047 c 1,1,2
EndSplineSet
Validated: 33
EndChar

StartChar: Upsilon
Encoding: 933 933 512
Width: 1803
Flags: W
LayerCount: 2
Fore
SplineSet
1450 1151 m 1,0,-1
 1702 1136 l 1,1,2
 1502 1002 1502 1002 1347 879 c 1,3,4
 1112 604 1112 604 1012 441 c 1,5,-1
 1006 -541 l 1,6,-1
 736 -562 l 1,7,-1
 736 466 l 1,8,-1
 573 736 l 1,9,10
 324 1034 324 1034 84 1113 c 1,11,-1
 206 1213 l 1,12,13
 277 1227 277 1227 384 1163 c 1,14,15
 688 873 688 873 899 590 c 1,16,17
 1388 1221 1388 1221 1450 1151 c 1,0,-1
EndSplineSet
Validated: 33
EndChar

StartChar: Chi
Encoding: 935 935 513
Width: 1899
Flags: W
LayerCount: 2
Fore
SplineSet
1615 -37 m 128,-1,1
 1529 -41 1529 -41 1423.5 -33.5 c 128,-1,2
 1318 -26 1318 -26 1250 40 c 1,3,-1
 959 503 l 1,4,5
 818 410 818 410 500 166 c 1,6,7
 276 -15 276 -15 156 -3 c 0,8,9
 69 3 69 3 74.5 42.5 c 128,-1,10
 80 82 80 82 396 282 c 1,11,12
 632 410 632 410 875 618 c 1,13,-1
 472 1221 l 1,14,15
 547 1283 547 1283 754 1249 c 1,16,-1
 1066 768 l 1,17,-1
 1580 1209 l 1,18,19
 1696 1237 1696 1237 1749 1209 c 128,-1,20
 1802 1181 1802 1181 1722.5 1110 c 128,-1,21
 1643 1039 1643 1039 1459 926 c 1,22,-1
 1133 673 l 1,23,24
 1473 143 1473 143 1587 55 c 128,-1,0
 1701 -33 1701 -33 1615 -37 c 128,-1,1
EndSplineSet
Validated: 33
EndChar

StartChar: Psi
Encoding: 936 936 514
Width: 1927
Flags: W
LayerCount: 2
Fore
SplineSet
1590 1167 m 1,0,1
 1983 1258 1983 1258 1690 1019 c 1,2,3
 1215 547 1215 547 1050 355 c 1,4,-1
 1051 -227 l 1,5,-1
 799 -219 l 1,6,-1
 801 337 l 1,7,-1
 129 1122 l 1,8,-1
 157 1171 l 1,9,10
 336 1148 336 1148 429 1092 c 1,11,-1
 810 555 l 1,12,-1
 804 1360 l 1,13,-1
 1027 1279 l 1,14,-1
 1035 543 l 1,15,16
 1477 990 1477 990 1590 1167 c 1,0,1
EndSplineSet
Validated: 33
EndChar

StartChar: Omega
Encoding: 937 937 515
Width: 2910
Flags: W
LayerCount: 2
Fore
SplineSet
2460 137 m 128,-1,1
 2238 -8 2238 -8 1981 -8 c 128,-1,2
 1724 -8 1724 -8 1656 76 c 128,-1,3
 1588 160 1588 160 1548 137 c 1,4,5
 1345 91 1345 91 1214 44.5 c 128,-1,6
 1083 -2 1083 -2 843 -11 c 128,-1,7
 603 -20 603 -20 440.5 93 c 128,-1,8
 278 206 278 206 229.5 504 c 128,-1,9
 181 802 181 802 338 948 c 128,-1,10
 495 1094 495 1094 766 1185 c 1,11,12
 938 1204 938 1204 855 1067 c 1,13,14
 490 807 490 807 547.5 536.5 c 128,-1,15
 605 266 605 266 761 156.5 c 128,-1,16
 917 47 917 47 1131 105.5 c 128,-1,17
 1345 164 1345 164 1403 236 c 1,18,-1
 1407 678 l 1,19,-1
 1414 1071 l 1,20,21
 1504 1141 1504 1141 1692 1082 c 1,22,23
 1654 714 1654 714 1739 279 c 1,24,25
 1841 94 1841 94 2060 111.5 c 128,-1,26
 2279 129 2279 129 2347 270.5 c 128,-1,27
 2415 412 2415 412 2437 526.5 c 128,-1,28
 2459 641 2459 641 2422.5 788 c 128,-1,29
 2386 935 2386 935 2178 991 c 128,-1,30
 1970 1047 1970 1047 2079 1150 c 1,31,32
 2288 1143 2288 1143 2477 1089 c 1,33,34
 2772 887 2772 887 2727 584.5 c 128,-1,0
 2682 282 2682 282 2460 137 c 128,-1,1
EndSplineSet
Validated: 33
EndChar

StartChar: Iotadieresis
Encoding: 938 938 516
Width: 780
Flags: W
LayerCount: 2
Fore
SplineSet
553 38 m 1,0,1
 540 -11 540 -11 373.5 -4.5 c 128,-1,2
 207 2 207 2 256 155 c 1,3,4
 261 577 261 577 257 1003 c 1,5,6
 229 1176 229 1176 322 1176 c 2,7,-1
 529 1181 l 1,8,9
 565 1149 565 1149 564 858.5 c 128,-1,10
 563 568 563 568 553 38 c 1,0,1
EndSplineSet
Validated: 33
EndChar

StartChar: Upsilondieresis
Encoding: 939 939 517
Width: 1803
Flags: W
LayerCount: 2
Fore
SplineSet
1450 1151 m 1,0,-1
 1702 1136 l 1,1,2
 1502 1002 1502 1002 1347 879 c 1,3,4
 1112 604 1112 604 1012 441 c 1,5,-1
 1006 -541 l 1,6,-1
 736 -562 l 1,7,-1
 736 466 l 1,8,-1
 573 736 l 1,9,10
 324 1034 324 1034 84 1113 c 1,11,-1
 206 1213 l 1,12,13
 277 1227 277 1227 384 1163 c 1,14,15
 688 873 688 873 899 590 c 1,16,17
 1388 1221 1388 1221 1450 1151 c 1,0,-1
EndSplineSet
Validated: 33
EndChar

StartChar: alphatonos
Encoding: 940 940 518
Width: 1798
Flags: W
LayerCount: 2
Fore
SplineSet
1644 -1 m 1,0,1
 1332 -17 1332 -17 1260 16 c 128,-1,2
 1188 49 1188 49 908 407 c 1,3,4
 347 -55 347 -55 113 66 c 1,5,6
 9 96 9 96 138 265 c 2,7,-1
 618 876 l 1,8,-1
 480 1188 l 1,9,10
 635 1273 635 1273 823 1215 c 1,11,12
 1175 493 1175 493 1360.5 281 c 128,-1,13
 1546 69 1546 69 1590 75.5 c 128,-1,14
 1634 82 1634 82 1644 -1 c 1,0,1
419 383 m 2,15,16
 294 204 294 204 413 240 c 1,17,-1
 826 509 l 1,18,-1
 680 770 l 1,19,-1
 419 383 l 2,15,16
EndSplineSet
Validated: 33
EndChar

StartChar: epsilontonos
Encoding: 941 941 519
Width: 1369
Flags: W
LayerCount: 2
Fore
SplineSet
992 1211 m 1,1,2
 779 1223 779 1223 695.5 1216.5 c 128,-1,3
 612 1210 612 1210 536.5 1088.5 c 128,-1,4
 461 967 461 967 447 779 c 1,5,6
 920 778 920 778 1261 759 c 1,7,8
 1302 697 1302 697 1216 665 c 1,9,10
 853 645 853 645 443 653 c 1,11,12
 435 375 435 375 501.5 268 c 128,-1,13
 568 161 568 161 742 159.5 c 128,-1,14
 916 158 916 158 1096.5 176 c 128,-1,15
 1277 194 1277 194 1207 80 c 1,16,17
 1012 16 1012 16 737 13 c 128,-1,18
 462 10 462 10 333.5 32.5 c 128,-1,19
 205 55 205 55 166.5 265 c 128,-1,20
 128 475 128 475 147.5 715.5 c 128,-1,21
 167 956 167 956 228.5 1130 c 128,-1,22
 290 1304 290 1304 544 1326 c 128,-1,23
 798 1348 798 1348 1055 1312.5 c 128,-1,24
 1312 1277 1312 1277 1223.5 1224.5 c 128,-1,0
 1135 1172 1135 1172 992 1211 c 1,1,2
EndSplineSet
Validated: 33
EndChar

StartChar: etatonos
Encoding: 942 942 520
Width: 1607
Flags: W
LayerCount: 2
Fore
SplineSet
1446 -7 m 1,0,-1
 1208 -11 l 1,1,-1
 1179 562 l 1,2,3
 840 571 840 571 441 576 c 1,4,-1
 435 -11 l 1,5,-1
 189 -7 l 1,6,7
 219 598 219 598 189 1203 c 1,8,-1
 440 1204 l 1,9,-1
 447 678 l 1,10,11
 850 681 850 681 1179 656 c 1,12,-1
 1199 1236 l 1,13,-1
 1446 1226 l 1,14,15
 1410 584 1410 584 1446 -7 c 1,0,-1
EndSplineSet
Validated: 33
EndChar

StartChar: iotatonos
Encoding: 943 943 521
Width: 780
Flags: W
LayerCount: 2
Fore
SplineSet
553 38 m 1,0,1
 540 -11 540 -11 373.5 -4.5 c 128,-1,2
 207 2 207 2 256 155 c 1,3,4
 261 577 261 577 257 1003 c 1,5,6
 229 1176 229 1176 322 1176 c 2,7,-1
 529 1181 l 1,8,9
 565 1149 565 1149 564 858.5 c 128,-1,10
 563 568 563 568 553 38 c 1,0,1
EndSplineSet
Validated: 33
EndChar

StartChar: upsilondieresistonos
Encoding: 944 944 522
Width: 1803
Flags: W
LayerCount: 2
Fore
SplineSet
1450 1151 m 1,0,-1
 1702 1136 l 1,1,2
 1502 1002 1502 1002 1347 879 c 1,3,4
 1112 604 1112 604 1012 441 c 1,5,-1
 1006 -541 l 1,6,-1
 736 -562 l 1,7,-1
 736 466 l 1,8,-1
 573 736 l 1,9,10
 324 1034 324 1034 84 1113 c 1,11,-1
 206 1213 l 1,12,13
 277 1227 277 1227 384 1163 c 1,14,15
 688 873 688 873 899 590 c 1,16,17
 1388 1221 1388 1221 1450 1151 c 1,0,-1
EndSplineSet
Validated: 33
EndChar

StartChar: beta
Encoding: 946 946 523
Width: 1235
Flags: W
LayerCount: 2
Fore
SplineSet
1387.5 233 m 128,-1,1
 1352 44 1352 44 1246 25.5 c 128,-1,2
 1140 7 1140 7 1058 10 c 2,3,-1
 421 26 l 1,4,5
 390 165 390 165 425 1183 c 1,6,7
 693 1213 693 1213 853 1205.5 c 128,-1,8
 1013 1198 1013 1198 1138.5 1132 c 128,-1,9
 1264 1066 1264 1066 1213 877 c 128,-1,10
 1162 688 1162 688 901 665 c 1,11,12
 1241 657 1241 657 1332 539.5 c 128,-1,0
 1423 422 1423 422 1387.5 233 c 128,-1,1
970 854.5 m 128,-1,14
 1000 943 1000 943 950.5 1007 c 128,-1,15
 901 1071 901 1071 642 1104 c 1,16,17
 670 965 670 965 654 703 c 1,18,13
 940 766 940 766 970 854.5 c 128,-1,14
1106 292 m 128,-1,20
 1136 480 1136 480 1011.5 518 c 128,-1,21
 887 556 887 556 638 557 c 1,22,-1
 636 659 l 1,23,24
 630 315 630 315 661 94 c 1,25,19
 1076 104 1076 104 1106 292 c 128,-1,20
EndSplineSet
Validated: 33
EndChar

StartChar: gamma
Encoding: 947 947 524
Width: 1551
Flags: W
LayerCount: 2
Fore
SplineSet
1482.5 1102 m 128,-1,1
 1482 1037 1482 1037 1383 1013.5 c 128,-1,2
 1284 990 1284 990 1183 1042 c 1,3,4
 871 1092 871 1092 507 1053 c 1,5,6
 465 854 465 854 474 199 c 1,7,8
 490 -29 490 -29 397.5 -34.5 c 128,-1,9
 305 -40 305 -40 249 -15.5 c 128,-1,10
 193 9 193 9 211 163 c 1,11,-1
 213 1031 l 1,12,13
 173 1133 173 1133 230 1179 c 1,14,15
 830 1174 830 1174 1156.5 1170.5 c 128,-1,0
 1483 1167 1483 1167 1482.5 1102 c 128,-1,1
EndSplineSet
Validated: 33
EndChar

StartChar: zeta
Encoding: 950 950 525
Width: 1704
Flags: W
LayerCount: 2
Fore
SplineSet
1118 -112 m 1,0,1
 957 -40 957 -40 533 -39.5 c 128,-1,2
 109 -39 109 -39 8 -59 c 128,-1,3
 -93 -79 -93 -79 -41 75 c 1,4,-1
 680 507 l 1,5,-1
 286 662 l 1,6,7
 44 790 44 790 297.5 926.5 c 128,-1,8
 551 1063 551 1063 800 1129 c 1,9,-1
 16 1103 l 1,10,11
 -62 1105 -62 1105 -4 1237 c 1,12,-1
 1056 1209 l 1,13,14
 1666 1238 1666 1238 1332 1128 c 128,-1,15
 998 1018 998 1018 564 778 c 1,16,17
 1054 699 1054 699 1082 623 c 128,-1,18
 1110 547 1110 547 364 85 c 1,19,20
 911 156 911 156 1435 58 c 1,21,-1
 1118 -112 l 1,0,1
EndSplineSet
Validated: 33
EndChar

StartChar: eta
Encoding: 951 951 526
Width: 1607
Flags: W
LayerCount: 2
Fore
SplineSet
1446 -7 m 1,0,-1
 1208 -11 l 1,1,-1
 1179 562 l 1,2,3
 840 571 840 571 441 576 c 1,4,-1
 435 -11 l 1,5,-1
 189 -7 l 1,6,7
 219 598 219 598 189 1203 c 1,8,-1
 440 1204 l 1,9,-1
 447 678 l 1,10,11
 850 681 850 681 1179 656 c 1,12,-1
 1199 1236 l 1,13,-1
 1446 1226 l 1,14,15
 1410 584 1410 584 1446 -7 c 1,0,-1
EndSplineSet
Validated: 33
EndChar

StartChar: theta
Encoding: 952 952 527
Width: 1732
Flags: W
LayerCount: 2
Fore
SplineSet
1372.5 137 m 128,-1,1
 1120 -30 1120 -30 829.5 -30 c 128,-1,2
 539 -30 539 -30 352.5 123.5 c 128,-1,3
 166 277 166 277 166 612.5 c 128,-1,4
 166 948 166 948 391 1054 c 128,-1,5
 616 1160 616 1160 910.5 1160 c 128,-1,6
 1205 1160 1205 1160 1415 1023 c 128,-1,7
 1625 886 1625 886 1625 595 c 128,-1,0
 1625 304 1625 304 1372.5 137 c 128,-1,1
1288 795 m 128,-1,9
 1226 989 1226 989 1038 1037 c 128,-1,10
 850 1085 850 1085 662.5 1023 c 128,-1,11
 475 961 475 961 444 693 c 1,12,13
 863 675 863 675 1351 678 c 1,14,-1
 1346 584 l 1,15,16
 797 563 797 563 443 578 c 1,17,18
 441 336 441 336 570 206.5 c 128,-1,19
 699 77 699 77 878 82 c 128,-1,20
 1057 87 1057 87 1161.5 161 c 128,-1,21
 1266 235 1266 235 1308 418 c 128,-1,8
 1350 601 1350 601 1288 795 c 128,-1,9
EndSplineSet
Validated: 41
EndChar

StartChar: iota
Encoding: 953 953 528
Width: 780
Flags: W
LayerCount: 2
Fore
SplineSet
553 38 m 1,0,1
 540 -11 540 -11 373.5 -4.5 c 128,-1,2
 207 2 207 2 256 155 c 1,3,4
 261 577 261 577 257 1003 c 1,5,6
 229 1176 229 1176 322 1176 c 2,7,-1
 529 1181 l 1,8,9
 565 1149 565 1149 564 858.5 c 128,-1,10
 563 568 563 568 553 38 c 1,0,1
EndSplineSet
Validated: 33
EndChar

StartChar: kappa
Encoding: 954 954 529
Width: 1684
Flags: W
LayerCount: 2
Fore
SplineSet
1553 54 m 1,0,1
 1574 -31 1574 -31 1223 11 c 1,2,3
 948 235 948 235 614 469 c 1,4,5
 563 464 563 464 528 432 c 1,6,7
 544 13 544 13 471 13 c 1,8,9
 -83 -42 -83 -42 233 83 c 1,10,-1
 243 967 l 1,11,12
 210 1063 210 1063 284.5 1092 c 128,-1,13
 359 1121 359 1121 444.5 1123.5 c 128,-1,14
 530 1126 530 1126 532 1054 c 2,15,-1
 532 651 l 1,16,17
 504 573 504 573 611 617 c 1,18,19
 1307 1092 1307 1092 1464 1154 c 1,20,21
 1665 1145 1665 1145 1648.5 1106 c 128,-1,22
 1632 1067 1632 1067 1567.5 1034.5 c 128,-1,23
 1503 1002 1503 1002 1416 952 c 128,-1,24
 1329 902 1329 902 1140.5 796 c 128,-1,25
 952 690 952 690 769 569 c 1,26,27
 1116 354 1116 354 1285 250 c 128,-1,28
 1454 146 1454 146 1553 54 c 1,0,1
EndSplineSet
Validated: 33
EndChar

StartChar: lambda
Encoding: 955 955 530
Width: 1794
Flags: W
LayerCount: 2
Fore
SplineSet
1702 36 m 1,0,1
 1784 -27 1784 -27 1375 4 c 1,2,3
 1016 353 1016 353 856 650 c 1,4,5
 465 131 465 131 308 -11 c 1,6,7
 72 -41 72 -41 95 20 c 1,8,9
 300 212 300 212 742 799 c 1,10,-1
 595 1028 l 1,11,12
 409 1230 409 1230 843 1154 c 1,13,14
 879 1116 879 1116 1099.5 770 c 128,-1,15
 1320 424 1320 424 1702 36 c 1,0,1
EndSplineSet
Validated: 33
EndChar

StartChar: mu
Encoding: 956 956 531
Width: 1866
Flags: W
LayerCount: 2
Fore
SplineSet
1788 -3 m 5,0,-1
 1498 29 l 5,1,2
 1488 368 1488 368 1465 698 c 5,3,-1
 1251 395 l 5,4,5
 1004 5 1004 5 868 159 c 132,-1,6
 732 313 732 313 481 606 c 5,7,8
 485 285 485 285 480 -22 c 5,9,-1
 235 -66 l 5,10,-1
 229 144 l 5,11,12
 222 909 222 909 208 1062 c 5,13,-1
 495 1075 l 5,14,-1
 504 933 l 5,15,16
 596 749 596 749 761 496.5 c 132,-1,17
 926 244 926 244 1038 362 c 5,18,19
 1226 536 1226 536 1468 858 c 5,20,-1
 1456 1104 l 5,21,22
 1559 1111 1559 1111 1738 1094 c 5,23,24
 1736 507 1736 507 1745 335.5 c 132,-1,25
 1754 164 1754 164 1788 -3 c 5,0,-1
EndSplineSet
EndChar

StartChar: nu
Encoding: 957 957 532
Width: 1789
Flags: W
LayerCount: 2
Fore
SplineSet
1621 23 m 1,0,-1
 1385 -47 l 1,1,-1
 1364 51 l 1,2,3
 1110 261 1110 261 781 524.5 c 128,-1,4
 452 788 452 788 439 737 c 1,5,6
 458 323 458 323 439 40 c 1,7,-1
 180 -27 l 1,8,9
 210 458 210 458 187 1128 c 1,10,-1
 441 1119 l 1,11,-1
 441 955 l 1,12,13
 1167 359 1167 359 1365 299 c 1,14,15
 1358 571 1358 571 1397 1084 c 1,16,-1
 1643 1102 l 1,17,18
 1583 574 1583 574 1621 23 c 1,0,-1
EndSplineSet
Validated: 33
EndChar

StartChar: xi
Encoding: 958 958 533
Width: 1704
Flags: W
LayerCount: 2
Fore
SplineSet
1118 -112 m 1,0,1
 957 -40 957 -40 533 -39.5 c 128,-1,2
 109 -39 109 -39 8 -59 c 128,-1,3
 -93 -79 -93 -79 -41 75 c 1,4,-1
 680 507 l 1,5,-1
 286 662 l 1,6,7
 44 790 44 790 297.5 926.5 c 128,-1,8
 551 1063 551 1063 800 1129 c 1,9,-1
 16 1103 l 1,10,11
 -62 1105 -62 1105 -4 1237 c 1,12,-1
 1056 1209 l 1,13,14
 1666 1238 1666 1238 1332 1128 c 128,-1,15
 998 1018 998 1018 564 778 c 1,16,17
 1054 699 1054 699 1082 623 c 128,-1,18
 1110 547 1110 547 364 85 c 1,19,20
 911 156 911 156 1435 58 c 1,21,-1
 1118 -112 l 1,0,1
EndSplineSet
Validated: 33
EndChar

StartChar: omicron
Encoding: 959 959 534
Width: 1644
Flags: W
LayerCount: 2
Fore
SplineSet
1274 152 m 128,-1,1
 1036 -12 1036 -12 763 -12 c 128,-1,2
 490 -12 490 -12 314 138.5 c 128,-1,3
 138 289 138 289 138 619 c 128,-1,4
 138 949 138 949 350 1053.5 c 128,-1,5
 562 1158 562 1158 839.5 1158 c 128,-1,6
 1117 1158 1117 1158 1314.5 1023 c 128,-1,7
 1512 888 1512 888 1512 602 c 128,-1,0
 1512 316 1512 316 1274 152 c 128,-1,1
1177 799 m 128,-1,9
 1120 979 1120 979 915.5 1031 c 128,-1,10
 711 1083 711 1083 586.5 1001.5 c 128,-1,11
 462 920 462 920 463.5 631 c 128,-1,12
 465 342 465 342 569 199 c 128,-1,13
 673 56 673 56 827.5 71 c 128,-1,14
 982 86 982 86 1069.5 144 c 128,-1,15
 1157 202 1157 202 1195.5 410.5 c 128,-1,8
 1234 619 1234 619 1177 799 c 128,-1,9
EndSplineSet
Validated: 33
EndChar

StartChar: rho
Encoding: 961 961 535
Width: 1320
Flags: W
LayerCount: 2
Fore
SplineSet
1081 632 m 128,-1,1
 909 460 909 460 521 464 c 1,2,-1
 540 572 l 1,3,4
 952 542 952 542 934.5 787.5 c 128,-1,5
 917 1033 917 1033 726.5 1084 c 128,-1,6
 536 1135 536 1135 526 1063 c 1,7,-1
 512 -70 l 1,8,-1
 526 -323 l 1,9,10
 415 -396 415 -396 196 -331 c 1,11,12
 272 194 272 194 255 927 c 0,13,14
 246 1181 246 1181 344 1232 c 1,15,16
 709 1272 709 1272 865 1234 c 128,-1,17
 1021 1196 1021 1196 1140 1013 c 1,18,0
 1253 804 1253 804 1081 632 c 128,-1,1
EndSplineSet
Validated: 33
EndChar

StartChar: sigma1
Encoding: 962 962 536
Width: 1578
Flags: W
LayerCount: 2
Fore
SplineSet
1479 974 m 1,0,1
 1443 905 1443 905 1399 899.5 c 128,-1,2
 1355 894 1355 894 1212 989 c 1,3,4
 1129 1050 1129 1050 901 1089 c 1,5,6
 588 1094 588 1094 530 920 c 128,-1,7
 472 746 472 746 477 604.5 c 128,-1,8
 482 463 482 463 526 327 c 128,-1,9
 570 191 570 191 698 132 c 128,-1,10
 826 73 826 73 952.5 77.5 c 128,-1,11
 1079 82 1079 82 1210 109 c 1,12,13
 1407 203 1407 203 1395 107.5 c 128,-1,14
 1383 12 1383 12 1137 -17 c 1,15,16
 382 -76 382 -76 252.5 154 c 128,-1,17
 123 384 123 384 168 720.5 c 128,-1,18
 213 1057 213 1057 488 1158 c 128,-1,19
 763 1259 763 1259 1120 1187 c 128,-1,20
 1477 1115 1477 1115 1479 974 c 1,0,1
EndSplineSet
Validated: 33
EndChar

StartChar: upsilon
Encoding: 965 965 537
Width: 2382
Flags: W
LayerCount: 2
Fore
SplineSet
2128.5 547.5 m 128,-1,1
 1924 286 1924 286 1314 104 c 1,2,-1
 1315 -358 l 1,3,-1
 1036 -408 l 1,4,-1
 1032 86 l 1,5,6
 530 202 530 202 295.5 479 c 128,-1,7
 61 756 61 756 303 990.5 c 128,-1,8
 545 1225 545 1225 1040 1315 c 1,9,-1
 1040 1833 l 1,10,-1
 1306 1837 l 1,11,-1
 1318 1306 l 1,12,13
 1754 1246 1754 1246 2043.5 1027.5 c 128,-1,0
 2333 809 2333 809 2128.5 547.5 c 128,-1,1
1305 1123 m 1,15,-1
 1308 295 l 1,16,17
 1721 419 1721 419 1836 604 c 128,-1,18
 1951 789 1951 789 1807.5 929 c 128,-1,14
 1664 1069 1664 1069 1305 1123 c 1,15,-1
1033 1108 m 1,19,20
 750 1104 750 1104 544 943 c 128,-1,21
 338 782 338 782 521 569 c 128,-1,22
 704 356 704 356 1033 320 c 1,23,-1
 1033 1108 l 1,19,20
EndSplineSet
Validated: 33
EndChar

StartChar: chi
Encoding: 967 967 538
Width: 1927
Flags: W
LayerCount: 2
Fore
SplineSet
1590 1167 m 1,0,1
 1983 1258 1983 1258 1690 1019 c 1,2,3
 1215 547 1215 547 1050 355 c 1,4,-1
 1051 -227 l 1,5,-1
 799 -219 l 1,6,-1
 801 337 l 1,7,-1
 129 1122 l 1,8,-1
 157 1171 l 1,9,10
 336 1148 336 1148 429 1092 c 1,11,-1
 810 555 l 1,12,-1
 804 1360 l 1,13,-1
 1027 1279 l 1,14,-1
 1035 543 l 1,15,16
 1477 990 1477 990 1590 1167 c 1,0,1
EndSplineSet
Validated: 33
EndChar

StartChar: psi
Encoding: 968 968 539
Width: 2910
Flags: W
LayerCount: 2
Fore
SplineSet
2460 137 m 128,-1,1
 2238 -8 2238 -8 1981 -8 c 128,-1,2
 1724 -8 1724 -8 1656 76 c 128,-1,3
 1588 160 1588 160 1548 137 c 1,4,5
 1345 91 1345 91 1214 44.5 c 128,-1,6
 1083 -2 1083 -2 843 -11 c 128,-1,7
 603 -20 603 -20 440.5 93 c 128,-1,8
 278 206 278 206 229.5 504 c 128,-1,9
 181 802 181 802 338 948 c 128,-1,10
 495 1094 495 1094 766 1185 c 1,11,12
 938 1204 938 1204 855 1067 c 1,13,14
 490 807 490 807 547.5 536.5 c 128,-1,15
 605 266 605 266 761 156.5 c 128,-1,16
 917 47 917 47 1131 105.5 c 128,-1,17
 1345 164 1345 164 1403 236 c 1,18,-1
 1407 678 l 1,19,-1
 1414 1071 l 1,20,21
 1504 1141 1504 1141 1692 1082 c 1,22,23
 1654 714 1654 714 1739 279 c 1,24,25
 1841 94 1841 94 2060 111.5 c 128,-1,26
 2279 129 2279 129 2347 270.5 c 128,-1,27
 2415 412 2415 412 2437 526.5 c 128,-1,28
 2459 641 2459 641 2422.5 788 c 128,-1,29
 2386 935 2386 935 2178 991 c 128,-1,30
 1970 1047 1970 1047 2079 1150 c 1,31,32
 2288 1143 2288 1143 2477 1089 c 1,33,34
 2772 887 2772 887 2727 584.5 c 128,-1,0
 2682 282 2682 282 2460 137 c 128,-1,1
EndSplineSet
Validated: 33
EndChar

StartChar: omega
Encoding: 969 969 540
Width: 2910
Flags: W
LayerCount: 2
Fore
SplineSet
2460 137 m 128,-1,1
 2238 -8 2238 -8 1981 -8 c 128,-1,2
 1724 -8 1724 -8 1656 76 c 128,-1,3
 1588 160 1588 160 1548 137 c 1,4,5
 1345 91 1345 91 1214 44.5 c 128,-1,6
 1083 -2 1083 -2 843 -11 c 128,-1,7
 603 -20 603 -20 440.5 93 c 128,-1,8
 278 206 278 206 229.5 504 c 128,-1,9
 181 802 181 802 338 948 c 128,-1,10
 495 1094 495 1094 766 1185 c 1,11,12
 938 1204 938 1204 855 1067 c 1,13,14
 490 807 490 807 547.5 536.5 c 128,-1,15
 605 266 605 266 761 156.5 c 128,-1,16
 917 47 917 47 1131 105.5 c 128,-1,17
 1345 164 1345 164 1403 236 c 1,18,-1
 1407 678 l 1,19,-1
 1414 1071 l 1,20,21
 1504 1141 1504 1141 1692 1082 c 1,22,23
 1654 714 1654 714 1739 279 c 1,24,25
 1841 94 1841 94 2060 111.5 c 128,-1,26
 2279 129 2279 129 2347 270.5 c 128,-1,27
 2415 412 2415 412 2437 526.5 c 128,-1,28
 2459 641 2459 641 2422.5 788 c 128,-1,29
 2386 935 2386 935 2178 991 c 128,-1,30
 1970 1047 1970 1047 2079 1150 c 1,31,32
 2288 1143 2288 1143 2477 1089 c 1,33,34
 2772 887 2772 887 2727 584.5 c 128,-1,0
 2682 282 2682 282 2460 137 c 128,-1,1
EndSplineSet
Validated: 33
EndChar

StartChar: iotadieresis
Encoding: 970 970 541
Width: 780
Flags: W
LayerCount: 2
Fore
SplineSet
553 38 m 1,0,1
 540 -11 540 -11 373.5 -4.5 c 128,-1,2
 207 2 207 2 256 155 c 1,3,4
 261 577 261 577 257 1003 c 1,5,6
 229 1176 229 1176 322 1176 c 2,7,-1
 529 1181 l 1,8,9
 565 1149 565 1149 564 858.5 c 128,-1,10
 563 568 563 568 553 38 c 1,0,1
EndSplineSet
Validated: 33
EndChar

StartChar: upsilondieresis
Encoding: 971 971 542
Width: 1803
Flags: W
LayerCount: 2
Fore
SplineSet
1450 1151 m 1,0,-1
 1702 1136 l 1,1,2
 1502 1002 1502 1002 1347 879 c 1,3,4
 1112 604 1112 604 1012 441 c 1,5,-1
 1006 -541 l 1,6,-1
 736 -562 l 1,7,-1
 736 466 l 1,8,-1
 573 736 l 1,9,10
 324 1034 324 1034 84 1113 c 1,11,-1
 206 1213 l 1,12,13
 277 1227 277 1227 384 1163 c 1,14,15
 688 873 688 873 899 590 c 1,16,17
 1388 1221 1388 1221 1450 1151 c 1,0,-1
EndSplineSet
Validated: 33
EndChar

StartChar: omicrontonos
Encoding: 972 972 543
Width: 1644
Flags: W
LayerCount: 2
Fore
SplineSet
1274 152 m 128,-1,1
 1036 -12 1036 -12 763 -12 c 128,-1,2
 490 -12 490 -12 314 138.5 c 128,-1,3
 138 289 138 289 138 619 c 128,-1,4
 138 949 138 949 350 1053.5 c 128,-1,5
 562 1158 562 1158 839.5 1158 c 128,-1,6
 1117 1158 1117 1158 1314.5 1023 c 128,-1,7
 1512 888 1512 888 1512 602 c 128,-1,0
 1512 316 1512 316 1274 152 c 128,-1,1
1177 799 m 128,-1,9
 1120 979 1120 979 915.5 1031 c 128,-1,10
 711 1083 711 1083 586.5 1001.5 c 128,-1,11
 462 920 462 920 463.5 631 c 128,-1,12
 465 342 465 342 569 199 c 128,-1,13
 673 56 673 56 827.5 71 c 128,-1,14
 982 86 982 86 1069.5 144 c 128,-1,15
 1157 202 1157 202 1195.5 410.5 c 128,-1,8
 1234 619 1234 619 1177 799 c 128,-1,9
EndSplineSet
Validated: 33
EndChar

StartChar: upsilontonos
Encoding: 973 973 544
Width: 1803
Flags: W
LayerCount: 2
Fore
SplineSet
1450 1151 m 1,0,-1
 1702 1136 l 1,1,2
 1502 1002 1502 1002 1347 879 c 1,3,4
 1112 604 1112 604 1012 441 c 1,5,-1
 1006 -541 l 1,6,-1
 736 -562 l 1,7,-1
 736 466 l 1,8,-1
 573 736 l 1,9,10
 324 1034 324 1034 84 1113 c 1,11,-1
 206 1213 l 1,12,13
 277 1227 277 1227 384 1163 c 1,14,15
 688 873 688 873 899 590 c 1,16,17
 1388 1221 1388 1221 1450 1151 c 1,0,-1
EndSplineSet
Validated: 33
EndChar

StartChar: omegatonos
Encoding: 974 974 545
Width: 2910
Flags: W
LayerCount: 2
Fore
SplineSet
2460 137 m 128,-1,1
 2238 -8 2238 -8 1981 -8 c 128,-1,2
 1724 -8 1724 -8 1656 76 c 128,-1,3
 1588 160 1588 160 1548 137 c 1,4,5
 1345 91 1345 91 1214 44.5 c 128,-1,6
 1083 -2 1083 -2 843 -11 c 128,-1,7
 603 -20 603 -20 440.5 93 c 128,-1,8
 278 206 278 206 229.5 504 c 128,-1,9
 181 802 181 802 338 948 c 128,-1,10
 495 1094 495 1094 766 1185 c 1,11,12
 938 1204 938 1204 855 1067 c 1,13,14
 490 807 490 807 547.5 536.5 c 128,-1,15
 605 266 605 266 761 156.5 c 128,-1,16
 917 47 917 47 1131 105.5 c 128,-1,17
 1345 164 1345 164 1403 236 c 1,18,-1
 1407 678 l 1,19,-1
 1414 1071 l 1,20,21
 1504 1141 1504 1141 1692 1082 c 1,22,23
 1654 714 1654 714 1739 279 c 1,24,25
 1841 94 1841 94 2060 111.5 c 128,-1,26
 2279 129 2279 129 2347 270.5 c 128,-1,27
 2415 412 2415 412 2437 526.5 c 128,-1,28
 2459 641 2459 641 2422.5 788 c 128,-1,29
 2386 935 2386 935 2178 991 c 128,-1,30
 1970 1047 1970 1047 2079 1150 c 1,31,32
 2288 1143 2288 1143 2477 1089 c 1,33,34
 2772 887 2772 887 2727 584.5 c 128,-1,0
 2682 282 2682 282 2460 137 c 128,-1,1
EndSplineSet
Validated: 33
EndChar

StartChar: pi
Encoding: 960 960 642
Width: 2025
Flags: W
LayerCount: 2
Fore
SplineSet
1545.5 1061.5 m 128,-1,1
 1773 1102 1773 1102 1764.5 1039.5 c 128,-1,2
 1756 977 1756 977 1634 974 c 1,3,-1
 1474 964 l 1,4,5
 1472 423 1472 423 1518 -85 c 1,6,7
 1389 -94 1389 -94 1257 -52 c 1,8,-1
 1207 950 l 1,9,10
 1046 956 1046 956 399 931 c 1,11,12
 451 336 451 336 402 -4 c 1,13,-1
 144 -26 l 1,14,15
 143 373 143 373 140 922 c 1,16,-1
 6 936 l 2,17,18
 -126 946 -126 946 -101 1000 c 128,-1,19
 -76 1054 -76 1054 59 1031 c 1,20,0
 1318 1021 1318 1021 1545.5 1061.5 c 128,-1,1
EndSplineSet
Validated: 33
EndChar

StartChar: uni1F48
Encoding: 8008 8008 643
Width: 1644
Flags: W
LayerCount: 2
Fore
SplineSet
1274 152 m 128,-1,1
 1036 -12 1036 -12 763 -12 c 128,-1,2
 490 -12 490 -12 314 138.5 c 128,-1,3
 138 289 138 289 138 619 c 128,-1,4
 138 949 138 949 350 1053.5 c 128,-1,5
 562 1158 562 1158 839.5 1158 c 128,-1,6
 1117 1158 1117 1158 1314.5 1023 c 128,-1,7
 1512 888 1512 888 1512 602 c 128,-1,0
 1512 316 1512 316 1274 152 c 128,-1,1
1177 799 m 128,-1,9
 1120 979 1120 979 915.5 1031 c 128,-1,10
 711 1083 711 1083 586.5 1001.5 c 128,-1,11
 462 920 462 920 463.5 631 c 128,-1,12
 465 342 465 342 569 199 c 128,-1,13
 673 56 673 56 827.5 71 c 128,-1,14
 982 86 982 86 1069.5 144 c 128,-1,15
 1157 202 1157 202 1195.5 410.5 c 128,-1,8
 1234 619 1234 619 1177 799 c 128,-1,9
EndSplineSet
Validated: 33
EndChar

StartChar: uni1F49
Encoding: 8009 8009 644
Width: 1644
Flags: W
LayerCount: 2
Fore
SplineSet
1274 152 m 128,-1,1
 1036 -12 1036 -12 763 -12 c 128,-1,2
 490 -12 490 -12 314 138.5 c 128,-1,3
 138 289 138 289 138 619 c 128,-1,4
 138 949 138 949 350 1053.5 c 128,-1,5
 562 1158 562 1158 839.5 1158 c 128,-1,6
 1117 1158 1117 1158 1314.5 1023 c 128,-1,7
 1512 888 1512 888 1512 602 c 128,-1,0
 1512 316 1512 316 1274 152 c 128,-1,1
1177 799 m 128,-1,9
 1120 979 1120 979 915.5 1031 c 128,-1,10
 711 1083 711 1083 586.5 1001.5 c 128,-1,11
 462 920 462 920 463.5 631 c 128,-1,12
 465 342 465 342 569 199 c 128,-1,13
 673 56 673 56 827.5 71 c 128,-1,14
 982 86 982 86 1069.5 144 c 128,-1,15
 1157 202 1157 202 1195.5 410.5 c 128,-1,8
 1234 619 1234 619 1177 799 c 128,-1,9
EndSplineSet
Validated: 33
EndChar

StartChar: uni1F4A
Encoding: 8010 8010 645
Width: 1644
Flags: W
LayerCount: 2
Fore
SplineSet
1274 152 m 128,-1,1
 1036 -12 1036 -12 763 -12 c 128,-1,2
 490 -12 490 -12 314 138.5 c 128,-1,3
 138 289 138 289 138 619 c 128,-1,4
 138 949 138 949 350 1053.5 c 128,-1,5
 562 1158 562 1158 839.5 1158 c 128,-1,6
 1117 1158 1117 1158 1314.5 1023 c 128,-1,7
 1512 888 1512 888 1512 602 c 128,-1,0
 1512 316 1512 316 1274 152 c 128,-1,1
1177 799 m 128,-1,9
 1120 979 1120 979 915.5 1031 c 128,-1,10
 711 1083 711 1083 586.5 1001.5 c 128,-1,11
 462 920 462 920 463.5 631 c 128,-1,12
 465 342 465 342 569 199 c 128,-1,13
 673 56 673 56 827.5 71 c 128,-1,14
 982 86 982 86 1069.5 144 c 128,-1,15
 1157 202 1157 202 1195.5 410.5 c 128,-1,8
 1234 619 1234 619 1177 799 c 128,-1,9
EndSplineSet
Validated: 33
EndChar

StartChar: uni1F4B
Encoding: 8011 8011 646
Width: 1644
Flags: W
LayerCount: 2
Fore
SplineSet
1274 152 m 128,-1,1
 1036 -12 1036 -12 763 -12 c 128,-1,2
 490 -12 490 -12 314 138.5 c 128,-1,3
 138 289 138 289 138 619 c 128,-1,4
 138 949 138 949 350 1053.5 c 128,-1,5
 562 1158 562 1158 839.5 1158 c 128,-1,6
 1117 1158 1117 1158 1314.5 1023 c 128,-1,7
 1512 888 1512 888 1512 602 c 128,-1,0
 1512 316 1512 316 1274 152 c 128,-1,1
1177 799 m 128,-1,9
 1120 979 1120 979 915.5 1031 c 128,-1,10
 711 1083 711 1083 586.5 1001.5 c 128,-1,11
 462 920 462 920 463.5 631 c 128,-1,12
 465 342 465 342 569 199 c 128,-1,13
 673 56 673 56 827.5 71 c 128,-1,14
 982 86 982 86 1069.5 144 c 128,-1,15
 1157 202 1157 202 1195.5 410.5 c 128,-1,8
 1234 619 1234 619 1177 799 c 128,-1,9
EndSplineSet
Validated: 33
EndChar

StartChar: uni1F4C
Encoding: 8012 8012 647
Width: 1644
Flags: W
LayerCount: 2
Fore
SplineSet
1274 152 m 128,-1,1
 1036 -12 1036 -12 763 -12 c 128,-1,2
 490 -12 490 -12 314 138.5 c 128,-1,3
 138 289 138 289 138 619 c 128,-1,4
 138 949 138 949 350 1053.5 c 128,-1,5
 562 1158 562 1158 839.5 1158 c 128,-1,6
 1117 1158 1117 1158 1314.5 1023 c 128,-1,7
 1512 888 1512 888 1512 602 c 128,-1,0
 1512 316 1512 316 1274 152 c 128,-1,1
1177 799 m 128,-1,9
 1120 979 1120 979 915.5 1031 c 128,-1,10
 711 1083 711 1083 586.5 1001.5 c 128,-1,11
 462 920 462 920 463.5 631 c 128,-1,12
 465 342 465 342 569 199 c 128,-1,13
 673 56 673 56 827.5 71 c 128,-1,14
 982 86 982 86 1069.5 144 c 128,-1,15
 1157 202 1157 202 1195.5 410.5 c 128,-1,8
 1234 619 1234 619 1177 799 c 128,-1,9
EndSplineSet
Validated: 33
EndChar

StartChar: uni1F4D
Encoding: 8013 8013 648
Width: 1644
Flags: W
LayerCount: 2
Fore
SplineSet
1274 152 m 128,-1,1
 1036 -12 1036 -12 763 -12 c 128,-1,2
 490 -12 490 -12 314 138.5 c 128,-1,3
 138 289 138 289 138 619 c 128,-1,4
 138 949 138 949 350 1053.5 c 128,-1,5
 562 1158 562 1158 839.5 1158 c 128,-1,6
 1117 1158 1117 1158 1314.5 1023 c 128,-1,7
 1512 888 1512 888 1512 602 c 128,-1,0
 1512 316 1512 316 1274 152 c 128,-1,1
1177 799 m 128,-1,9
 1120 979 1120 979 915.5 1031 c 128,-1,10
 711 1083 711 1083 586.5 1001.5 c 128,-1,11
 462 920 462 920 463.5 631 c 128,-1,12
 465 342 465 342 569 199 c 128,-1,13
 673 56 673 56 827.5 71 c 128,-1,14
 982 86 982 86 1069.5 144 c 128,-1,15
 1157 202 1157 202 1195.5 410.5 c 128,-1,8
 1234 619 1234 619 1177 799 c 128,-1,9
EndSplineSet
Validated: 33
EndChar

StartChar: uni1F40
Encoding: 8000 8000 649
Width: 1644
Flags: W
LayerCount: 2
Fore
SplineSet
1274 152 m 128,-1,1
 1036 -12 1036 -12 763 -12 c 128,-1,2
 490 -12 490 -12 314 138.5 c 128,-1,3
 138 289 138 289 138 619 c 128,-1,4
 138 949 138 949 350 1053.5 c 128,-1,5
 562 1158 562 1158 839.5 1158 c 128,-1,6
 1117 1158 1117 1158 1314.5 1023 c 128,-1,7
 1512 888 1512 888 1512 602 c 128,-1,0
 1512 316 1512 316 1274 152 c 128,-1,1
1177 799 m 128,-1,9
 1120 979 1120 979 915.5 1031 c 128,-1,10
 711 1083 711 1083 586.5 1001.5 c 128,-1,11
 462 920 462 920 463.5 631 c 128,-1,12
 465 342 465 342 569 199 c 128,-1,13
 673 56 673 56 827.5 71 c 128,-1,14
 982 86 982 86 1069.5 144 c 128,-1,15
 1157 202 1157 202 1195.5 410.5 c 128,-1,8
 1234 619 1234 619 1177 799 c 128,-1,9
EndSplineSet
Validated: 33
EndChar

StartChar: uni1F41
Encoding: 8001 8001 650
Width: 1644
Flags: W
LayerCount: 2
Fore
SplineSet
1274 152 m 128,-1,1
 1036 -12 1036 -12 763 -12 c 128,-1,2
 490 -12 490 -12 314 138.5 c 128,-1,3
 138 289 138 289 138 619 c 128,-1,4
 138 949 138 949 350 1053.5 c 128,-1,5
 562 1158 562 1158 839.5 1158 c 128,-1,6
 1117 1158 1117 1158 1314.5 1023 c 128,-1,7
 1512 888 1512 888 1512 602 c 128,-1,0
 1512 316 1512 316 1274 152 c 128,-1,1
1177 799 m 128,-1,9
 1120 979 1120 979 915.5 1031 c 128,-1,10
 711 1083 711 1083 586.5 1001.5 c 128,-1,11
 462 920 462 920 463.5 631 c 128,-1,12
 465 342 465 342 569 199 c 128,-1,13
 673 56 673 56 827.5 71 c 128,-1,14
 982 86 982 86 1069.5 144 c 128,-1,15
 1157 202 1157 202 1195.5 410.5 c 128,-1,8
 1234 619 1234 619 1177 799 c 128,-1,9
EndSplineSet
Validated: 33
EndChar

StartChar: uni1F42
Encoding: 8002 8002 651
Width: 1644
Flags: W
LayerCount: 2
Fore
SplineSet
1274 152 m 128,-1,1
 1036 -12 1036 -12 763 -12 c 128,-1,2
 490 -12 490 -12 314 138.5 c 128,-1,3
 138 289 138 289 138 619 c 128,-1,4
 138 949 138 949 350 1053.5 c 128,-1,5
 562 1158 562 1158 839.5 1158 c 128,-1,6
 1117 1158 1117 1158 1314.5 1023 c 128,-1,7
 1512 888 1512 888 1512 602 c 128,-1,0
 1512 316 1512 316 1274 152 c 128,-1,1
1177 799 m 128,-1,9
 1120 979 1120 979 915.5 1031 c 128,-1,10
 711 1083 711 1083 586.5 1001.5 c 128,-1,11
 462 920 462 920 463.5 631 c 128,-1,12
 465 342 465 342 569 199 c 128,-1,13
 673 56 673 56 827.5 71 c 128,-1,14
 982 86 982 86 1069.5 144 c 128,-1,15
 1157 202 1157 202 1195.5 410.5 c 128,-1,8
 1234 619 1234 619 1177 799 c 128,-1,9
EndSplineSet
Validated: 33
EndChar

StartChar: uni1F43
Encoding: 8003 8003 652
Width: 1644
Flags: W
LayerCount: 2
Fore
SplineSet
1274 152 m 128,-1,1
 1036 -12 1036 -12 763 -12 c 128,-1,2
 490 -12 490 -12 314 138.5 c 128,-1,3
 138 289 138 289 138 619 c 128,-1,4
 138 949 138 949 350 1053.5 c 128,-1,5
 562 1158 562 1158 839.5 1158 c 128,-1,6
 1117 1158 1117 1158 1314.5 1023 c 128,-1,7
 1512 888 1512 888 1512 602 c 128,-1,0
 1512 316 1512 316 1274 152 c 128,-1,1
1177 799 m 128,-1,9
 1120 979 1120 979 915.5 1031 c 128,-1,10
 711 1083 711 1083 586.5 1001.5 c 128,-1,11
 462 920 462 920 463.5 631 c 128,-1,12
 465 342 465 342 569 199 c 128,-1,13
 673 56 673 56 827.5 71 c 128,-1,14
 982 86 982 86 1069.5 144 c 128,-1,15
 1157 202 1157 202 1195.5 410.5 c 128,-1,8
 1234 619 1234 619 1177 799 c 128,-1,9
EndSplineSet
Validated: 33
EndChar

StartChar: uni1F44
Encoding: 8004 8004 653
Width: 1644
Flags: W
LayerCount: 2
Fore
SplineSet
1274 152 m 128,-1,1
 1036 -12 1036 -12 763 -12 c 128,-1,2
 490 -12 490 -12 314 138.5 c 128,-1,3
 138 289 138 289 138 619 c 128,-1,4
 138 949 138 949 350 1053.5 c 128,-1,5
 562 1158 562 1158 839.5 1158 c 128,-1,6
 1117 1158 1117 1158 1314.5 1023 c 128,-1,7
 1512 888 1512 888 1512 602 c 128,-1,0
 1512 316 1512 316 1274 152 c 128,-1,1
1177 799 m 128,-1,9
 1120 979 1120 979 915.5 1031 c 128,-1,10
 711 1083 711 1083 586.5 1001.5 c 128,-1,11
 462 920 462 920 463.5 631 c 128,-1,12
 465 342 465 342 569 199 c 128,-1,13
 673 56 673 56 827.5 71 c 128,-1,14
 982 86 982 86 1069.5 144 c 128,-1,15
 1157 202 1157 202 1195.5 410.5 c 128,-1,8
 1234 619 1234 619 1177 799 c 128,-1,9
EndSplineSet
Validated: 33
EndChar

StartChar: uni1F45
Encoding: 8005 8005 654
Width: 1644
Flags: W
LayerCount: 2
Fore
SplineSet
1274 152 m 128,-1,1
 1036 -12 1036 -12 763 -12 c 128,-1,2
 490 -12 490 -12 314 138.5 c 128,-1,3
 138 289 138 289 138 619 c 128,-1,4
 138 949 138 949 350 1053.5 c 128,-1,5
 562 1158 562 1158 839.5 1158 c 128,-1,6
 1117 1158 1117 1158 1314.5 1023 c 128,-1,7
 1512 888 1512 888 1512 602 c 128,-1,0
 1512 316 1512 316 1274 152 c 128,-1,1
1177 799 m 128,-1,9
 1120 979 1120 979 915.5 1031 c 128,-1,10
 711 1083 711 1083 586.5 1001.5 c 128,-1,11
 462 920 462 920 463.5 631 c 128,-1,12
 465 342 465 342 569 199 c 128,-1,13
 673 56 673 56 827.5 71 c 128,-1,14
 982 86 982 86 1069.5 144 c 128,-1,15
 1157 202 1157 202 1195.5 410.5 c 128,-1,8
 1234 619 1234 619 1177 799 c 128,-1,9
EndSplineSet
Validated: 33
EndChar

StartChar: uni1F00
Encoding: 7936 7936 655
Width: 1798
Flags: W
LayerCount: 2
Fore
SplineSet
1644 -1 m 1,0,1
 1332 -17 1332 -17 1260 16 c 128,-1,2
 1188 49 1188 49 908 407 c 1,3,4
 347 -55 347 -55 113 66 c 1,5,6
 9 96 9 96 138 265 c 2,7,-1
 618 876 l 1,8,-1
 480 1188 l 1,9,10
 635 1273 635 1273 823 1215 c 1,11,12
 1175 493 1175 493 1360.5 281 c 128,-1,13
 1546 69 1546 69 1590 75.5 c 128,-1,14
 1634 82 1634 82 1644 -1 c 1,0,1
419 383 m 2,15,16
 294 204 294 204 413 240 c 1,17,-1
 826 509 l 1,18,-1
 680 770 l 1,19,-1
 419 383 l 2,15,16
EndSplineSet
Validated: 33
EndChar

StartChar: uni1F01
Encoding: 7937 7937 656
Width: 1798
Flags: W
LayerCount: 2
Fore
SplineSet
1644 -1 m 1,0,1
 1332 -17 1332 -17 1260 16 c 128,-1,2
 1188 49 1188 49 908 407 c 1,3,4
 347 -55 347 -55 113 66 c 1,5,6
 9 96 9 96 138 265 c 2,7,-1
 618 876 l 1,8,-1
 480 1188 l 1,9,10
 635 1273 635 1273 823 1215 c 1,11,12
 1175 493 1175 493 1360.5 281 c 128,-1,13
 1546 69 1546 69 1590 75.5 c 128,-1,14
 1634 82 1634 82 1644 -1 c 1,0,1
419 383 m 2,15,16
 294 204 294 204 413 240 c 1,17,-1
 826 509 l 1,18,-1
 680 770 l 1,19,-1
 419 383 l 2,15,16
EndSplineSet
Validated: 33
EndChar

StartChar: uni1F02
Encoding: 7938 7938 657
Width: 1798
Flags: W
LayerCount: 2
Fore
SplineSet
1644 -1 m 1,0,1
 1332 -17 1332 -17 1260 16 c 128,-1,2
 1188 49 1188 49 908 407 c 1,3,4
 347 -55 347 -55 113 66 c 1,5,6
 9 96 9 96 138 265 c 2,7,-1
 618 876 l 1,8,-1
 480 1188 l 1,9,10
 635 1273 635 1273 823 1215 c 1,11,12
 1175 493 1175 493 1360.5 281 c 128,-1,13
 1546 69 1546 69 1590 75.5 c 128,-1,14
 1634 82 1634 82 1644 -1 c 1,0,1
419 383 m 2,15,16
 294 204 294 204 413 240 c 1,17,-1
 826 509 l 1,18,-1
 680 770 l 1,19,-1
 419 383 l 2,15,16
EndSplineSet
Validated: 33
EndChar

StartChar: uni1F03
Encoding: 7939 7939 658
Width: 1798
Flags: W
LayerCount: 2
Fore
SplineSet
1644 -1 m 1,0,1
 1332 -17 1332 -17 1260 16 c 128,-1,2
 1188 49 1188 49 908 407 c 1,3,4
 347 -55 347 -55 113 66 c 1,5,6
 9 96 9 96 138 265 c 2,7,-1
 618 876 l 1,8,-1
 480 1188 l 1,9,10
 635 1273 635 1273 823 1215 c 1,11,12
 1175 493 1175 493 1360.5 281 c 128,-1,13
 1546 69 1546 69 1590 75.5 c 128,-1,14
 1634 82 1634 82 1644 -1 c 1,0,1
419 383 m 2,15,16
 294 204 294 204 413 240 c 1,17,-1
 826 509 l 1,18,-1
 680 770 l 1,19,-1
 419 383 l 2,15,16
EndSplineSet
Validated: 33
EndChar

StartChar: uni1F04
Encoding: 7940 7940 659
Width: 1798
Flags: W
LayerCount: 2
Fore
SplineSet
1644 -1 m 1,0,1
 1332 -17 1332 -17 1260 16 c 128,-1,2
 1188 49 1188 49 908 407 c 1,3,4
 347 -55 347 -55 113 66 c 1,5,6
 9 96 9 96 138 265 c 2,7,-1
 618 876 l 1,8,-1
 480 1188 l 1,9,10
 635 1273 635 1273 823 1215 c 1,11,12
 1175 493 1175 493 1360.5 281 c 128,-1,13
 1546 69 1546 69 1590 75.5 c 128,-1,14
 1634 82 1634 82 1644 -1 c 1,0,1
419 383 m 2,15,16
 294 204 294 204 413 240 c 1,17,-1
 826 509 l 1,18,-1
 680 770 l 1,19,-1
 419 383 l 2,15,16
EndSplineSet
Validated: 33
EndChar

StartChar: uni1F05
Encoding: 7941 7941 660
Width: 1798
Flags: W
LayerCount: 2
Fore
SplineSet
1644 -1 m 1,0,1
 1332 -17 1332 -17 1260 16 c 128,-1,2
 1188 49 1188 49 908 407 c 1,3,4
 347 -55 347 -55 113 66 c 1,5,6
 9 96 9 96 138 265 c 2,7,-1
 618 876 l 1,8,-1
 480 1188 l 1,9,10
 635 1273 635 1273 823 1215 c 1,11,12
 1175 493 1175 493 1360.5 281 c 128,-1,13
 1546 69 1546 69 1590 75.5 c 128,-1,14
 1634 82 1634 82 1644 -1 c 1,0,1
419 383 m 2,15,16
 294 204 294 204 413 240 c 1,17,-1
 826 509 l 1,18,-1
 680 770 l 1,19,-1
 419 383 l 2,15,16
EndSplineSet
Validated: 33
EndChar

StartChar: uni1F06
Encoding: 7942 7942 661
Width: 1798
Flags: W
LayerCount: 2
Fore
SplineSet
1644 -1 m 1,0,1
 1332 -17 1332 -17 1260 16 c 128,-1,2
 1188 49 1188 49 908 407 c 1,3,4
 347 -55 347 -55 113 66 c 1,5,6
 9 96 9 96 138 265 c 2,7,-1
 618 876 l 1,8,-1
 480 1188 l 1,9,10
 635 1273 635 1273 823 1215 c 1,11,12
 1175 493 1175 493 1360.5 281 c 128,-1,13
 1546 69 1546 69 1590 75.5 c 128,-1,14
 1634 82 1634 82 1644 -1 c 1,0,1
419 383 m 2,15,16
 294 204 294 204 413 240 c 1,17,-1
 826 509 l 1,18,-1
 680 770 l 1,19,-1
 419 383 l 2,15,16
EndSplineSet
Validated: 33
EndChar

StartChar: uni1F07
Encoding: 7943 7943 662
Width: 1798
Flags: W
LayerCount: 2
Fore
SplineSet
1644 -1 m 1,0,1
 1332 -17 1332 -17 1260 16 c 128,-1,2
 1188 49 1188 49 908 407 c 1,3,4
 347 -55 347 -55 113 66 c 1,5,6
 9 96 9 96 138 265 c 2,7,-1
 618 876 l 1,8,-1
 480 1188 l 1,9,10
 635 1273 635 1273 823 1215 c 1,11,12
 1175 493 1175 493 1360.5 281 c 128,-1,13
 1546 69 1546 69 1590 75.5 c 128,-1,14
 1634 82 1634 82 1644 -1 c 1,0,1
419 383 m 2,15,16
 294 204 294 204 413 240 c 1,17,-1
 826 509 l 1,18,-1
 680 770 l 1,19,-1
 419 383 l 2,15,16
EndSplineSet
Validated: 33
EndChar

StartChar: uni1F08
Encoding: 7944 7944 663
Width: 1798
Flags: W
LayerCount: 2
Fore
SplineSet
1644 -1 m 1,0,1
 1332 -17 1332 -17 1260 16 c 128,-1,2
 1188 49 1188 49 908 407 c 1,3,4
 347 -55 347 -55 113 66 c 1,5,6
 9 96 9 96 138 265 c 2,7,-1
 618 876 l 1,8,-1
 480 1188 l 1,9,10
 635 1273 635 1273 823 1215 c 1,11,12
 1175 493 1175 493 1360.5 281 c 128,-1,13
 1546 69 1546 69 1590 75.5 c 128,-1,14
 1634 82 1634 82 1644 -1 c 1,0,1
419 383 m 2,15,16
 294 204 294 204 413 240 c 1,17,-1
 826 509 l 1,18,-1
 680 770 l 1,19,-1
 419 383 l 2,15,16
EndSplineSet
Validated: 33
EndChar

StartChar: uni1F09
Encoding: 7945 7945 664
Width: 1798
Flags: W
LayerCount: 2
Fore
SplineSet
1644 -1 m 1,0,1
 1332 -17 1332 -17 1260 16 c 128,-1,2
 1188 49 1188 49 908 407 c 1,3,4
 347 -55 347 -55 113 66 c 1,5,6
 9 96 9 96 138 265 c 2,7,-1
 618 876 l 1,8,-1
 480 1188 l 1,9,10
 635 1273 635 1273 823 1215 c 1,11,12
 1175 493 1175 493 1360.5 281 c 128,-1,13
 1546 69 1546 69 1590 75.5 c 128,-1,14
 1634 82 1634 82 1644 -1 c 1,0,1
419 383 m 2,15,16
 294 204 294 204 413 240 c 1,17,-1
 826 509 l 1,18,-1
 680 770 l 1,19,-1
 419 383 l 2,15,16
EndSplineSet
Validated: 33
EndChar

StartChar: uni1F0A
Encoding: 7946 7946 665
Width: 1798
Flags: W
LayerCount: 2
Fore
SplineSet
1644 -1 m 1,0,1
 1332 -17 1332 -17 1260 16 c 128,-1,2
 1188 49 1188 49 908 407 c 1,3,4
 347 -55 347 -55 113 66 c 1,5,6
 9 96 9 96 138 265 c 2,7,-1
 618 876 l 1,8,-1
 480 1188 l 1,9,10
 635 1273 635 1273 823 1215 c 1,11,12
 1175 493 1175 493 1360.5 281 c 128,-1,13
 1546 69 1546 69 1590 75.5 c 128,-1,14
 1634 82 1634 82 1644 -1 c 1,0,1
419 383 m 2,15,16
 294 204 294 204 413 240 c 1,17,-1
 826 509 l 1,18,-1
 680 770 l 1,19,-1
 419 383 l 2,15,16
EndSplineSet
Validated: 33
EndChar

StartChar: uni1F0B
Encoding: 7947 7947 666
Width: 1798
Flags: W
LayerCount: 2
Fore
SplineSet
1644 -1 m 1,0,1
 1332 -17 1332 -17 1260 16 c 128,-1,2
 1188 49 1188 49 908 407 c 1,3,4
 347 -55 347 -55 113 66 c 1,5,6
 9 96 9 96 138 265 c 2,7,-1
 618 876 l 1,8,-1
 480 1188 l 1,9,10
 635 1273 635 1273 823 1215 c 1,11,12
 1175 493 1175 493 1360.5 281 c 128,-1,13
 1546 69 1546 69 1590 75.5 c 128,-1,14
 1634 82 1634 82 1644 -1 c 1,0,1
419 383 m 2,15,16
 294 204 294 204 413 240 c 1,17,-1
 826 509 l 1,18,-1
 680 770 l 1,19,-1
 419 383 l 2,15,16
EndSplineSet
Validated: 33
EndChar

StartChar: uni1F0C
Encoding: 7948 7948 667
Width: 1798
Flags: W
LayerCount: 2
Fore
SplineSet
1644 -1 m 1,0,1
 1332 -17 1332 -17 1260 16 c 128,-1,2
 1188 49 1188 49 908 407 c 1,3,4
 347 -55 347 -55 113 66 c 1,5,6
 9 96 9 96 138 265 c 2,7,-1
 618 876 l 1,8,-1
 480 1188 l 1,9,10
 635 1273 635 1273 823 1215 c 1,11,12
 1175 493 1175 493 1360.5 281 c 128,-1,13
 1546 69 1546 69 1590 75.5 c 128,-1,14
 1634 82 1634 82 1644 -1 c 1,0,1
419 383 m 2,15,16
 294 204 294 204 413 240 c 1,17,-1
 826 509 l 1,18,-1
 680 770 l 1,19,-1
 419 383 l 2,15,16
EndSplineSet
Validated: 33
EndChar

StartChar: uni1F0D
Encoding: 7949 7949 668
Width: 1798
Flags: W
LayerCount: 2
Fore
SplineSet
1644 -1 m 1,0,1
 1332 -17 1332 -17 1260 16 c 128,-1,2
 1188 49 1188 49 908 407 c 1,3,4
 347 -55 347 -55 113 66 c 1,5,6
 9 96 9 96 138 265 c 2,7,-1
 618 876 l 1,8,-1
 480 1188 l 1,9,10
 635 1273 635 1273 823 1215 c 1,11,12
 1175 493 1175 493 1360.5 281 c 128,-1,13
 1546 69 1546 69 1590 75.5 c 128,-1,14
 1634 82 1634 82 1644 -1 c 1,0,1
419 383 m 2,15,16
 294 204 294 204 413 240 c 1,17,-1
 826 509 l 1,18,-1
 680 770 l 1,19,-1
 419 383 l 2,15,16
EndSplineSet
Validated: 33
EndChar

StartChar: uni1F0E
Encoding: 7950 7950 669
Width: 1798
Flags: W
LayerCount: 2
Fore
SplineSet
1644 -1 m 1,0,1
 1332 -17 1332 -17 1260 16 c 128,-1,2
 1188 49 1188 49 908 407 c 1,3,4
 347 -55 347 -55 113 66 c 1,5,6
 9 96 9 96 138 265 c 2,7,-1
 618 876 l 1,8,-1
 480 1188 l 1,9,10
 635 1273 635 1273 823 1215 c 1,11,12
 1175 493 1175 493 1360.5 281 c 128,-1,13
 1546 69 1546 69 1590 75.5 c 128,-1,14
 1634 82 1634 82 1644 -1 c 1,0,1
419 383 m 2,15,16
 294 204 294 204 413 240 c 1,17,-1
 826 509 l 1,18,-1
 680 770 l 1,19,-1
 419 383 l 2,15,16
EndSplineSet
Validated: 33
EndChar

StartChar: uni1F0F
Encoding: 7951 7951 670
Width: 1798
Flags: W
LayerCount: 2
Fore
SplineSet
1644 -1 m 1,0,1
 1332 -17 1332 -17 1260 16 c 128,-1,2
 1188 49 1188 49 908 407 c 1,3,4
 347 -55 347 -55 113 66 c 1,5,6
 9 96 9 96 138 265 c 2,7,-1
 618 876 l 1,8,-1
 480 1188 l 1,9,10
 635 1273 635 1273 823 1215 c 1,11,12
 1175 493 1175 493 1360.5 281 c 128,-1,13
 1546 69 1546 69 1590 75.5 c 128,-1,14
 1634 82 1634 82 1644 -1 c 1,0,1
419 383 m 2,15,16
 294 204 294 204 413 240 c 1,17,-1
 826 509 l 1,18,-1
 680 770 l 1,19,-1
 419 383 l 2,15,16
EndSplineSet
Validated: 33
EndChar

StartChar: uni1F80
Encoding: 8064 8064 671
Width: 1576
Flags: W
LayerCount: 2
Fore
SplineSet
1526 92 m 1,0,1
 1260 78 1260 78 1199 106 c 128,-1,2
 1138 134 1138 134 900 438 c 1,3,4
 423 46 423 46 224 148 c 1,5,6
 136 174 136 174 246 318 c 2,7,-1
 654 837 l 1,8,-1
 536 1102 l 1,9,10
 668 1174 668 1174 828 1125 c 1,11,12
 1127 511 1127 511 1284.5 331 c 128,-1,13
 1442 151 1442 151 1479.5 156.5 c 128,-1,14
 1517 162 1517 162 1526 92 c 1,0,1
469 419 m 1,15,16
 362 267 362 267 464 297 c 1,17,-1
 815 526 l 1,18,-1
 690 748 l 1,19,-1
 469 419 l 1,15,16
EndSplineSet
Validated: 33
EndChar

StartChar: uni1F81
Encoding: 8065 8065 672
Width: 1576
Flags: W
LayerCount: 2
Fore
SplineSet
1526 92 m 1,0,1
 1260 78 1260 78 1199 106 c 128,-1,2
 1138 134 1138 134 900 438 c 1,3,4
 423 46 423 46 224 148 c 1,5,6
 136 174 136 174 246 318 c 2,7,-1
 654 837 l 1,8,-1
 536 1102 l 1,9,10
 668 1174 668 1174 828 1125 c 1,11,12
 1127 511 1127 511 1284.5 331 c 128,-1,13
 1442 151 1442 151 1479.5 156.5 c 128,-1,14
 1517 162 1517 162 1526 92 c 1,0,1
469 419 m 1,15,16
 362 267 362 267 464 297 c 1,17,-1
 815 526 l 1,18,-1
 690 748 l 1,19,-1
 469 419 l 1,15,16
EndSplineSet
Validated: 33
EndChar

StartChar: uni1F82
Encoding: 8066 8066 673
Width: 1576
Flags: W
LayerCount: 2
Fore
SplineSet
1526 92 m 1,0,1
 1260 78 1260 78 1199 106 c 128,-1,2
 1138 134 1138 134 900 438 c 1,3,4
 423 46 423 46 224 148 c 1,5,6
 136 174 136 174 246 318 c 2,7,-1
 654 837 l 1,8,-1
 536 1102 l 1,9,10
 668 1174 668 1174 828 1125 c 1,11,12
 1127 511 1127 511 1284.5 331 c 128,-1,13
 1442 151 1442 151 1479.5 156.5 c 128,-1,14
 1517 162 1517 162 1526 92 c 1,0,1
469 419 m 1,15,16
 362 267 362 267 464 297 c 1,17,-1
 815 526 l 1,18,-1
 690 748 l 1,19,-1
 469 419 l 1,15,16
EndSplineSet
Validated: 33
EndChar

StartChar: uni1F83
Encoding: 8067 8067 674
Width: 1576
Flags: W
LayerCount: 2
Fore
SplineSet
1526 92 m 1,0,1
 1260 78 1260 78 1199 106 c 128,-1,2
 1138 134 1138 134 900 438 c 1,3,4
 423 46 423 46 224 148 c 1,5,6
 136 174 136 174 246 318 c 2,7,-1
 654 837 l 1,8,-1
 536 1102 l 1,9,10
 668 1174 668 1174 828 1125 c 1,11,12
 1127 511 1127 511 1284.5 331 c 128,-1,13
 1442 151 1442 151 1479.5 156.5 c 128,-1,14
 1517 162 1517 162 1526 92 c 1,0,1
469 419 m 1,15,16
 362 267 362 267 464 297 c 1,17,-1
 815 526 l 1,18,-1
 690 748 l 1,19,-1
 469 419 l 1,15,16
EndSplineSet
Validated: 33
EndChar

StartChar: uni1F84
Encoding: 8068 8068 675
Width: 1576
Flags: W
LayerCount: 2
Fore
SplineSet
1526 92 m 1,0,1
 1260 78 1260 78 1199 106 c 128,-1,2
 1138 134 1138 134 900 438 c 1,3,4
 423 46 423 46 224 148 c 1,5,6
 136 174 136 174 246 318 c 2,7,-1
 654 837 l 1,8,-1
 536 1102 l 1,9,10
 668 1174 668 1174 828 1125 c 1,11,12
 1127 511 1127 511 1284.5 331 c 128,-1,13
 1442 151 1442 151 1479.5 156.5 c 128,-1,14
 1517 162 1517 162 1526 92 c 1,0,1
469 419 m 1,15,16
 362 267 362 267 464 297 c 1,17,-1
 815 526 l 1,18,-1
 690 748 l 1,19,-1
 469 419 l 1,15,16
EndSplineSet
Validated: 33
EndChar

StartChar: uni1F85
Encoding: 8069 8069 676
Width: 1576
Flags: W
LayerCount: 2
Fore
SplineSet
1526 92 m 1,0,1
 1260 78 1260 78 1199 106 c 128,-1,2
 1138 134 1138 134 900 438 c 1,3,4
 423 46 423 46 224 148 c 1,5,6
 136 174 136 174 246 318 c 2,7,-1
 654 837 l 1,8,-1
 536 1102 l 1,9,10
 668 1174 668 1174 828 1125 c 1,11,12
 1127 511 1127 511 1284.5 331 c 128,-1,13
 1442 151 1442 151 1479.5 156.5 c 128,-1,14
 1517 162 1517 162 1526 92 c 1,0,1
469 419 m 1,15,16
 362 267 362 267 464 297 c 1,17,-1
 815 526 l 1,18,-1
 690 748 l 1,19,-1
 469 419 l 1,15,16
EndSplineSet
Validated: 33
EndChar

StartChar: uni1F86
Encoding: 8070 8070 677
Width: 1576
Flags: W
LayerCount: 2
Fore
SplineSet
1526 92 m 1,0,1
 1260 78 1260 78 1199 106 c 128,-1,2
 1138 134 1138 134 900 438 c 1,3,4
 423 46 423 46 224 148 c 1,5,6
 136 174 136 174 246 318 c 2,7,-1
 654 837 l 1,8,-1
 536 1102 l 1,9,10
 668 1174 668 1174 828 1125 c 1,11,12
 1127 511 1127 511 1284.5 331 c 128,-1,13
 1442 151 1442 151 1479.5 156.5 c 128,-1,14
 1517 162 1517 162 1526 92 c 1,0,1
469 419 m 1,15,16
 362 267 362 267 464 297 c 1,17,-1
 815 526 l 1,18,-1
 690 748 l 1,19,-1
 469 419 l 1,15,16
EndSplineSet
Validated: 33
EndChar

StartChar: uni1F87
Encoding: 8071 8071 678
Width: 1576
Flags: W
LayerCount: 2
Fore
SplineSet
1526 92 m 1,0,1
 1260 78 1260 78 1199 106 c 128,-1,2
 1138 134 1138 134 900 438 c 1,3,4
 423 46 423 46 224 148 c 1,5,6
 136 174 136 174 246 318 c 2,7,-1
 654 837 l 1,8,-1
 536 1102 l 1,9,10
 668 1174 668 1174 828 1125 c 1,11,12
 1127 511 1127 511 1284.5 331 c 128,-1,13
 1442 151 1442 151 1479.5 156.5 c 128,-1,14
 1517 162 1517 162 1526 92 c 1,0,1
469 419 m 1,15,16
 362 267 362 267 464 297 c 1,17,-1
 815 526 l 1,18,-1
 690 748 l 1,19,-1
 469 419 l 1,15,16
EndSplineSet
Validated: 33
EndChar

StartChar: uni1F88
Encoding: 8072 8072 679
Width: 1576
Flags: W
LayerCount: 2
Fore
SplineSet
1526 92 m 1,0,1
 1260 78 1260 78 1199 106 c 128,-1,2
 1138 134 1138 134 900 438 c 1,3,4
 423 46 423 46 224 148 c 1,5,6
 136 174 136 174 246 318 c 2,7,-1
 654 837 l 1,8,-1
 536 1102 l 1,9,10
 668 1174 668 1174 828 1125 c 1,11,12
 1127 511 1127 511 1284.5 331 c 128,-1,13
 1442 151 1442 151 1479.5 156.5 c 128,-1,14
 1517 162 1517 162 1526 92 c 1,0,1
469 419 m 1,15,16
 362 267 362 267 464 297 c 1,17,-1
 815 526 l 1,18,-1
 690 748 l 1,19,-1
 469 419 l 1,15,16
EndSplineSet
Validated: 33
EndChar

StartChar: uni1F89
Encoding: 8073 8073 680
Width: 1576
Flags: W
LayerCount: 2
Fore
SplineSet
1526 92 m 1,0,1
 1260 78 1260 78 1199 106 c 128,-1,2
 1138 134 1138 134 900 438 c 1,3,4
 423 46 423 46 224 148 c 1,5,6
 136 174 136 174 246 318 c 2,7,-1
 654 837 l 1,8,-1
 536 1102 l 1,9,10
 668 1174 668 1174 828 1125 c 1,11,12
 1127 511 1127 511 1284.5 331 c 128,-1,13
 1442 151 1442 151 1479.5 156.5 c 128,-1,14
 1517 162 1517 162 1526 92 c 1,0,1
469 419 m 1,15,16
 362 267 362 267 464 297 c 1,17,-1
 815 526 l 1,18,-1
 690 748 l 1,19,-1
 469 419 l 1,15,16
EndSplineSet
Validated: 33
EndChar

StartChar: uni1F8A
Encoding: 8074 8074 681
Width: 1576
Flags: W
LayerCount: 2
Fore
SplineSet
1526 92 m 1,0,1
 1260 78 1260 78 1199 106 c 128,-1,2
 1138 134 1138 134 900 438 c 1,3,4
 423 46 423 46 224 148 c 1,5,6
 136 174 136 174 246 318 c 2,7,-1
 654 837 l 1,8,-1
 536 1102 l 1,9,10
 668 1174 668 1174 828 1125 c 1,11,12
 1127 511 1127 511 1284.5 331 c 128,-1,13
 1442 151 1442 151 1479.5 156.5 c 128,-1,14
 1517 162 1517 162 1526 92 c 1,0,1
469 419 m 1,15,16
 362 267 362 267 464 297 c 1,17,-1
 815 526 l 1,18,-1
 690 748 l 1,19,-1
 469 419 l 1,15,16
EndSplineSet
Validated: 33
EndChar

StartChar: uni1F8B
Encoding: 8075 8075 682
Width: 1576
Flags: W
LayerCount: 2
Fore
SplineSet
1526 92 m 1,0,1
 1260 78 1260 78 1199 106 c 128,-1,2
 1138 134 1138 134 900 438 c 1,3,4
 423 46 423 46 224 148 c 1,5,6
 136 174 136 174 246 318 c 2,7,-1
 654 837 l 1,8,-1
 536 1102 l 1,9,10
 668 1174 668 1174 828 1125 c 1,11,12
 1127 511 1127 511 1284.5 331 c 128,-1,13
 1442 151 1442 151 1479.5 156.5 c 128,-1,14
 1517 162 1517 162 1526 92 c 1,0,1
469 419 m 1,15,16
 362 267 362 267 464 297 c 1,17,-1
 815 526 l 1,18,-1
 690 748 l 1,19,-1
 469 419 l 1,15,16
EndSplineSet
Validated: 33
EndChar

StartChar: uni1F8C
Encoding: 8076 8076 683
Width: 1576
Flags: W
LayerCount: 2
Fore
SplineSet
1526 92 m 1,0,1
 1260 78 1260 78 1199 106 c 128,-1,2
 1138 134 1138 134 900 438 c 1,3,4
 423 46 423 46 224 148 c 1,5,6
 136 174 136 174 246 318 c 2,7,-1
 654 837 l 1,8,-1
 536 1102 l 1,9,10
 668 1174 668 1174 828 1125 c 1,11,12
 1127 511 1127 511 1284.5 331 c 128,-1,13
 1442 151 1442 151 1479.5 156.5 c 128,-1,14
 1517 162 1517 162 1526 92 c 1,0,1
469 419 m 1,15,16
 362 267 362 267 464 297 c 1,17,-1
 815 526 l 1,18,-1
 690 748 l 1,19,-1
 469 419 l 1,15,16
EndSplineSet
Validated: 33
EndChar

StartChar: uni1F8D
Encoding: 8077 8077 684
Width: 1576
Flags: W
LayerCount: 2
Fore
SplineSet
1526 92 m 1,0,1
 1260 78 1260 78 1199 106 c 128,-1,2
 1138 134 1138 134 900 438 c 1,3,4
 423 46 423 46 224 148 c 1,5,6
 136 174 136 174 246 318 c 2,7,-1
 654 837 l 1,8,-1
 536 1102 l 1,9,10
 668 1174 668 1174 828 1125 c 1,11,12
 1127 511 1127 511 1284.5 331 c 128,-1,13
 1442 151 1442 151 1479.5 156.5 c 128,-1,14
 1517 162 1517 162 1526 92 c 1,0,1
469 419 m 1,15,16
 362 267 362 267 464 297 c 1,17,-1
 815 526 l 1,18,-1
 690 748 l 1,19,-1
 469 419 l 1,15,16
EndSplineSet
Validated: 33
EndChar

StartChar: uni1F8E
Encoding: 8078 8078 685
Width: 1576
Flags: W
LayerCount: 2
Fore
SplineSet
1526 92 m 1,0,1
 1260 78 1260 78 1199 106 c 128,-1,2
 1138 134 1138 134 900 438 c 1,3,4
 423 46 423 46 224 148 c 1,5,6
 136 174 136 174 246 318 c 2,7,-1
 654 837 l 1,8,-1
 536 1102 l 1,9,10
 668 1174 668 1174 828 1125 c 1,11,12
 1127 511 1127 511 1284.5 331 c 128,-1,13
 1442 151 1442 151 1479.5 156.5 c 128,-1,14
 1517 162 1517 162 1526 92 c 1,0,1
469 419 m 1,15,16
 362 267 362 267 464 297 c 1,17,-1
 815 526 l 1,18,-1
 690 748 l 1,19,-1
 469 419 l 1,15,16
EndSplineSet
Validated: 33
EndChar

StartChar: uni1F8F
Encoding: 8079 8079 686
Width: 1576
Flags: W
LayerCount: 2
Fore
SplineSet
1526 92 m 1,0,1
 1260 78 1260 78 1199 106 c 128,-1,2
 1138 134 1138 134 900 438 c 1,3,4
 423 46 423 46 224 148 c 1,5,6
 136 174 136 174 246 318 c 2,7,-1
 654 837 l 1,8,-1
 536 1102 l 1,9,10
 668 1174 668 1174 828 1125 c 1,11,12
 1127 511 1127 511 1284.5 331 c 128,-1,13
 1442 151 1442 151 1479.5 156.5 c 128,-1,14
 1517 162 1517 162 1526 92 c 1,0,1
469 419 m 1,15,16
 362 267 362 267 464 297 c 1,17,-1
 815 526 l 1,18,-1
 690 748 l 1,19,-1
 469 419 l 1,15,16
EndSplineSet
Validated: 33
EndChar

StartChar: uni1F78
Encoding: 8056 8056 687
Width: 1644
Flags: W
LayerCount: 2
Fore
SplineSet
1274 152 m 128,-1,1
 1036 -12 1036 -12 763 -12 c 128,-1,2
 490 -12 490 -12 314 138.5 c 128,-1,3
 138 289 138 289 138 619 c 128,-1,4
 138 949 138 949 350 1053.5 c 128,-1,5
 562 1158 562 1158 839.5 1158 c 128,-1,6
 1117 1158 1117 1158 1314.5 1023 c 128,-1,7
 1512 888 1512 888 1512 602 c 128,-1,0
 1512 316 1512 316 1274 152 c 128,-1,1
1177 799 m 128,-1,9
 1120 979 1120 979 915.5 1031 c 128,-1,10
 711 1083 711 1083 586.5 1001.5 c 128,-1,11
 462 920 462 920 463.5 631 c 128,-1,12
 465 342 465 342 569 199 c 128,-1,13
 673 56 673 56 827.5 71 c 128,-1,14
 982 86 982 86 1069.5 144 c 128,-1,15
 1157 202 1157 202 1195.5 410.5 c 128,-1,8
 1234 619 1234 619 1177 799 c 128,-1,9
EndSplineSet
Validated: 33
EndChar

StartChar: uni1F79
Encoding: 8057 8057 688
Width: 1644
Flags: W
LayerCount: 2
Fore
SplineSet
1274 152 m 128,-1,1
 1036 -12 1036 -12 763 -12 c 128,-1,2
 490 -12 490 -12 314 138.5 c 128,-1,3
 138 289 138 289 138 619 c 128,-1,4
 138 949 138 949 350 1053.5 c 128,-1,5
 562 1158 562 1158 839.5 1158 c 128,-1,6
 1117 1158 1117 1158 1314.5 1023 c 128,-1,7
 1512 888 1512 888 1512 602 c 128,-1,0
 1512 316 1512 316 1274 152 c 128,-1,1
1177 799 m 128,-1,9
 1120 979 1120 979 915.5 1031 c 128,-1,10
 711 1083 711 1083 586.5 1001.5 c 128,-1,11
 462 920 462 920 463.5 631 c 128,-1,12
 465 342 465 342 569 199 c 128,-1,13
 673 56 673 56 827.5 71 c 128,-1,14
 982 86 982 86 1069.5 144 c 128,-1,15
 1157 202 1157 202 1195.5 410.5 c 128,-1,8
 1234 619 1234 619 1177 799 c 128,-1,9
EndSplineSet
Validated: 33
EndChar

StartChar: uni1FB6
Encoding: 8118 8118 689
Width: 1798
Flags: W
LayerCount: 2
Fore
SplineSet
1644 -1 m 1,0,1
 1332 -17 1332 -17 1260 16 c 128,-1,2
 1188 49 1188 49 908 407 c 1,3,4
 347 -55 347 -55 113 66 c 1,5,6
 9 96 9 96 138 265 c 2,7,-1
 618 876 l 1,8,-1
 480 1188 l 1,9,10
 635 1273 635 1273 823 1215 c 1,11,12
 1175 493 1175 493 1360.5 281 c 128,-1,13
 1546 69 1546 69 1590 75.5 c 128,-1,14
 1634 82 1634 82 1644 -1 c 1,0,1
419 383 m 2,15,16
 294 204 294 204 413 240 c 1,17,-1
 826 509 l 1,18,-1
 680 770 l 1,19,-1
 419 383 l 2,15,16
EndSplineSet
Validated: 33
EndChar

StartChar: uni1FB7
Encoding: 8119 8119 690
Width: 1798
Flags: W
LayerCount: 2
Fore
SplineSet
1644 -1 m 1,0,1
 1332 -17 1332 -17 1260 16 c 128,-1,2
 1188 49 1188 49 908 407 c 1,3,4
 347 -55 347 -55 113 66 c 1,5,6
 9 96 9 96 138 265 c 2,7,-1
 618 876 l 1,8,-1
 480 1188 l 1,9,10
 635 1273 635 1273 823 1215 c 1,11,12
 1175 493 1175 493 1360.5 281 c 128,-1,13
 1546 69 1546 69 1590 75.5 c 128,-1,14
 1634 82 1634 82 1644 -1 c 1,0,1
419 383 m 2,15,16
 294 204 294 204 413 240 c 1,17,-1
 826 509 l 1,18,-1
 680 770 l 1,19,-1
 419 383 l 2,15,16
EndSplineSet
Validated: 33
EndChar

StartChar: uni1FB8
Encoding: 8120 8120 691
Width: 1798
Flags: W
LayerCount: 2
Fore
SplineSet
1644 -1 m 1,0,1
 1332 -17 1332 -17 1260 16 c 128,-1,2
 1188 49 1188 49 908 407 c 1,3,4
 347 -55 347 -55 113 66 c 1,5,6
 9 96 9 96 138 265 c 2,7,-1
 618 876 l 1,8,-1
 480 1188 l 1,9,10
 635 1273 635 1273 823 1215 c 1,11,12
 1175 493 1175 493 1360.5 281 c 128,-1,13
 1546 69 1546 69 1590 75.5 c 128,-1,14
 1634 82 1634 82 1644 -1 c 1,0,1
419 383 m 2,15,16
 294 204 294 204 413 240 c 1,17,-1
 826 509 l 1,18,-1
 680 770 l 1,19,-1
 419 383 l 2,15,16
EndSplineSet
Validated: 33
EndChar

StartChar: uni1FB9
Encoding: 8121 8121 692
Width: 1798
Flags: W
LayerCount: 2
Fore
SplineSet
1644 -1 m 1,0,1
 1332 -17 1332 -17 1260 16 c 128,-1,2
 1188 49 1188 49 908 407 c 1,3,4
 347 -55 347 -55 113 66 c 1,5,6
 9 96 9 96 138 265 c 2,7,-1
 618 876 l 1,8,-1
 480 1188 l 1,9,10
 635 1273 635 1273 823 1215 c 1,11,12
 1175 493 1175 493 1360.5 281 c 128,-1,13
 1546 69 1546 69 1590 75.5 c 128,-1,14
 1634 82 1634 82 1644 -1 c 1,0,1
419 383 m 2,15,16
 294 204 294 204 413 240 c 1,17,-1
 826 509 l 1,18,-1
 680 770 l 1,19,-1
 419 383 l 2,15,16
EndSplineSet
Validated: 33
EndChar

StartChar: uni1FBA
Encoding: 8122 8122 693
Width: 1798
Flags: W
LayerCount: 2
Fore
SplineSet
1644 -1 m 1,0,1
 1332 -17 1332 -17 1260 16 c 128,-1,2
 1188 49 1188 49 908 407 c 1,3,4
 347 -55 347 -55 113 66 c 1,5,6
 9 96 9 96 138 265 c 2,7,-1
 618 876 l 1,8,-1
 480 1188 l 1,9,10
 635 1273 635 1273 823 1215 c 1,11,12
 1175 493 1175 493 1360.5 281 c 128,-1,13
 1546 69 1546 69 1590 75.5 c 128,-1,14
 1634 82 1634 82 1644 -1 c 1,0,1
419 383 m 2,15,16
 294 204 294 204 413 240 c 1,17,-1
 826 509 l 1,18,-1
 680 770 l 1,19,-1
 419 383 l 2,15,16
EndSplineSet
Validated: 33
EndChar

StartChar: uni1FBB
Encoding: 8123 8123 694
Width: 1798
Flags: W
LayerCount: 2
Fore
SplineSet
1644 -1 m 1,0,1
 1332 -17 1332 -17 1260 16 c 128,-1,2
 1188 49 1188 49 908 407 c 1,3,4
 347 -55 347 -55 113 66 c 1,5,6
 9 96 9 96 138 265 c 2,7,-1
 618 876 l 1,8,-1
 480 1188 l 1,9,10
 635 1273 635 1273 823 1215 c 1,11,12
 1175 493 1175 493 1360.5 281 c 128,-1,13
 1546 69 1546 69 1590 75.5 c 128,-1,14
 1634 82 1634 82 1644 -1 c 1,0,1
419 383 m 2,15,16
 294 204 294 204 413 240 c 1,17,-1
 826 509 l 1,18,-1
 680 770 l 1,19,-1
 419 383 l 2,15,16
EndSplineSet
Validated: 33
EndChar

StartChar: uni1FBC
Encoding: 8124 8124 695
Width: 1798
Flags: W
LayerCount: 2
Fore
SplineSet
1644 -1 m 1,0,1
 1332 -17 1332 -17 1260 16 c 128,-1,2
 1188 49 1188 49 908 407 c 1,3,4
 347 -55 347 -55 113 66 c 1,5,6
 9 96 9 96 138 265 c 2,7,-1
 618 876 l 1,8,-1
 480 1188 l 1,9,10
 635 1273 635 1273 823 1215 c 1,11,12
 1175 493 1175 493 1360.5 281 c 128,-1,13
 1546 69 1546 69 1590 75.5 c 128,-1,14
 1634 82 1634 82 1644 -1 c 1,0,1
419 383 m 2,15,16
 294 204 294 204 413 240 c 1,17,-1
 826 509 l 1,18,-1
 680 770 l 1,19,-1
 419 383 l 2,15,16
EndSplineSet
Validated: 33
EndChar

StartChar: uni1FB0
Encoding: 8112 8112 696
Width: 1798
Flags: W
LayerCount: 2
Fore
SplineSet
1644 -1 m 1,0,1
 1332 -17 1332 -17 1260 16 c 128,-1,2
 1188 49 1188 49 908 407 c 1,3,4
 347 -55 347 -55 113 66 c 1,5,6
 9 96 9 96 138 265 c 2,7,-1
 618 876 l 1,8,-1
 480 1188 l 1,9,10
 635 1273 635 1273 823 1215 c 1,11,12
 1175 493 1175 493 1360.5 281 c 128,-1,13
 1546 69 1546 69 1590 75.5 c 128,-1,14
 1634 82 1634 82 1644 -1 c 1,0,1
419 383 m 2,15,16
 294 204 294 204 413 240 c 1,17,-1
 826 509 l 1,18,-1
 680 770 l 1,19,-1
 419 383 l 2,15,16
EndSplineSet
Validated: 33
EndChar

StartChar: uni1FB1
Encoding: 8113 8113 697
Width: 1798
Flags: W
LayerCount: 2
Fore
SplineSet
1644 -1 m 1,0,1
 1332 -17 1332 -17 1260 16 c 128,-1,2
 1188 49 1188 49 908 407 c 1,3,4
 347 -55 347 -55 113 66 c 1,5,6
 9 96 9 96 138 265 c 2,7,-1
 618 876 l 1,8,-1
 480 1188 l 1,9,10
 635 1273 635 1273 823 1215 c 1,11,12
 1175 493 1175 493 1360.5 281 c 128,-1,13
 1546 69 1546 69 1590 75.5 c 128,-1,14
 1634 82 1634 82 1644 -1 c 1,0,1
419 383 m 2,15,16
 294 204 294 204 413 240 c 1,17,-1
 826 509 l 1,18,-1
 680 770 l 1,19,-1
 419 383 l 2,15,16
EndSplineSet
Validated: 33
EndChar

StartChar: uni1FB2
Encoding: 8114 8114 698
Width: 1798
Flags: W
LayerCount: 2
Fore
SplineSet
1644 -1 m 1,0,1
 1332 -17 1332 -17 1260 16 c 128,-1,2
 1188 49 1188 49 908 407 c 1,3,4
 347 -55 347 -55 113 66 c 1,5,6
 9 96 9 96 138 265 c 2,7,-1
 618 876 l 1,8,-1
 480 1188 l 1,9,10
 635 1273 635 1273 823 1215 c 1,11,12
 1175 493 1175 493 1360.5 281 c 128,-1,13
 1546 69 1546 69 1590 75.5 c 128,-1,14
 1634 82 1634 82 1644 -1 c 1,0,1
419 383 m 2,15,16
 294 204 294 204 413 240 c 1,17,-1
 826 509 l 1,18,-1
 680 770 l 1,19,-1
 419 383 l 2,15,16
EndSplineSet
Validated: 33
EndChar

StartChar: uni1FB3
Encoding: 8115 8115 699
Width: 1798
Flags: W
LayerCount: 2
Fore
SplineSet
1644 -1 m 1,0,1
 1332 -17 1332 -17 1260 16 c 128,-1,2
 1188 49 1188 49 908 407 c 1,3,4
 347 -55 347 -55 113 66 c 1,5,6
 9 96 9 96 138 265 c 2,7,-1
 618 876 l 1,8,-1
 480 1188 l 1,9,10
 635 1273 635 1273 823 1215 c 1,11,12
 1175 493 1175 493 1360.5 281 c 128,-1,13
 1546 69 1546 69 1590 75.5 c 128,-1,14
 1634 82 1634 82 1644 -1 c 1,0,1
419 383 m 2,15,16
 294 204 294 204 413 240 c 1,17,-1
 826 509 l 1,18,-1
 680 770 l 1,19,-1
 419 383 l 2,15,16
EndSplineSet
Validated: 33
EndChar

StartChar: uni1FB4
Encoding: 8116 8116 700
Width: 1798
Flags: W
LayerCount: 2
Fore
SplineSet
1644 -1 m 1,0,1
 1332 -17 1332 -17 1260 16 c 128,-1,2
 1188 49 1188 49 908 407 c 1,3,4
 347 -55 347 -55 113 66 c 1,5,6
 9 96 9 96 138 265 c 2,7,-1
 618 876 l 1,8,-1
 480 1188 l 1,9,10
 635 1273 635 1273 823 1215 c 1,11,12
 1175 493 1175 493 1360.5 281 c 128,-1,13
 1546 69 1546 69 1590 75.5 c 128,-1,14
 1634 82 1634 82 1644 -1 c 1,0,1
419 383 m 2,15,16
 294 204 294 204 413 240 c 1,17,-1
 826 509 l 1,18,-1
 680 770 l 1,19,-1
 419 383 l 2,15,16
EndSplineSet
Validated: 33
EndChar

StartChar: uni1FF8
Encoding: 8184 8184 701
Width: 1644
Flags: W
LayerCount: 2
Fore
SplineSet
1274 152 m 128,-1,1
 1036 -12 1036 -12 763 -12 c 128,-1,2
 490 -12 490 -12 314 138.5 c 128,-1,3
 138 289 138 289 138 619 c 128,-1,4
 138 949 138 949 350 1053.5 c 128,-1,5
 562 1158 562 1158 839.5 1158 c 128,-1,6
 1117 1158 1117 1158 1314.5 1023 c 128,-1,7
 1512 888 1512 888 1512 602 c 128,-1,0
 1512 316 1512 316 1274 152 c 128,-1,1
1177 799 m 128,-1,9
 1120 979 1120 979 915.5 1031 c 128,-1,10
 711 1083 711 1083 586.5 1001.5 c 128,-1,11
 462 920 462 920 463.5 631 c 128,-1,12
 465 342 465 342 569 199 c 128,-1,13
 673 56 673 56 827.5 71 c 128,-1,14
 982 86 982 86 1069.5 144 c 128,-1,15
 1157 202 1157 202 1195.5 410.5 c 128,-1,8
 1234 619 1234 619 1177 799 c 128,-1,9
EndSplineSet
Validated: 33
EndChar

StartChar: uni1FF9
Encoding: 8185 8185 702
Width: 1644
Flags: W
LayerCount: 2
Fore
SplineSet
1274 152 m 128,-1,1
 1036 -12 1036 -12 763 -12 c 128,-1,2
 490 -12 490 -12 314 138.5 c 128,-1,3
 138 289 138 289 138 619 c 128,-1,4
 138 949 138 949 350 1053.5 c 128,-1,5
 562 1158 562 1158 839.5 1158 c 128,-1,6
 1117 1158 1117 1158 1314.5 1023 c 128,-1,7
 1512 888 1512 888 1512 602 c 128,-1,0
 1512 316 1512 316 1274 152 c 128,-1,1
1177 799 m 128,-1,9
 1120 979 1120 979 915.5 1031 c 128,-1,10
 711 1083 711 1083 586.5 1001.5 c 128,-1,11
 462 920 462 920 463.5 631 c 128,-1,12
 465 342 465 342 569 199 c 128,-1,13
 673 56 673 56 827.5 71 c 128,-1,14
 982 86 982 86 1069.5 144 c 128,-1,15
 1157 202 1157 202 1195.5 410.5 c 128,-1,8
 1234 619 1234 619 1177 799 c 128,-1,9
EndSplineSet
Validated: 33
EndChar

StartChar: uni1DBB
Encoding: 7611 7611 703
Width: 1798
Flags: W
LayerCount: 2
Fore
SplineSet
1644 -1 m 1,0,1
 1332 -17 1332 -17 1260 16 c 128,-1,2
 1188 49 1188 49 908 407 c 1,3,4
 347 -55 347 -55 113 66 c 1,5,6
 9 96 9 96 138 265 c 2,7,-1
 618 876 l 1,8,-1
 480 1188 l 1,9,10
 635 1273 635 1273 823 1215 c 1,11,12
 1175 493 1175 493 1360.5 281 c 128,-1,13
 1546 69 1546 69 1590 75.5 c 128,-1,14
 1634 82 1634 82 1644 -1 c 1,0,1
419 383 m 2,15,16
 294 204 294 204 413 240 c 1,17,-1
 826 509 l 1,18,-1
 680 770 l 1,19,-1
 419 383 l 2,15,16
EndSplineSet
Validated: 33
EndChar

StartChar: uni1DBC
Encoding: 7612 7612 704
Width: 1235
Flags: W
LayerCount: 2
Fore
SplineSet
1387.5 233 m 128,-1,1
 1352 44 1352 44 1246 25.5 c 128,-1,2
 1140 7 1140 7 1058 10 c 2,3,-1
 421 26 l 1,4,5
 390 165 390 165 425 1183 c 1,6,7
 693 1213 693 1213 853 1205.5 c 128,-1,8
 1013 1198 1013 1198 1138.5 1132 c 128,-1,9
 1264 1066 1264 1066 1213 877 c 128,-1,10
 1162 688 1162 688 901 665 c 1,11,12
 1241 657 1241 657 1332 539.5 c 128,-1,0
 1423 422 1423 422 1387.5 233 c 128,-1,1
970 854.5 m 128,-1,14
 1000 943 1000 943 950.5 1007 c 128,-1,15
 901 1071 901 1071 642 1104 c 1,16,17
 670 965 670 965 654 703 c 1,18,13
 940 766 940 766 970 854.5 c 128,-1,14
1106 292 m 128,-1,20
 1136 480 1136 480 1011.5 518 c 128,-1,21
 887 556 887 556 638 557 c 1,22,-1
 636 659 l 1,23,24
 630 315 630 315 661 94 c 1,25,19
 1076 104 1076 104 1106 292 c 128,-1,20
EndSplineSet
Validated: 33
EndChar

StartChar: uni1DBD
Encoding: 7613 7613 705
Width: 1704
Flags: W
LayerCount: 2
Fore
SplineSet
1118 -112 m 1,0,1
 957 -40 957 -40 533 -39.5 c 128,-1,2
 109 -39 109 -39 8 -59 c 128,-1,3
 -93 -79 -93 -79 -41 75 c 1,4,-1
 680 507 l 1,5,-1
 286 662 l 1,6,7
 44 790 44 790 297.5 926.5 c 128,-1,8
 551 1063 551 1063 800 1129 c 1,9,-1
 16 1103 l 1,10,11
 -62 1105 -62 1105 -4 1237 c 1,12,-1
 1056 1209 l 1,13,14
 1666 1238 1666 1238 1332 1128 c 128,-1,15
 998 1018 998 1018 564 778 c 1,16,17
 1054 699 1054 699 1082 623 c 128,-1,18
 1110 547 1110 547 364 85 c 1,19,20
 911 156 911 156 1435 58 c 1,21,-1
 1118 -112 l 1,0,1
EndSplineSet
Validated: 33
EndChar

StartChar: uni1DBE
Encoding: 7614 7614 706
Width: 2058
Flags: W
LayerCount: 2
Fore
SplineSet
1991 63 m 128,-1,1
 2156 -62 2156 -62 567 11 c 1,2,3
 -2 -37 -2 -37 167 86 c 1,4,5
 700 638 700 638 899 986 c 1,6,7
 754 1187 754 1187 872.5 1225.5 c 128,-1,8
 991 1264 991 1264 1158 1237 c 1,9,10
 1344 780 1344 780 1585 484 c 128,-1,0
 1826 188 1826 188 1991 63 c 128,-1,1
1627 109 m 1,11,12
 1205 480 1205 480 1000 807 c 1,13,14
 907 665 907 665 425 126 c 1,15,-1
 922 114 l 1,16,-1
 1627 109 l 1,11,12
EndSplineSet
Validated: 33
EndChar

StartChar: uni1DBF
Encoding: 7615 7615 707
Width: 1369
Flags: W
LayerCount: 2
Fore
SplineSet
992 1211 m 1,1,2
 779 1223 779 1223 695.5 1216.5 c 128,-1,3
 612 1210 612 1210 536.5 1088.5 c 128,-1,4
 461 967 461 967 447 779 c 1,5,6
 920 778 920 778 1261 759 c 1,7,8
 1302 697 1302 697 1216 665 c 1,9,10
 853 645 853 645 443 653 c 1,11,12
 435 375 435 375 501.5 268 c 128,-1,13
 568 161 568 161 742 159.5 c 128,-1,14
 916 158 916 158 1096.5 176 c 128,-1,15
 1277 194 1277 194 1207 80 c 1,16,17
 1012 16 1012 16 737 13 c 128,-1,18
 462 10 462 10 333.5 32.5 c 128,-1,19
 205 55 205 55 166.5 265 c 128,-1,20
 128 475 128 475 147.5 715.5 c 128,-1,21
 167 956 167 956 228.5 1130 c 128,-1,22
 290 1304 290 1304 544 1326 c 128,-1,23
 798 1348 798 1348 1055 1312.5 c 128,-1,24
 1312 1277 1312 1277 1223.5 1224.5 c 128,-1,0
 1135 1172 1135 1172 992 1211 c 1,1,2
EndSplineSet
Validated: 33
EndChar

StartChar: uni1DC0
Encoding: 7616 7616 708
Width: 2382
Flags: W
LayerCount: 2
Fore
SplineSet
2128.5 547.5 m 128,-1,1
 1924 286 1924 286 1314 104 c 1,2,-1
 1315 -358 l 1,3,-1
 1036 -408 l 1,4,-1
 1032 86 l 1,5,6
 530 202 530 202 295.5 479 c 128,-1,7
 61 756 61 756 303 990.5 c 128,-1,8
 545 1225 545 1225 1040 1315 c 1,9,-1
 1040 1833 l 1,10,-1
 1306 1837 l 1,11,-1
 1318 1306 l 1,12,13
 1754 1246 1754 1246 2043.5 1027.5 c 128,-1,0
 2333 809 2333 809 2128.5 547.5 c 128,-1,1
1305 1123 m 1,15,-1
 1308 295 l 1,16,17
 1721 419 1721 419 1836 604 c 128,-1,18
 1951 789 1951 789 1807.5 929 c 128,-1,14
 1664 1069 1664 1069 1305 1123 c 1,15,-1
1033 1108 m 1,19,20
 750 1104 750 1104 544 943 c 128,-1,21
 338 782 338 782 521 569 c 128,-1,22
 704 356 704 356 1033 320 c 1,23,-1
 1033 1108 l 1,19,20
EndSplineSet
Validated: 33
EndChar

StartChar: uni1DC1
Encoding: 7617 7617 709
Width: 1551
Flags: W
LayerCount: 2
Fore
SplineSet
1482.5 1102 m 128,-1,1
 1482 1037 1482 1037 1383 1013.5 c 128,-1,2
 1284 990 1284 990 1183 1042 c 1,3,4
 871 1092 871 1092 507 1053 c 1,5,6
 465 854 465 854 474 199 c 1,7,8
 490 -29 490 -29 397.5 -34.5 c 128,-1,9
 305 -40 305 -40 249 -15.5 c 128,-1,10
 193 9 193 9 211 163 c 1,11,-1
 213 1031 l 1,12,13
 173 1133 173 1133 230 1179 c 1,14,15
 830 1174 830 1174 1156.5 1170.5 c 128,-1,0
 1483 1167 1483 1167 1482.5 1102 c 128,-1,1
EndSplineSet
Validated: 33
EndChar

StartChar: uni1DC2
Encoding: 7618 7618 710
Width: 1607
Flags: W
LayerCount: 2
Fore
SplineSet
1446 -7 m 1,0,-1
 1208 -11 l 1,1,-1
 1179 562 l 1,2,3
 840 571 840 571 441 576 c 1,4,-1
 435 -11 l 1,5,-1
 189 -7 l 1,6,7
 219 598 219 598 189 1203 c 1,8,-1
 440 1204 l 1,9,-1
 447 678 l 1,10,11
 850 681 850 681 1179 656 c 1,12,-1
 1199 1236 l 1,13,-1
 1446 1226 l 1,14,15
 1410 584 1410 584 1446 -7 c 1,0,-1
EndSplineSet
Validated: 33
EndChar

StartChar: uni1DC3
Encoding: 7619 7619 711
Width: 780
Flags: W
LayerCount: 2
Fore
SplineSet
553 38 m 1,0,1
 540 -11 540 -11 373.5 -4.5 c 128,-1,2
 207 2 207 2 256 155 c 1,3,4
 261 577 261 577 257 1003 c 1,5,6
 229 1176 229 1176 322 1176 c 2,7,-1
 529 1181 l 1,8,9
 565 1149 565 1149 564 858.5 c 128,-1,10
 563 568 563 568 553 38 c 1,0,1
EndSplineSet
Validated: 33
EndChar

StartChar: uni1DC4
Encoding: 7620 7620 712
Width: 1614
Flags: W
LayerCount: 2
Fore
SplineSet
1503 977 m 1,0,1
 1467 908 1467 908 1423 902.5 c 128,-1,2
 1379 897 1379 897 1236 992 c 1,3,4
 1153 1053 1153 1053 925 1092 c 1,5,6
 612 1097 612 1097 554 923 c 128,-1,7
 496 749 496 749 501 607.5 c 128,-1,8
 506 466 506 466 550 330 c 128,-1,9
 594 194 594 194 722 135 c 128,-1,10
 850 76 850 76 976.5 80.5 c 128,-1,11
 1103 85 1103 85 1234 112 c 1,12,13
 1431 206 1431 206 1419 110.5 c 128,-1,14
 1407 15 1407 15 1161 -14 c 1,15,16
 406 -73 406 -73 276.5 157 c 128,-1,17
 147 387 147 387 192 723.5 c 128,-1,18
 237 1060 237 1060 512 1161 c 128,-1,19
 787 1262 787 1262 1144 1190 c 128,-1,20
 1501 1118 1501 1118 1503 977 c 1,0,1
EndSplineSet
Validated: 33
EndChar

StartChar: uni1DC5
Encoding: 7621 7621 713
Width: 1684
Flags: W
LayerCount: 2
Fore
SplineSet
1553 54 m 1,0,1
 1574 -31 1574 -31 1223 11 c 1,2,3
 948 235 948 235 614 469 c 1,4,5
 563 464 563 464 528 432 c 1,6,7
 544 13 544 13 471 13 c 1,8,9
 -83 -42 -83 -42 233 83 c 1,10,-1
 243 967 l 1,11,12
 210 1063 210 1063 284.5 1092 c 128,-1,13
 359 1121 359 1121 444.5 1123.5 c 128,-1,14
 530 1126 530 1126 532 1054 c 2,15,-1
 532 651 l 1,16,17
 504 573 504 573 611 617 c 1,18,19
 1307 1092 1307 1092 1464 1154 c 1,20,21
 1665 1145 1665 1145 1648.5 1106 c 128,-1,22
 1632 1067 1632 1067 1567.5 1034.5 c 128,-1,23
 1503 1002 1503 1002 1416 952 c 128,-1,24
 1329 902 1329 902 1140.5 796 c 128,-1,25
 952 690 952 690 769 569 c 1,26,27
 1116 354 1116 354 1285 250 c 128,-1,28
 1454 146 1454 146 1553 54 c 1,0,1
EndSplineSet
Validated: 33
EndChar

StartChar: uni1DC6
Encoding: 7622 7622 714
Width: 1794
Flags: W
LayerCount: 2
Fore
SplineSet
1702 36 m 1,0,1
 1784 -27 1784 -27 1375 4 c 1,2,3
 1016 353 1016 353 856 650 c 1,4,5
 465 131 465 131 308 -11 c 1,6,7
 72 -41 72 -41 95 20 c 1,8,9
 300 212 300 212 742 799 c 1,10,-1
 595 1028 l 1,11,12
 409 1230 409 1230 843 1154 c 1,13,14
 879 1116 879 1116 1099.5 770 c 128,-1,15
 1320 424 1320 424 1702 36 c 1,0,1
EndSplineSet
Validated: 33
EndChar

StartChar: uni1DC7
Encoding: 7623 7623 715
Width: 1866
Flags: W
LayerCount: 2
Fore
SplineSet
2082 -3 m 1,0,-1
 1792 29 l 1,1,2
 1782 368 1782 368 1759 698 c 1,3,-1
 1545 395 l 1,4,5
 1298 5 1298 5 1162 159 c 128,-1,6
 1026 313 1026 313 775 606 c 1,7,8
 779 285 779 285 774 -22 c 1,9,-1
 529 -66 l 1,10,-1
 523 144 l 1,11,12
 516 909 516 909 502 1062 c 1,13,-1
 789 1075 l 1,14,-1
 798 933 l 1,15,16
 890 749 890 749 1055 496.5 c 128,-1,17
 1220 244 1220 244 1332 362 c 1,18,19
 1520 536 1520 536 1762 858 c 1,20,-1
 1750 1104 l 1,21,22
 1853 1111 1853 1111 2032 1094 c 1,23,24
 2030 507 2030 507 2039 335.5 c 128,-1,25
 2048 164 2048 164 2082 -3 c 1,0,-1
EndSplineSet
Validated: 33
EndChar

StartChar: uni1DC8
Encoding: 7624 7624 716
Width: 1789
Flags: W
LayerCount: 2
Fore
SplineSet
1621 23 m 1,0,-1
 1385 -47 l 1,1,-1
 1364 51 l 1,2,3
 1110 261 1110 261 781 524.5 c 128,-1,4
 452 788 452 788 439 737 c 1,5,6
 458 323 458 323 439 40 c 1,7,-1
 180 -27 l 1,8,9
 210 458 210 458 187 1128 c 1,10,-1
 441 1119 l 1,11,-1
 441 955 l 1,12,13
 1167 359 1167 359 1365 299 c 1,14,15
 1358 571 1358 571 1397 1084 c 1,16,-1
 1643 1102 l 1,17,18
 1583 574 1583 574 1621 23 c 1,0,-1
EndSplineSet
Validated: 33
EndChar

StartChar: uni1DC9
Encoding: 7625 7625 717
Width: 1644
Flags: W
LayerCount: 2
Fore
SplineSet
1274 152 m 128,-1,1
 1036 -12 1036 -12 763 -12 c 128,-1,2
 490 -12 490 -12 314 138.5 c 128,-1,3
 138 289 138 289 138 619 c 128,-1,4
 138 949 138 949 350 1053.5 c 128,-1,5
 562 1158 562 1158 839.5 1158 c 128,-1,6
 1117 1158 1117 1158 1314.5 1023 c 128,-1,7
 1512 888 1512 888 1512 602 c 128,-1,0
 1512 316 1512 316 1274 152 c 128,-1,1
1177 799 m 128,-1,9
 1120 979 1120 979 915.5 1031 c 128,-1,10
 711 1083 711 1083 586.5 1001.5 c 128,-1,11
 462 920 462 920 463.5 631 c 128,-1,12
 465 342 465 342 569 199 c 128,-1,13
 673 56 673 56 827.5 71 c 128,-1,14
 982 86 982 86 1069.5 144 c 128,-1,15
 1157 202 1157 202 1195.5 410.5 c 128,-1,8
 1234 619 1234 619 1177 799 c 128,-1,9
EndSplineSet
Validated: 33
EndChar

StartChar: uni1DCA
Encoding: 7626 7626 718
Width: 2025
Flags: W
LayerCount: 2
Fore
SplineSet
1545.5 1061.5 m 128,-1,1
 1773 1102 1773 1102 1764.5 1039.5 c 128,-1,2
 1756 977 1756 977 1634 974 c 1,3,-1
 1474 964 l 1,4,5
 1472 423 1472 423 1518 -85 c 1,6,7
 1389 -94 1389 -94 1257 -52 c 1,8,-1
 1207 950 l 1,9,10
 1046 956 1046 956 399 931 c 1,11,12
 451 336 451 336 402 -4 c 1,13,-1
 144 -26 l 1,14,15
 143 373 143 373 140 922 c 1,16,-1
 6 936 l 2,17,18
 -126 946 -126 946 -101 1000 c 128,-1,19
 -76 1054 -76 1054 59 1031 c 1,20,0
 1318 1021 1318 1021 1545.5 1061.5 c 128,-1,1
EndSplineSet
Validated: 33
EndChar

StartChar: uni1DCB
Encoding: 7627 7627 719
Width: 1732
Flags: W
LayerCount: 2
Fore
SplineSet
1372.5 137 m 128,-1,1
 1120 -30 1120 -30 829.5 -30 c 128,-1,2
 539 -30 539 -30 352.5 123.5 c 128,-1,3
 166 277 166 277 166 612.5 c 128,-1,4
 166 948 166 948 391 1054 c 128,-1,5
 616 1160 616 1160 910.5 1160 c 128,-1,6
 1205 1160 1205 1160 1415 1023 c 128,-1,7
 1625 886 1625 886 1625 595 c 128,-1,0
 1625 304 1625 304 1372.5 137 c 128,-1,1
1288 795 m 128,-1,9
 1226 989 1226 989 1038 1037 c 128,-1,10
 850 1085 850 1085 662.5 1023 c 128,-1,11
 475 961 475 961 444 693 c 1,12,13
 863 675 863 675 1351 678 c 1,14,-1
 1346 584 l 1,15,16
 797 563 797 563 443 578 c 1,17,18
 441 336 441 336 570 206.5 c 128,-1,19
 699 77 699 77 878 82 c 128,-1,20
 1057 87 1057 87 1161.5 161 c 128,-1,21
 1266 235 1266 235 1308 418 c 128,-1,8
 1350 601 1350 601 1288 795 c 128,-1,9
EndSplineSet
Validated: 41
EndChar

StartChar: uni1DCC
Encoding: 7628 7628 720
Width: 1320
Flags: W
LayerCount: 2
Fore
SplineSet
1081 632 m 128,-1,1
 909 460 909 460 521 464 c 1,2,-1
 540 572 l 1,3,4
 952 542 952 542 934.5 787.5 c 128,-1,5
 917 1033 917 1033 726.5 1084 c 128,-1,6
 536 1135 536 1135 526 1063 c 1,7,-1
 512 -70 l 1,8,-1
 526 -323 l 1,9,10
 415 -396 415 -396 196 -331 c 1,11,12
 272 194 272 194 255 927 c 0,13,14
 246 1181 246 1181 344 1232 c 1,15,16
 709 1272 709 1272 865 1234 c 128,-1,17
 1021 1196 1021 1196 1140 1013 c 1,18,0
 1253 804 1253 804 1081 632 c 128,-1,1
EndSplineSet
Validated: 33
EndChar

StartChar: uni1DCD
Encoding: 7629 7629 721
Width: 1578
Flags: W
LayerCount: 2
Fore
SplineSet
1479 974 m 1,0,1
 1443 905 1443 905 1399 899.5 c 128,-1,2
 1355 894 1355 894 1212 989 c 1,3,4
 1129 1050 1129 1050 901 1089 c 1,5,6
 588 1094 588 1094 530 920 c 128,-1,7
 472 746 472 746 477 604.5 c 128,-1,8
 482 463 482 463 526 327 c 128,-1,9
 570 191 570 191 698 132 c 128,-1,10
 826 73 826 73 952.5 77.5 c 128,-1,11
 1079 82 1079 82 1210 109 c 1,12,13
 1407 203 1407 203 1395 107.5 c 128,-1,14
 1383 12 1383 12 1137 -17 c 1,15,16
 382 -76 382 -76 252.5 154 c 128,-1,17
 123 384 123 384 168 720.5 c 128,-1,18
 213 1057 213 1057 488 1158 c 128,-1,19
 763 1259 763 1259 1120 1187 c 128,-1,20
 1477 1115 1477 1115 1479 974 c 1,0,1
EndSplineSet
Validated: 33
EndChar

StartChar: uni1DCE
Encoding: 7630 7630 722
Width: 1970
Flags: W
LayerCount: 2
Fore
SplineSet
1495 1047 m 1,1,2
 1271 1059 1271 1059 1205.5 1051.5 c 128,-1,3
 1140 1044 1140 1044 1115 890 c 1,4,-1
 1114 -17 l 1,5,6
 1027 -76 1027 -76 831 -39 c 1,7,-1
 851 1039 l 1,8,9
 784 1058 784 1058 454 1046 c 1,10,11
 192 952 192 952 139 1067 c 1,12,-1
 142 1138 l 1,13,-1
 243 1158 l 1,14,-1
 1707 1152 l 1,15,16
 1932 1160 1932 1160 1876.5 1069.5 c 128,-1,0
 1821 979 1821 979 1495 1047 c 1,1,2
EndSplineSet
Validated: 33
EndChar

StartChar: uni1DCF
Encoding: 7631 7631 723
Width: 1803
Flags: W
LayerCount: 2
Fore
SplineSet
1450 1151 m 1,0,-1
 1702 1136 l 1,1,2
 1502 1002 1502 1002 1347 879 c 1,3,4
 1112 604 1112 604 1012 441 c 1,5,-1
 1006 -541 l 1,6,-1
 736 -562 l 1,7,-1
 736 466 l 1,8,-1
 573 736 l 1,9,10
 324 1034 324 1034 84 1113 c 1,11,-1
 206 1213 l 1,12,13
 277 1227 277 1227 384 1163 c 1,14,15
 688 873 688 873 899 590 c 1,16,17
 1388 1221 1388 1221 1450 1151 c 1,0,-1
EndSplineSet
Validated: 33
EndChar

StartChar: uni1DD0
Encoding: 7632 7632 724
Width: 1578
Flags: W
LayerCount: 2
Fore
SplineSet
1479 974 m 1,0,1
 1443 905 1443 905 1399 899.5 c 128,-1,2
 1355 894 1355 894 1212 989 c 1,3,4
 1129 1050 1129 1050 901 1089 c 1,5,6
 588 1094 588 1094 530 920 c 128,-1,7
 472 746 472 746 477 604.5 c 128,-1,8
 482 463 482 463 526 327 c 128,-1,9
 570 191 570 191 698 132 c 128,-1,10
 826 73 826 73 952.5 77.5 c 128,-1,11
 1079 82 1079 82 1210 109 c 1,12,13
 1407 203 1407 203 1395 107.5 c 128,-1,14
 1383 12 1383 12 1137 -17 c 1,15,16
 382 -76 382 -76 252.5 154 c 128,-1,17
 123 384 123 384 168 720.5 c 128,-1,18
 213 1057 213 1057 488 1158 c 128,-1,19
 763 1259 763 1259 1120 1187 c 128,-1,20
 1477 1115 1477 1115 1479 974 c 1,0,1
EndSplineSet
Validated: 33
EndChar

StartChar: uni1DD1
Encoding: 7633 7633 725
Width: 2910
Flags: W
LayerCount: 2
Fore
SplineSet
2460 137 m 128,-1,1
 2238 -8 2238 -8 1981 -8 c 128,-1,2
 1724 -8 1724 -8 1656 76 c 128,-1,3
 1588 160 1588 160 1548 137 c 1,4,5
 1345 91 1345 91 1214 44.5 c 128,-1,6
 1083 -2 1083 -2 843 -11 c 128,-1,7
 603 -20 603 -20 440.5 93 c 128,-1,8
 278 206 278 206 229.5 504 c 128,-1,9
 181 802 181 802 338 948 c 128,-1,10
 495 1094 495 1094 766 1185 c 1,11,12
 938 1204 938 1204 855 1067 c 1,13,14
 490 807 490 807 547.5 536.5 c 128,-1,15
 605 266 605 266 761 156.5 c 128,-1,16
 917 47 917 47 1131 105.5 c 128,-1,17
 1345 164 1345 164 1403 236 c 1,18,-1
 1407 678 l 1,19,-1
 1414 1071 l 1,20,21
 1504 1141 1504 1141 1692 1082 c 1,22,23
 1654 714 1654 714 1739 279 c 1,24,25
 1841 94 1841 94 2060 111.5 c 128,-1,26
 2279 129 2279 129 2347 270.5 c 128,-1,27
 2415 412 2415 412 2437 526.5 c 128,-1,28
 2459 641 2459 641 2422.5 788 c 128,-1,29
 2386 935 2386 935 2178 991 c 128,-1,30
 1970 1047 1970 1047 2079 1150 c 1,31,32
 2288 1143 2288 1143 2477 1089 c 1,33,34
 2772 887 2772 887 2727 584.5 c 128,-1,0
 2682 282 2682 282 2460 137 c 128,-1,1
EndSplineSet
Validated: 33
EndChar

StartChar: uni1DD2
Encoding: 7634 7634 726
Width: 1899
Flags: W
LayerCount: 2
Fore
SplineSet
1615 -37 m 128,-1,1
 1529 -41 1529 -41 1423.5 -33.5 c 128,-1,2
 1318 -26 1318 -26 1250 40 c 1,3,-1
 959 503 l 1,4,5
 818 410 818 410 500 166 c 1,6,7
 276 -15 276 -15 156 -3 c 0,8,9
 69 3 69 3 74.5 42.5 c 128,-1,10
 80 82 80 82 396 282 c 1,11,12
 632 410 632 410 875 618 c 1,13,-1
 472 1221 l 1,14,15
 547 1283 547 1283 754 1249 c 1,16,-1
 1066 768 l 1,17,-1
 1580 1209 l 1,18,19
 1696 1237 1696 1237 1749 1209 c 128,-1,20
 1802 1181 1802 1181 1722.5 1110 c 128,-1,21
 1643 1039 1643 1039 1459 926 c 1,22,-1
 1133 673 l 1,23,24
 1473 143 1473 143 1587 55 c 128,-1,0
 1701 -33 1701 -33 1615 -37 c 128,-1,1
EndSplineSet
Validated: 33
EndChar

StartChar: uni1DD3
Encoding: 7635 7635 727
Width: 1927
Flags: W
LayerCount: 2
Fore
SplineSet
1590 1167 m 1,0,1
 1983 1258 1983 1258 1690 1019 c 1,2,3
 1215 547 1215 547 1050 355 c 1,4,-1
 1051 -227 l 1,5,-1
 799 -219 l 1,6,-1
 801 337 l 1,7,-1
 129 1122 l 1,8,-1
 157 1171 l 1,9,10
 336 1148 336 1148 429 1092 c 1,11,-1
 810 555 l 1,12,-1
 804 1360 l 1,13,-1
 1027 1279 l 1,14,-1
 1035 543 l 1,15,16
 1477 990 1477 990 1590 1167 c 1,0,1
EndSplineSet
Validated: 33
EndChar

StartChar: uni1DD4
Encoding: 7636 7636 728
Width: 2124
Flags: W
LayerCount: 2
Fore
SplineSet
2018.5 1052 m 128,-1,1
 1924 934 1924 934 1751 941 c 1,2,-1
 1652 879 l 1,3,4
 1400 577 1400 577 1002 253 c 1,5,6
 1327 219 1327 219 1646 141 c 1,7,8
 1892 52 1892 52 1856 -38.5 c 128,-1,9
 1820 -129 1820 -129 1714 -103 c 128,-1,10
 1608 -77 1608 -77 1460 20 c 1,11,12
 1167 120 1167 120 671 36 c 1,13,14
 65 -168 65 -168 85 -48.5 c 128,-1,15
 105 71 105 71 258 146.5 c 128,-1,16
 411 222 411 222 591 250 c 1,17,18
 1036 521 1036 521 1427 955 c 1,19,20
 1234 994 1234 994 641 985 c 1,21,22
 362 894 362 894 159 971 c 1,23,24
 196 1106 196 1106 348 1123.5 c 128,-1,25
 500 1141 500 1141 801 1127 c 128,-1,26
 1102 1113 1102 1113 1306.5 1109 c 128,-1,27
 1511 1105 1511 1105 1684 1161 c 128,-1,28
 1857 1217 1857 1217 1985 1193.5 c 128,-1,0
 2113 1170 2113 1170 2018.5 1052 c 128,-1,1
EndSplineSet
Validated: 33
EndChar

StartChar: uni1F20
Encoding: 7968 7968 729
Width: 1607
Flags: W
LayerCount: 2
Fore
SplineSet
1446 -7 m 1,0,-1
 1208 -11 l 1,1,-1
 1179 562 l 1,2,3
 840 571 840 571 441 576 c 1,4,-1
 435 -11 l 1,5,-1
 189 -7 l 1,6,7
 219 598 219 598 189 1203 c 1,8,-1
 440 1204 l 1,9,-1
 447 678 l 1,10,11
 850 681 850 681 1179 656 c 1,12,-1
 1199 1236 l 1,13,-1
 1446 1226 l 1,14,15
 1410 584 1410 584 1446 -7 c 1,0,-1
EndSplineSet
Validated: 33
EndChar

StartChar: uni1F21
Encoding: 7969 7969 730
Width: 1607
Flags: W
LayerCount: 2
Fore
SplineSet
1446 -7 m 1,0,-1
 1208 -11 l 1,1,-1
 1179 562 l 1,2,3
 840 571 840 571 441 576 c 1,4,-1
 435 -11 l 1,5,-1
 189 -7 l 1,6,7
 219 598 219 598 189 1203 c 1,8,-1
 440 1204 l 1,9,-1
 447 678 l 1,10,11
 850 681 850 681 1179 656 c 1,12,-1
 1199 1236 l 1,13,-1
 1446 1226 l 1,14,15
 1410 584 1410 584 1446 -7 c 1,0,-1
EndSplineSet
Validated: 33
EndChar

StartChar: uni1F22
Encoding: 7970 7970 731
Width: 1607
Flags: W
LayerCount: 2
Fore
SplineSet
1446 -7 m 1,0,-1
 1208 -11 l 1,1,-1
 1179 562 l 1,2,3
 840 571 840 571 441 576 c 1,4,-1
 435 -11 l 1,5,-1
 189 -7 l 1,6,7
 219 598 219 598 189 1203 c 1,8,-1
 440 1204 l 1,9,-1
 447 678 l 1,10,11
 850 681 850 681 1179 656 c 1,12,-1
 1199 1236 l 1,13,-1
 1446 1226 l 1,14,15
 1410 584 1410 584 1446 -7 c 1,0,-1
EndSplineSet
Validated: 33
EndChar

StartChar: uni1F23
Encoding: 7971 7971 732
Width: 1607
Flags: W
LayerCount: 2
Fore
SplineSet
1446 -7 m 1,0,-1
 1208 -11 l 1,1,-1
 1179 562 l 1,2,3
 840 571 840 571 441 576 c 1,4,-1
 435 -11 l 1,5,-1
 189 -7 l 1,6,7
 219 598 219 598 189 1203 c 1,8,-1
 440 1204 l 1,9,-1
 447 678 l 1,10,11
 850 681 850 681 1179 656 c 1,12,-1
 1199 1236 l 1,13,-1
 1446 1226 l 1,14,15
 1410 584 1410 584 1446 -7 c 1,0,-1
EndSplineSet
Validated: 33
EndChar

StartChar: uni1F24
Encoding: 7972 7972 733
Width: 1607
Flags: W
LayerCount: 2
Fore
SplineSet
1446 -7 m 1,0,-1
 1208 -11 l 1,1,-1
 1179 562 l 1,2,3
 840 571 840 571 441 576 c 1,4,-1
 435 -11 l 1,5,-1
 189 -7 l 1,6,7
 219 598 219 598 189 1203 c 1,8,-1
 440 1204 l 1,9,-1
 447 678 l 1,10,11
 850 681 850 681 1179 656 c 1,12,-1
 1199 1236 l 1,13,-1
 1446 1226 l 1,14,15
 1410 584 1410 584 1446 -7 c 1,0,-1
EndSplineSet
Validated: 33
EndChar

StartChar: uni1F25
Encoding: 7973 7973 734
Width: 1607
Flags: W
LayerCount: 2
Fore
SplineSet
1446 -7 m 1,0,-1
 1208 -11 l 1,1,-1
 1179 562 l 1,2,3
 840 571 840 571 441 576 c 1,4,-1
 435 -11 l 1,5,-1
 189 -7 l 1,6,7
 219 598 219 598 189 1203 c 1,8,-1
 440 1204 l 1,9,-1
 447 678 l 1,10,11
 850 681 850 681 1179 656 c 1,12,-1
 1199 1236 l 1,13,-1
 1446 1226 l 1,14,15
 1410 584 1410 584 1446 -7 c 1,0,-1
EndSplineSet
Validated: 33
EndChar

StartChar: uni1F26
Encoding: 7974 7974 735
Width: 1607
Flags: W
LayerCount: 2
Fore
SplineSet
1446 -7 m 1,0,-1
 1208 -11 l 1,1,-1
 1179 562 l 1,2,3
 840 571 840 571 441 576 c 1,4,-1
 435 -11 l 1,5,-1
 189 -7 l 1,6,7
 219 598 219 598 189 1203 c 1,8,-1
 440 1204 l 1,9,-1
 447 678 l 1,10,11
 850 681 850 681 1179 656 c 1,12,-1
 1199 1236 l 1,13,-1
 1446 1226 l 1,14,15
 1410 584 1410 584 1446 -7 c 1,0,-1
EndSplineSet
Validated: 33
EndChar

StartChar: uni1F27
Encoding: 7975 7975 736
Width: 1607
Flags: W
LayerCount: 2
Fore
SplineSet
1446 -7 m 1,0,-1
 1208 -11 l 1,1,-1
 1179 562 l 1,2,3
 840 571 840 571 441 576 c 1,4,-1
 435 -11 l 1,5,-1
 189 -7 l 1,6,7
 219 598 219 598 189 1203 c 1,8,-1
 440 1204 l 1,9,-1
 447 678 l 1,10,11
 850 681 850 681 1179 656 c 1,12,-1
 1199 1236 l 1,13,-1
 1446 1226 l 1,14,15
 1410 584 1410 584 1446 -7 c 1,0,-1
EndSplineSet
Validated: 33
EndChar

StartChar: uni1F28
Encoding: 7976 7976 737
Width: 1607
Flags: W
LayerCount: 2
Fore
SplineSet
1446 -7 m 1,0,-1
 1208 -11 l 1,1,-1
 1179 562 l 1,2,3
 840 571 840 571 441 576 c 1,4,-1
 435 -11 l 1,5,-1
 189 -7 l 1,6,7
 219 598 219 598 189 1203 c 1,8,-1
 440 1204 l 1,9,-1
 447 678 l 1,10,11
 850 681 850 681 1179 656 c 1,12,-1
 1199 1236 l 1,13,-1
 1446 1226 l 1,14,15
 1410 584 1410 584 1446 -7 c 1,0,-1
EndSplineSet
Validated: 33
EndChar

StartChar: uni1F29
Encoding: 7977 7977 738
Width: 1607
Flags: W
LayerCount: 2
Fore
SplineSet
1446 -7 m 1,0,-1
 1208 -11 l 1,1,-1
 1179 562 l 1,2,3
 840 571 840 571 441 576 c 1,4,-1
 435 -11 l 1,5,-1
 189 -7 l 1,6,7
 219 598 219 598 189 1203 c 1,8,-1
 440 1204 l 1,9,-1
 447 678 l 1,10,11
 850 681 850 681 1179 656 c 1,12,-1
 1199 1236 l 1,13,-1
 1446 1226 l 1,14,15
 1410 584 1410 584 1446 -7 c 1,0,-1
EndSplineSet
Validated: 33
EndChar

StartChar: uni1F2A
Encoding: 7978 7978 739
Width: 1607
Flags: W
LayerCount: 2
Fore
SplineSet
1446 -7 m 1,0,-1
 1208 -11 l 1,1,-1
 1179 562 l 1,2,3
 840 571 840 571 441 576 c 1,4,-1
 435 -11 l 1,5,-1
 189 -7 l 1,6,7
 219 598 219 598 189 1203 c 1,8,-1
 440 1204 l 1,9,-1
 447 678 l 1,10,11
 850 681 850 681 1179 656 c 1,12,-1
 1199 1236 l 1,13,-1
 1446 1226 l 1,14,15
 1410 584 1410 584 1446 -7 c 1,0,-1
EndSplineSet
Validated: 33
EndChar

StartChar: uni1F2B
Encoding: 7979 7979 740
Width: 1607
Flags: W
LayerCount: 2
Fore
SplineSet
1446 -7 m 1,0,-1
 1208 -11 l 1,1,-1
 1179 562 l 1,2,3
 840 571 840 571 441 576 c 1,4,-1
 435 -11 l 1,5,-1
 189 -7 l 1,6,7
 219 598 219 598 189 1203 c 1,8,-1
 440 1204 l 1,9,-1
 447 678 l 1,10,11
 850 681 850 681 1179 656 c 1,12,-1
 1199 1236 l 1,13,-1
 1446 1226 l 1,14,15
 1410 584 1410 584 1446 -7 c 1,0,-1
EndSplineSet
Validated: 33
EndChar

StartChar: uni1F2C
Encoding: 7980 7980 741
Width: 1607
Flags: W
LayerCount: 2
Fore
SplineSet
1446 -7 m 1,0,-1
 1208 -11 l 1,1,-1
 1179 562 l 1,2,3
 840 571 840 571 441 576 c 1,4,-1
 435 -11 l 1,5,-1
 189 -7 l 1,6,7
 219 598 219 598 189 1203 c 1,8,-1
 440 1204 l 1,9,-1
 447 678 l 1,10,11
 850 681 850 681 1179 656 c 1,12,-1
 1199 1236 l 1,13,-1
 1446 1226 l 1,14,15
 1410 584 1410 584 1446 -7 c 1,0,-1
EndSplineSet
Validated: 33
EndChar

StartChar: uni1F2D
Encoding: 7981 7981 742
Width: 1607
Flags: W
LayerCount: 2
Fore
SplineSet
1446 -7 m 1,0,-1
 1208 -11 l 1,1,-1
 1179 562 l 1,2,3
 840 571 840 571 441 576 c 1,4,-1
 435 -11 l 1,5,-1
 189 -7 l 1,6,7
 219 598 219 598 189 1203 c 1,8,-1
 440 1204 l 1,9,-1
 447 678 l 1,10,11
 850 681 850 681 1179 656 c 1,12,-1
 1199 1236 l 1,13,-1
 1446 1226 l 1,14,15
 1410 584 1410 584 1446 -7 c 1,0,-1
EndSplineSet
Validated: 33
EndChar

StartChar: uni1F2E
Encoding: 7982 7982 743
Width: 1607
Flags: W
LayerCount: 2
Fore
SplineSet
1446 -7 m 1,0,-1
 1208 -11 l 1,1,-1
 1179 562 l 1,2,3
 840 571 840 571 441 576 c 1,4,-1
 435 -11 l 1,5,-1
 189 -7 l 1,6,7
 219 598 219 598 189 1203 c 1,8,-1
 440 1204 l 1,9,-1
 447 678 l 1,10,11
 850 681 850 681 1179 656 c 1,12,-1
 1199 1236 l 1,13,-1
 1446 1226 l 1,14,15
 1410 584 1410 584 1446 -7 c 1,0,-1
EndSplineSet
Validated: 33
EndChar

StartChar: uni1F2F
Encoding: 7983 7983 744
Width: 1607
Flags: W
LayerCount: 2
Fore
SplineSet
1446 -7 m 1,0,-1
 1208 -11 l 1,1,-1
 1179 562 l 1,2,3
 840 571 840 571 441 576 c 1,4,-1
 435 -11 l 1,5,-1
 189 -7 l 1,6,7
 219 598 219 598 189 1203 c 1,8,-1
 440 1204 l 1,9,-1
 447 678 l 1,10,11
 850 681 850 681 1179 656 c 1,12,-1
 1199 1236 l 1,13,-1
 1446 1226 l 1,14,15
 1410 584 1410 584 1446 -7 c 1,0,-1
EndSplineSet
Validated: 33
EndChar

StartChar: uni1F30
Encoding: 7984 7984 745
Width: 780
Flags: W
LayerCount: 2
Fore
SplineSet
553 38 m 1,0,1
 540 -11 540 -11 373.5 -4.5 c 128,-1,2
 207 2 207 2 256 155 c 1,3,4
 261 577 261 577 257 1003 c 1,5,6
 229 1176 229 1176 322 1176 c 2,7,-1
 529 1181 l 1,8,9
 565 1149 565 1149 564 858.5 c 128,-1,10
 563 568 563 568 553 38 c 1,0,1
EndSplineSet
Validated: 33
EndChar

StartChar: uni1F31
Encoding: 7985 7985 746
Width: 780
Flags: W
LayerCount: 2
Fore
SplineSet
553 38 m 1,0,1
 540 -11 540 -11 373.5 -4.5 c 128,-1,2
 207 2 207 2 256 155 c 1,3,4
 261 577 261 577 257 1003 c 1,5,6
 229 1176 229 1176 322 1176 c 2,7,-1
 529 1181 l 1,8,9
 565 1149 565 1149 564 858.5 c 128,-1,10
 563 568 563 568 553 38 c 1,0,1
EndSplineSet
Validated: 33
EndChar

StartChar: uni1F32
Encoding: 7986 7986 747
Width: 780
Flags: W
LayerCount: 2
Fore
SplineSet
553 38 m 1,0,1
 540 -11 540 -11 373.5 -4.5 c 128,-1,2
 207 2 207 2 256 155 c 1,3,4
 261 577 261 577 257 1003 c 1,5,6
 229 1176 229 1176 322 1176 c 2,7,-1
 529 1181 l 1,8,9
 565 1149 565 1149 564 858.5 c 128,-1,10
 563 568 563 568 553 38 c 1,0,1
EndSplineSet
Validated: 33
EndChar

StartChar: uni1F33
Encoding: 7987 7987 748
Width: 780
Flags: W
LayerCount: 2
Fore
SplineSet
553 38 m 1,0,1
 540 -11 540 -11 373.5 -4.5 c 128,-1,2
 207 2 207 2 256 155 c 1,3,4
 261 577 261 577 257 1003 c 1,5,6
 229 1176 229 1176 322 1176 c 2,7,-1
 529 1181 l 1,8,9
 565 1149 565 1149 564 858.5 c 128,-1,10
 563 568 563 568 553 38 c 1,0,1
EndSplineSet
Validated: 33
EndChar

StartChar: uni1F34
Encoding: 7988 7988 749
Width: 780
Flags: W
LayerCount: 2
Fore
SplineSet
553 38 m 1,0,1
 540 -11 540 -11 373.5 -4.5 c 128,-1,2
 207 2 207 2 256 155 c 1,3,4
 261 577 261 577 257 1003 c 1,5,6
 229 1176 229 1176 322 1176 c 2,7,-1
 529 1181 l 1,8,9
 565 1149 565 1149 564 858.5 c 128,-1,10
 563 568 563 568 553 38 c 1,0,1
EndSplineSet
Validated: 33
EndChar

StartChar: uni1F35
Encoding: 7989 7989 750
Width: 780
Flags: W
LayerCount: 2
Fore
SplineSet
553 38 m 1,0,1
 540 -11 540 -11 373.5 -4.5 c 128,-1,2
 207 2 207 2 256 155 c 1,3,4
 261 577 261 577 257 1003 c 1,5,6
 229 1176 229 1176 322 1176 c 2,7,-1
 529 1181 l 1,8,9
 565 1149 565 1149 564 858.5 c 128,-1,10
 563 568 563 568 553 38 c 1,0,1
EndSplineSet
Validated: 33
EndChar

StartChar: uni1F36
Encoding: 7990 7990 751
Width: 780
Flags: W
LayerCount: 2
Fore
SplineSet
553 38 m 1,0,1
 540 -11 540 -11 373.5 -4.5 c 128,-1,2
 207 2 207 2 256 155 c 1,3,4
 261 577 261 577 257 1003 c 1,5,6
 229 1176 229 1176 322 1176 c 2,7,-1
 529 1181 l 1,8,9
 565 1149 565 1149 564 858.5 c 128,-1,10
 563 568 563 568 553 38 c 1,0,1
EndSplineSet
Validated: 33
EndChar

StartChar: uni1F37
Encoding: 7991 7991 752
Width: 780
Flags: W
LayerCount: 2
Fore
SplineSet
553 38 m 1,0,1
 540 -11 540 -11 373.5 -4.5 c 128,-1,2
 207 2 207 2 256 155 c 1,3,4
 261 577 261 577 257 1003 c 1,5,6
 229 1176 229 1176 322 1176 c 2,7,-1
 529 1181 l 1,8,9
 565 1149 565 1149 564 858.5 c 128,-1,10
 563 568 563 568 553 38 c 1,0,1
EndSplineSet
Validated: 33
EndChar

StartChar: uni1F38
Encoding: 7992 7992 753
Width: 780
Flags: W
LayerCount: 2
Fore
SplineSet
553 38 m 1,0,1
 540 -11 540 -11 373.5 -4.5 c 128,-1,2
 207 2 207 2 256 155 c 1,3,4
 261 577 261 577 257 1003 c 1,5,6
 229 1176 229 1176 322 1176 c 2,7,-1
 529 1181 l 1,8,9
 565 1149 565 1149 564 858.5 c 128,-1,10
 563 568 563 568 553 38 c 1,0,1
EndSplineSet
Validated: 33
EndChar

StartChar: uni1F39
Encoding: 7993 7993 754
Width: 780
Flags: W
LayerCount: 2
Fore
SplineSet
553 38 m 1,0,1
 540 -11 540 -11 373.5 -4.5 c 128,-1,2
 207 2 207 2 256 155 c 1,3,4
 261 577 261 577 257 1003 c 1,5,6
 229 1176 229 1176 322 1176 c 2,7,-1
 529 1181 l 1,8,9
 565 1149 565 1149 564 858.5 c 128,-1,10
 563 568 563 568 553 38 c 1,0,1
EndSplineSet
Validated: 33
EndChar

StartChar: uni1F3A
Encoding: 7994 7994 755
Width: 780
Flags: W
LayerCount: 2
Fore
SplineSet
553 38 m 1,0,1
 540 -11 540 -11 373.5 -4.5 c 128,-1,2
 207 2 207 2 256 155 c 1,3,4
 261 577 261 577 257 1003 c 1,5,6
 229 1176 229 1176 322 1176 c 2,7,-1
 529 1181 l 1,8,9
 565 1149 565 1149 564 858.5 c 128,-1,10
 563 568 563 568 553 38 c 1,0,1
EndSplineSet
Validated: 33
EndChar

StartChar: uni1F3B
Encoding: 7995 7995 756
Width: 780
Flags: W
LayerCount: 2
Fore
SplineSet
553 38 m 1,0,1
 540 -11 540 -11 373.5 -4.5 c 128,-1,2
 207 2 207 2 256 155 c 1,3,4
 261 577 261 577 257 1003 c 1,5,6
 229 1176 229 1176 322 1176 c 2,7,-1
 529 1181 l 1,8,9
 565 1149 565 1149 564 858.5 c 128,-1,10
 563 568 563 568 553 38 c 1,0,1
EndSplineSet
Validated: 33
EndChar

StartChar: uni1F3C
Encoding: 7996 7996 757
Width: 780
Flags: W
LayerCount: 2
Fore
SplineSet
553 38 m 1,0,1
 540 -11 540 -11 373.5 -4.5 c 128,-1,2
 207 2 207 2 256 155 c 1,3,4
 261 577 261 577 257 1003 c 1,5,6
 229 1176 229 1176 322 1176 c 2,7,-1
 529 1181 l 1,8,9
 565 1149 565 1149 564 858.5 c 128,-1,10
 563 568 563 568 553 38 c 1,0,1
EndSplineSet
Validated: 33
EndChar

StartChar: uni1F3D
Encoding: 7997 7997 758
Width: 780
Flags: W
LayerCount: 2
Fore
SplineSet
553 38 m 1,0,1
 540 -11 540 -11 373.5 -4.5 c 128,-1,2
 207 2 207 2 256 155 c 1,3,4
 261 577 261 577 257 1003 c 1,5,6
 229 1176 229 1176 322 1176 c 2,7,-1
 529 1181 l 1,8,9
 565 1149 565 1149 564 858.5 c 128,-1,10
 563 568 563 568 553 38 c 1,0,1
EndSplineSet
Validated: 33
EndChar

StartChar: uni1F3E
Encoding: 7998 7998 759
Width: 780
Flags: W
LayerCount: 2
Fore
SplineSet
553 38 m 1,0,1
 540 -11 540 -11 373.5 -4.5 c 128,-1,2
 207 2 207 2 256 155 c 1,3,4
 261 577 261 577 257 1003 c 1,5,6
 229 1176 229 1176 322 1176 c 2,7,-1
 529 1181 l 1,8,9
 565 1149 565 1149 564 858.5 c 128,-1,10
 563 568 563 568 553 38 c 1,0,1
EndSplineSet
Validated: 33
EndChar

StartChar: uni1F3F
Encoding: 7999 7999 760
Width: 780
Flags: W
LayerCount: 2
Fore
SplineSet
553 38 m 1,0,1
 540 -11 540 -11 373.5 -4.5 c 128,-1,2
 207 2 207 2 256 155 c 1,3,4
 261 577 261 577 257 1003 c 1,5,6
 229 1176 229 1176 322 1176 c 2,7,-1
 529 1181 l 1,8,9
 565 1149 565 1149 564 858.5 c 128,-1,10
 563 568 563 568 553 38 c 1,0,1
EndSplineSet
Validated: 33
EndChar

StartChar: uni1F52
Encoding: 8018 8018 761
Width: 1803
Flags: W
LayerCount: 2
Fore
SplineSet
1450 1151 m 1,0,-1
 1702 1136 l 1,1,2
 1502 1002 1502 1002 1347 879 c 1,3,4
 1112 604 1112 604 1012 441 c 1,5,-1
 1006 -541 l 1,6,-1
 736 -562 l 1,7,-1
 736 466 l 1,8,-1
 573 736 l 1,9,10
 324 1034 324 1034 84 1113 c 1,11,-1
 206 1213 l 1,12,13
 277 1227 277 1227 384 1163 c 1,14,15
 688 873 688 873 899 590 c 1,16,17
 1388 1221 1388 1221 1450 1151 c 1,0,-1
EndSplineSet
Validated: 33
EndChar

StartChar: uni1F53
Encoding: 8019 8019 762
Width: 1803
Flags: W
LayerCount: 2
Fore
SplineSet
1450 1151 m 1,0,-1
 1702 1136 l 1,1,2
 1502 1002 1502 1002 1347 879 c 1,3,4
 1112 604 1112 604 1012 441 c 1,5,-1
 1006 -541 l 1,6,-1
 736 -562 l 1,7,-1
 736 466 l 1,8,-1
 573 736 l 1,9,10
 324 1034 324 1034 84 1113 c 1,11,-1
 206 1213 l 1,12,13
 277 1227 277 1227 384 1163 c 1,14,15
 688 873 688 873 899 590 c 1,16,17
 1388 1221 1388 1221 1450 1151 c 1,0,-1
EndSplineSet
Validated: 33
EndChar

StartChar: uni1F54
Encoding: 8020 8020 763
Width: 1803
Flags: W
LayerCount: 2
Fore
SplineSet
1450 1151 m 1,0,-1
 1702 1136 l 1,1,2
 1502 1002 1502 1002 1347 879 c 1,3,4
 1112 604 1112 604 1012 441 c 1,5,-1
 1006 -541 l 1,6,-1
 736 -562 l 1,7,-1
 736 466 l 1,8,-1
 573 736 l 1,9,10
 324 1034 324 1034 84 1113 c 1,11,-1
 206 1213 l 1,12,13
 277 1227 277 1227 384 1163 c 1,14,15
 688 873 688 873 899 590 c 1,16,17
 1388 1221 1388 1221 1450 1151 c 1,0,-1
EndSplineSet
Validated: 33
EndChar

StartChar: uni1F55
Encoding: 8021 8021 764
Width: 1803
Flags: W
LayerCount: 2
Fore
SplineSet
1450 1151 m 1,0,-1
 1702 1136 l 1,1,2
 1502 1002 1502 1002 1347 879 c 1,3,4
 1112 604 1112 604 1012 441 c 1,5,-1
 1006 -541 l 1,6,-1
 736 -562 l 1,7,-1
 736 466 l 1,8,-1
 573 736 l 1,9,10
 324 1034 324 1034 84 1113 c 1,11,-1
 206 1213 l 1,12,13
 277 1227 277 1227 384 1163 c 1,14,15
 688 873 688 873 899 590 c 1,16,17
 1388 1221 1388 1221 1450 1151 c 1,0,-1
EndSplineSet
Validated: 33
EndChar

StartChar: uni1F56
Encoding: 8022 8022 765
Width: 1803
Flags: W
LayerCount: 2
Fore
SplineSet
1450 1151 m 1,0,-1
 1702 1136 l 1,1,2
 1502 1002 1502 1002 1347 879 c 1,3,4
 1112 604 1112 604 1012 441 c 1,5,-1
 1006 -541 l 1,6,-1
 736 -562 l 1,7,-1
 736 466 l 1,8,-1
 573 736 l 1,9,10
 324 1034 324 1034 84 1113 c 1,11,-1
 206 1213 l 1,12,13
 277 1227 277 1227 384 1163 c 1,14,15
 688 873 688 873 899 590 c 1,16,17
 1388 1221 1388 1221 1450 1151 c 1,0,-1
EndSplineSet
Validated: 33
EndChar

StartChar: uni1F57
Encoding: 8023 8023 766
Width: 1803
Flags: W
LayerCount: 2
Fore
SplineSet
1450 1151 m 1,0,-1
 1702 1136 l 1,1,2
 1502 1002 1502 1002 1347 879 c 1,3,4
 1112 604 1112 604 1012 441 c 1,5,-1
 1006 -541 l 1,6,-1
 736 -562 l 1,7,-1
 736 466 l 1,8,-1
 573 736 l 1,9,10
 324 1034 324 1034 84 1113 c 1,11,-1
 206 1213 l 1,12,13
 277 1227 277 1227 384 1163 c 1,14,15
 688 873 688 873 899 590 c 1,16,17
 1388 1221 1388 1221 1450 1151 c 1,0,-1
EndSplineSet
Validated: 33
EndChar

StartChar: uni1F59
Encoding: 8025 8025 767
Width: 1803
Flags: W
LayerCount: 2
Fore
SplineSet
1450 1151 m 1,0,-1
 1702 1136 l 1,1,2
 1502 1002 1502 1002 1347 879 c 1,3,4
 1112 604 1112 604 1012 441 c 1,5,-1
 1006 -541 l 1,6,-1
 736 -562 l 1,7,-1
 736 466 l 1,8,-1
 573 736 l 1,9,10
 324 1034 324 1034 84 1113 c 1,11,-1
 206 1213 l 1,12,13
 277 1227 277 1227 384 1163 c 1,14,15
 688 873 688 873 899 590 c 1,16,17
 1388 1221 1388 1221 1450 1151 c 1,0,-1
EndSplineSet
Validated: 33
EndChar

StartChar: uni1F5B
Encoding: 8027 8027 768
Width: 1803
Flags: W
LayerCount: 2
Fore
SplineSet
1450 1151 m 1,0,-1
 1702 1136 l 1,1,2
 1502 1002 1502 1002 1347 879 c 1,3,4
 1112 604 1112 604 1012 441 c 1,5,-1
 1006 -541 l 1,6,-1
 736 -562 l 1,7,-1
 736 466 l 1,8,-1
 573 736 l 1,9,10
 324 1034 324 1034 84 1113 c 1,11,-1
 206 1213 l 1,12,13
 277 1227 277 1227 384 1163 c 1,14,15
 688 873 688 873 899 590 c 1,16,17
 1388 1221 1388 1221 1450 1151 c 1,0,-1
EndSplineSet
Validated: 33
EndChar

StartChar: uni1F5D
Encoding: 8029 8029 769
Width: 1803
Flags: W
LayerCount: 2
Fore
SplineSet
1450 1151 m 1,0,-1
 1702 1136 l 1,1,2
 1502 1002 1502 1002 1347 879 c 1,3,4
 1112 604 1112 604 1012 441 c 1,5,-1
 1006 -541 l 1,6,-1
 736 -562 l 1,7,-1
 736 466 l 1,8,-1
 573 736 l 1,9,10
 324 1034 324 1034 84 1113 c 1,11,-1
 206 1213 l 1,12,13
 277 1227 277 1227 384 1163 c 1,14,15
 688 873 688 873 899 590 c 1,16,17
 1388 1221 1388 1221 1450 1151 c 1,0,-1
EndSplineSet
Validated: 33
EndChar

StartChar: uni1F5F
Encoding: 8031 8031 770
Width: 1803
Flags: W
LayerCount: 2
Fore
SplineSet
1450 1151 m 1,0,-1
 1702 1136 l 1,1,2
 1502 1002 1502 1002 1347 879 c 1,3,4
 1112 604 1112 604 1012 441 c 1,5,-1
 1006 -541 l 1,6,-1
 736 -562 l 1,7,-1
 736 466 l 1,8,-1
 573 736 l 1,9,10
 324 1034 324 1034 84 1113 c 1,11,-1
 206 1213 l 1,12,13
 277 1227 277 1227 384 1163 c 1,14,15
 688 873 688 873 899 590 c 1,16,17
 1388 1221 1388 1221 1450 1151 c 1,0,-1
EndSplineSet
Validated: 33
EndChar

StartChar: uni1F60
Encoding: 8032 8032 771
Width: 2910
Flags: W
LayerCount: 2
Fore
SplineSet
2460 137 m 128,-1,1
 2238 -8 2238 -8 1981 -8 c 128,-1,2
 1724 -8 1724 -8 1656 76 c 128,-1,3
 1588 160 1588 160 1548 137 c 1,4,5
 1345 91 1345 91 1214 44.5 c 128,-1,6
 1083 -2 1083 -2 843 -11 c 128,-1,7
 603 -20 603 -20 440.5 93 c 128,-1,8
 278 206 278 206 229.5 504 c 128,-1,9
 181 802 181 802 338 948 c 128,-1,10
 495 1094 495 1094 766 1185 c 1,11,12
 938 1204 938 1204 855 1067 c 1,13,14
 490 807 490 807 547.5 536.5 c 128,-1,15
 605 266 605 266 761 156.5 c 128,-1,16
 917 47 917 47 1131 105.5 c 128,-1,17
 1345 164 1345 164 1403 236 c 1,18,-1
 1407 678 l 1,19,-1
 1414 1071 l 1,20,21
 1504 1141 1504 1141 1692 1082 c 1,22,23
 1654 714 1654 714 1739 279 c 1,24,25
 1841 94 1841 94 2060 111.5 c 128,-1,26
 2279 129 2279 129 2347 270.5 c 128,-1,27
 2415 412 2415 412 2437 526.5 c 128,-1,28
 2459 641 2459 641 2422.5 788 c 128,-1,29
 2386 935 2386 935 2178 991 c 128,-1,30
 1970 1047 1970 1047 2079 1150 c 1,31,32
 2288 1143 2288 1143 2477 1089 c 1,33,34
 2772 887 2772 887 2727 584.5 c 128,-1,0
 2682 282 2682 282 2460 137 c 128,-1,1
EndSplineSet
Validated: 33
EndChar

StartChar: uni1F61
Encoding: 8033 8033 772
Width: 2910
Flags: W
LayerCount: 2
Fore
SplineSet
2460 137 m 128,-1,1
 2238 -8 2238 -8 1981 -8 c 128,-1,2
 1724 -8 1724 -8 1656 76 c 128,-1,3
 1588 160 1588 160 1548 137 c 1,4,5
 1345 91 1345 91 1214 44.5 c 128,-1,6
 1083 -2 1083 -2 843 -11 c 128,-1,7
 603 -20 603 -20 440.5 93 c 128,-1,8
 278 206 278 206 229.5 504 c 128,-1,9
 181 802 181 802 338 948 c 128,-1,10
 495 1094 495 1094 766 1185 c 1,11,12
 938 1204 938 1204 855 1067 c 1,13,14
 490 807 490 807 547.5 536.5 c 128,-1,15
 605 266 605 266 761 156.5 c 128,-1,16
 917 47 917 47 1131 105.5 c 128,-1,17
 1345 164 1345 164 1403 236 c 1,18,-1
 1407 678 l 1,19,-1
 1414 1071 l 1,20,21
 1504 1141 1504 1141 1692 1082 c 1,22,23
 1654 714 1654 714 1739 279 c 1,24,25
 1841 94 1841 94 2060 111.5 c 128,-1,26
 2279 129 2279 129 2347 270.5 c 128,-1,27
 2415 412 2415 412 2437 526.5 c 128,-1,28
 2459 641 2459 641 2422.5 788 c 128,-1,29
 2386 935 2386 935 2178 991 c 128,-1,30
 1970 1047 1970 1047 2079 1150 c 1,31,32
 2288 1143 2288 1143 2477 1089 c 1,33,34
 2772 887 2772 887 2727 584.5 c 128,-1,0
 2682 282 2682 282 2460 137 c 128,-1,1
EndSplineSet
Validated: 33
EndChar

StartChar: uni1F62
Encoding: 8034 8034 773
Width: 2910
Flags: W
LayerCount: 2
Fore
SplineSet
2460 137 m 128,-1,1
 2238 -8 2238 -8 1981 -8 c 128,-1,2
 1724 -8 1724 -8 1656 76 c 128,-1,3
 1588 160 1588 160 1548 137 c 1,4,5
 1345 91 1345 91 1214 44.5 c 128,-1,6
 1083 -2 1083 -2 843 -11 c 128,-1,7
 603 -20 603 -20 440.5 93 c 128,-1,8
 278 206 278 206 229.5 504 c 128,-1,9
 181 802 181 802 338 948 c 128,-1,10
 495 1094 495 1094 766 1185 c 1,11,12
 938 1204 938 1204 855 1067 c 1,13,14
 490 807 490 807 547.5 536.5 c 128,-1,15
 605 266 605 266 761 156.5 c 128,-1,16
 917 47 917 47 1131 105.5 c 128,-1,17
 1345 164 1345 164 1403 236 c 1,18,-1
 1407 678 l 1,19,-1
 1414 1071 l 1,20,21
 1504 1141 1504 1141 1692 1082 c 1,22,23
 1654 714 1654 714 1739 279 c 1,24,25
 1841 94 1841 94 2060 111.5 c 128,-1,26
 2279 129 2279 129 2347 270.5 c 128,-1,27
 2415 412 2415 412 2437 526.5 c 128,-1,28
 2459 641 2459 641 2422.5 788 c 128,-1,29
 2386 935 2386 935 2178 991 c 128,-1,30
 1970 1047 1970 1047 2079 1150 c 1,31,32
 2288 1143 2288 1143 2477 1089 c 1,33,34
 2772 887 2772 887 2727 584.5 c 128,-1,0
 2682 282 2682 282 2460 137 c 128,-1,1
EndSplineSet
Validated: 33
EndChar

StartChar: uni1F63
Encoding: 8035 8035 774
Width: 2910
Flags: W
LayerCount: 2
Fore
SplineSet
2460 137 m 128,-1,1
 2238 -8 2238 -8 1981 -8 c 128,-1,2
 1724 -8 1724 -8 1656 76 c 128,-1,3
 1588 160 1588 160 1548 137 c 1,4,5
 1345 91 1345 91 1214 44.5 c 128,-1,6
 1083 -2 1083 -2 843 -11 c 128,-1,7
 603 -20 603 -20 440.5 93 c 128,-1,8
 278 206 278 206 229.5 504 c 128,-1,9
 181 802 181 802 338 948 c 128,-1,10
 495 1094 495 1094 766 1185 c 1,11,12
 938 1204 938 1204 855 1067 c 1,13,14
 490 807 490 807 547.5 536.5 c 128,-1,15
 605 266 605 266 761 156.5 c 128,-1,16
 917 47 917 47 1131 105.5 c 128,-1,17
 1345 164 1345 164 1403 236 c 1,18,-1
 1407 678 l 1,19,-1
 1414 1071 l 1,20,21
 1504 1141 1504 1141 1692 1082 c 1,22,23
 1654 714 1654 714 1739 279 c 1,24,25
 1841 94 1841 94 2060 111.5 c 128,-1,26
 2279 129 2279 129 2347 270.5 c 128,-1,27
 2415 412 2415 412 2437 526.5 c 128,-1,28
 2459 641 2459 641 2422.5 788 c 128,-1,29
 2386 935 2386 935 2178 991 c 128,-1,30
 1970 1047 1970 1047 2079 1150 c 1,31,32
 2288 1143 2288 1143 2477 1089 c 1,33,34
 2772 887 2772 887 2727 584.5 c 128,-1,0
 2682 282 2682 282 2460 137 c 128,-1,1
EndSplineSet
Validated: 33
EndChar

StartChar: uni1F64
Encoding: 8036 8036 775
Width: 2910
Flags: W
LayerCount: 2
Fore
SplineSet
2460 137 m 128,-1,1
 2238 -8 2238 -8 1981 -8 c 128,-1,2
 1724 -8 1724 -8 1656 76 c 128,-1,3
 1588 160 1588 160 1548 137 c 1,4,5
 1345 91 1345 91 1214 44.5 c 128,-1,6
 1083 -2 1083 -2 843 -11 c 128,-1,7
 603 -20 603 -20 440.5 93 c 128,-1,8
 278 206 278 206 229.5 504 c 128,-1,9
 181 802 181 802 338 948 c 128,-1,10
 495 1094 495 1094 766 1185 c 1,11,12
 938 1204 938 1204 855 1067 c 1,13,14
 490 807 490 807 547.5 536.5 c 128,-1,15
 605 266 605 266 761 156.5 c 128,-1,16
 917 47 917 47 1131 105.5 c 128,-1,17
 1345 164 1345 164 1403 236 c 1,18,-1
 1407 678 l 1,19,-1
 1414 1071 l 1,20,21
 1504 1141 1504 1141 1692 1082 c 1,22,23
 1654 714 1654 714 1739 279 c 1,24,25
 1841 94 1841 94 2060 111.5 c 128,-1,26
 2279 129 2279 129 2347 270.5 c 128,-1,27
 2415 412 2415 412 2437 526.5 c 128,-1,28
 2459 641 2459 641 2422.5 788 c 128,-1,29
 2386 935 2386 935 2178 991 c 128,-1,30
 1970 1047 1970 1047 2079 1150 c 1,31,32
 2288 1143 2288 1143 2477 1089 c 1,33,34
 2772 887 2772 887 2727 584.5 c 128,-1,0
 2682 282 2682 282 2460 137 c 128,-1,1
EndSplineSet
Validated: 33
EndChar

StartChar: uni1F65
Encoding: 8037 8037 776
Width: 2910
Flags: W
LayerCount: 2
Fore
SplineSet
2460 137 m 128,-1,1
 2238 -8 2238 -8 1981 -8 c 128,-1,2
 1724 -8 1724 -8 1656 76 c 128,-1,3
 1588 160 1588 160 1548 137 c 1,4,5
 1345 91 1345 91 1214 44.5 c 128,-1,6
 1083 -2 1083 -2 843 -11 c 128,-1,7
 603 -20 603 -20 440.5 93 c 128,-1,8
 278 206 278 206 229.5 504 c 128,-1,9
 181 802 181 802 338 948 c 128,-1,10
 495 1094 495 1094 766 1185 c 1,11,12
 938 1204 938 1204 855 1067 c 1,13,14
 490 807 490 807 547.5 536.5 c 128,-1,15
 605 266 605 266 761 156.5 c 128,-1,16
 917 47 917 47 1131 105.5 c 128,-1,17
 1345 164 1345 164 1403 236 c 1,18,-1
 1407 678 l 1,19,-1
 1414 1071 l 1,20,21
 1504 1141 1504 1141 1692 1082 c 1,22,23
 1654 714 1654 714 1739 279 c 1,24,25
 1841 94 1841 94 2060 111.5 c 128,-1,26
 2279 129 2279 129 2347 270.5 c 128,-1,27
 2415 412 2415 412 2437 526.5 c 128,-1,28
 2459 641 2459 641 2422.5 788 c 128,-1,29
 2386 935 2386 935 2178 991 c 128,-1,30
 1970 1047 1970 1047 2079 1150 c 1,31,32
 2288 1143 2288 1143 2477 1089 c 1,33,34
 2772 887 2772 887 2727 584.5 c 128,-1,0
 2682 282 2682 282 2460 137 c 128,-1,1
EndSplineSet
Validated: 33
EndChar

StartChar: uni1F66
Encoding: 8038 8038 777
Width: 2910
Flags: W
LayerCount: 2
Fore
SplineSet
2460 137 m 128,-1,1
 2238 -8 2238 -8 1981 -8 c 128,-1,2
 1724 -8 1724 -8 1656 76 c 128,-1,3
 1588 160 1588 160 1548 137 c 1,4,5
 1345 91 1345 91 1214 44.5 c 128,-1,6
 1083 -2 1083 -2 843 -11 c 128,-1,7
 603 -20 603 -20 440.5 93 c 128,-1,8
 278 206 278 206 229.5 504 c 128,-1,9
 181 802 181 802 338 948 c 128,-1,10
 495 1094 495 1094 766 1185 c 1,11,12
 938 1204 938 1204 855 1067 c 1,13,14
 490 807 490 807 547.5 536.5 c 128,-1,15
 605 266 605 266 761 156.5 c 128,-1,16
 917 47 917 47 1131 105.5 c 128,-1,17
 1345 164 1345 164 1403 236 c 1,18,-1
 1407 678 l 1,19,-1
 1414 1071 l 1,20,21
 1504 1141 1504 1141 1692 1082 c 1,22,23
 1654 714 1654 714 1739 279 c 1,24,25
 1841 94 1841 94 2060 111.5 c 128,-1,26
 2279 129 2279 129 2347 270.5 c 128,-1,27
 2415 412 2415 412 2437 526.5 c 128,-1,28
 2459 641 2459 641 2422.5 788 c 128,-1,29
 2386 935 2386 935 2178 991 c 128,-1,30
 1970 1047 1970 1047 2079 1150 c 1,31,32
 2288 1143 2288 1143 2477 1089 c 1,33,34
 2772 887 2772 887 2727 584.5 c 128,-1,0
 2682 282 2682 282 2460 137 c 128,-1,1
EndSplineSet
Validated: 33
EndChar

StartChar: uni1F67
Encoding: 8039 8039 778
Width: 2910
Flags: W
LayerCount: 2
Fore
SplineSet
2460 137 m 128,-1,1
 2238 -8 2238 -8 1981 -8 c 128,-1,2
 1724 -8 1724 -8 1656 76 c 128,-1,3
 1588 160 1588 160 1548 137 c 1,4,5
 1345 91 1345 91 1214 44.5 c 128,-1,6
 1083 -2 1083 -2 843 -11 c 128,-1,7
 603 -20 603 -20 440.5 93 c 128,-1,8
 278 206 278 206 229.5 504 c 128,-1,9
 181 802 181 802 338 948 c 128,-1,10
 495 1094 495 1094 766 1185 c 1,11,12
 938 1204 938 1204 855 1067 c 1,13,14
 490 807 490 807 547.5 536.5 c 128,-1,15
 605 266 605 266 761 156.5 c 128,-1,16
 917 47 917 47 1131 105.5 c 128,-1,17
 1345 164 1345 164 1403 236 c 1,18,-1
 1407 678 l 1,19,-1
 1414 1071 l 1,20,21
 1504 1141 1504 1141 1692 1082 c 1,22,23
 1654 714 1654 714 1739 279 c 1,24,25
 1841 94 1841 94 2060 111.5 c 128,-1,26
 2279 129 2279 129 2347 270.5 c 128,-1,27
 2415 412 2415 412 2437 526.5 c 128,-1,28
 2459 641 2459 641 2422.5 788 c 128,-1,29
 2386 935 2386 935 2178 991 c 128,-1,30
 1970 1047 1970 1047 2079 1150 c 1,31,32
 2288 1143 2288 1143 2477 1089 c 1,33,34
 2772 887 2772 887 2727 584.5 c 128,-1,0
 2682 282 2682 282 2460 137 c 128,-1,1
EndSplineSet
Validated: 33
EndChar

StartChar: uni1F68
Encoding: 8040 8040 779
Width: 2910
Flags: W
LayerCount: 2
Fore
SplineSet
2460 137 m 128,-1,1
 2238 -8 2238 -8 1981 -8 c 128,-1,2
 1724 -8 1724 -8 1656 76 c 128,-1,3
 1588 160 1588 160 1548 137 c 1,4,5
 1345 91 1345 91 1214 44.5 c 128,-1,6
 1083 -2 1083 -2 843 -11 c 128,-1,7
 603 -20 603 -20 440.5 93 c 128,-1,8
 278 206 278 206 229.5 504 c 128,-1,9
 181 802 181 802 338 948 c 128,-1,10
 495 1094 495 1094 766 1185 c 1,11,12
 938 1204 938 1204 855 1067 c 1,13,14
 490 807 490 807 547.5 536.5 c 128,-1,15
 605 266 605 266 761 156.5 c 128,-1,16
 917 47 917 47 1131 105.5 c 128,-1,17
 1345 164 1345 164 1403 236 c 1,18,-1
 1407 678 l 1,19,-1
 1414 1071 l 1,20,21
 1504 1141 1504 1141 1692 1082 c 1,22,23
 1654 714 1654 714 1739 279 c 1,24,25
 1841 94 1841 94 2060 111.5 c 128,-1,26
 2279 129 2279 129 2347 270.5 c 128,-1,27
 2415 412 2415 412 2437 526.5 c 128,-1,28
 2459 641 2459 641 2422.5 788 c 128,-1,29
 2386 935 2386 935 2178 991 c 128,-1,30
 1970 1047 1970 1047 2079 1150 c 1,31,32
 2288 1143 2288 1143 2477 1089 c 1,33,34
 2772 887 2772 887 2727 584.5 c 128,-1,0
 2682 282 2682 282 2460 137 c 128,-1,1
EndSplineSet
Validated: 33
EndChar

StartChar: uni1F69
Encoding: 8041 8041 780
Width: 2910
Flags: W
LayerCount: 2
Fore
SplineSet
2460 137 m 128,-1,1
 2238 -8 2238 -8 1981 -8 c 128,-1,2
 1724 -8 1724 -8 1656 76 c 128,-1,3
 1588 160 1588 160 1548 137 c 1,4,5
 1345 91 1345 91 1214 44.5 c 128,-1,6
 1083 -2 1083 -2 843 -11 c 128,-1,7
 603 -20 603 -20 440.5 93 c 128,-1,8
 278 206 278 206 229.5 504 c 128,-1,9
 181 802 181 802 338 948 c 128,-1,10
 495 1094 495 1094 766 1185 c 1,11,12
 938 1204 938 1204 855 1067 c 1,13,14
 490 807 490 807 547.5 536.5 c 128,-1,15
 605 266 605 266 761 156.5 c 128,-1,16
 917 47 917 47 1131 105.5 c 128,-1,17
 1345 164 1345 164 1403 236 c 1,18,-1
 1407 678 l 1,19,-1
 1414 1071 l 1,20,21
 1504 1141 1504 1141 1692 1082 c 1,22,23
 1654 714 1654 714 1739 279 c 1,24,25
 1841 94 1841 94 2060 111.5 c 128,-1,26
 2279 129 2279 129 2347 270.5 c 128,-1,27
 2415 412 2415 412 2437 526.5 c 128,-1,28
 2459 641 2459 641 2422.5 788 c 128,-1,29
 2386 935 2386 935 2178 991 c 128,-1,30
 1970 1047 1970 1047 2079 1150 c 1,31,32
 2288 1143 2288 1143 2477 1089 c 1,33,34
 2772 887 2772 887 2727 584.5 c 128,-1,0
 2682 282 2682 282 2460 137 c 128,-1,1
EndSplineSet
Validated: 33
EndChar

StartChar: uni1F6A
Encoding: 8042 8042 781
Width: 2910
Flags: W
LayerCount: 2
Fore
SplineSet
2460 137 m 128,-1,1
 2238 -8 2238 -8 1981 -8 c 128,-1,2
 1724 -8 1724 -8 1656 76 c 128,-1,3
 1588 160 1588 160 1548 137 c 1,4,5
 1345 91 1345 91 1214 44.5 c 128,-1,6
 1083 -2 1083 -2 843 -11 c 128,-1,7
 603 -20 603 -20 440.5 93 c 128,-1,8
 278 206 278 206 229.5 504 c 128,-1,9
 181 802 181 802 338 948 c 128,-1,10
 495 1094 495 1094 766 1185 c 1,11,12
 938 1204 938 1204 855 1067 c 1,13,14
 490 807 490 807 547.5 536.5 c 128,-1,15
 605 266 605 266 761 156.5 c 128,-1,16
 917 47 917 47 1131 105.5 c 128,-1,17
 1345 164 1345 164 1403 236 c 1,18,-1
 1407 678 l 1,19,-1
 1414 1071 l 1,20,21
 1504 1141 1504 1141 1692 1082 c 1,22,23
 1654 714 1654 714 1739 279 c 1,24,25
 1841 94 1841 94 2060 111.5 c 128,-1,26
 2279 129 2279 129 2347 270.5 c 128,-1,27
 2415 412 2415 412 2437 526.5 c 128,-1,28
 2459 641 2459 641 2422.5 788 c 128,-1,29
 2386 935 2386 935 2178 991 c 128,-1,30
 1970 1047 1970 1047 2079 1150 c 1,31,32
 2288 1143 2288 1143 2477 1089 c 1,33,34
 2772 887 2772 887 2727 584.5 c 128,-1,0
 2682 282 2682 282 2460 137 c 128,-1,1
EndSplineSet
Validated: 33
EndChar

StartChar: uni1F6B
Encoding: 8043 8043 782
Width: 2910
Flags: W
LayerCount: 2
Fore
SplineSet
2460 137 m 128,-1,1
 2238 -8 2238 -8 1981 -8 c 128,-1,2
 1724 -8 1724 -8 1656 76 c 128,-1,3
 1588 160 1588 160 1548 137 c 1,4,5
 1345 91 1345 91 1214 44.5 c 128,-1,6
 1083 -2 1083 -2 843 -11 c 128,-1,7
 603 -20 603 -20 440.5 93 c 128,-1,8
 278 206 278 206 229.5 504 c 128,-1,9
 181 802 181 802 338 948 c 128,-1,10
 495 1094 495 1094 766 1185 c 1,11,12
 938 1204 938 1204 855 1067 c 1,13,14
 490 807 490 807 547.5 536.5 c 128,-1,15
 605 266 605 266 761 156.5 c 128,-1,16
 917 47 917 47 1131 105.5 c 128,-1,17
 1345 164 1345 164 1403 236 c 1,18,-1
 1407 678 l 1,19,-1
 1414 1071 l 1,20,21
 1504 1141 1504 1141 1692 1082 c 1,22,23
 1654 714 1654 714 1739 279 c 1,24,25
 1841 94 1841 94 2060 111.5 c 128,-1,26
 2279 129 2279 129 2347 270.5 c 128,-1,27
 2415 412 2415 412 2437 526.5 c 128,-1,28
 2459 641 2459 641 2422.5 788 c 128,-1,29
 2386 935 2386 935 2178 991 c 128,-1,30
 1970 1047 1970 1047 2079 1150 c 1,31,32
 2288 1143 2288 1143 2477 1089 c 1,33,34
 2772 887 2772 887 2727 584.5 c 128,-1,0
 2682 282 2682 282 2460 137 c 128,-1,1
EndSplineSet
Validated: 33
EndChar

StartChar: uni1F6C
Encoding: 8044 8044 783
Width: 2910
Flags: W
LayerCount: 2
Fore
SplineSet
2460 137 m 128,-1,1
 2238 -8 2238 -8 1981 -8 c 128,-1,2
 1724 -8 1724 -8 1656 76 c 128,-1,3
 1588 160 1588 160 1548 137 c 1,4,5
 1345 91 1345 91 1214 44.5 c 128,-1,6
 1083 -2 1083 -2 843 -11 c 128,-1,7
 603 -20 603 -20 440.5 93 c 128,-1,8
 278 206 278 206 229.5 504 c 128,-1,9
 181 802 181 802 338 948 c 128,-1,10
 495 1094 495 1094 766 1185 c 1,11,12
 938 1204 938 1204 855 1067 c 1,13,14
 490 807 490 807 547.5 536.5 c 128,-1,15
 605 266 605 266 761 156.5 c 128,-1,16
 917 47 917 47 1131 105.5 c 128,-1,17
 1345 164 1345 164 1403 236 c 1,18,-1
 1407 678 l 1,19,-1
 1414 1071 l 1,20,21
 1504 1141 1504 1141 1692 1082 c 1,22,23
 1654 714 1654 714 1739 279 c 1,24,25
 1841 94 1841 94 2060 111.5 c 128,-1,26
 2279 129 2279 129 2347 270.5 c 128,-1,27
 2415 412 2415 412 2437 526.5 c 128,-1,28
 2459 641 2459 641 2422.5 788 c 128,-1,29
 2386 935 2386 935 2178 991 c 128,-1,30
 1970 1047 1970 1047 2079 1150 c 1,31,32
 2288 1143 2288 1143 2477 1089 c 1,33,34
 2772 887 2772 887 2727 584.5 c 128,-1,0
 2682 282 2682 282 2460 137 c 128,-1,1
EndSplineSet
Validated: 33
EndChar

StartChar: uni1F6D
Encoding: 8045 8045 784
Width: 2910
Flags: W
LayerCount: 2
Fore
SplineSet
2460 137 m 128,-1,1
 2238 -8 2238 -8 1981 -8 c 128,-1,2
 1724 -8 1724 -8 1656 76 c 128,-1,3
 1588 160 1588 160 1548 137 c 1,4,5
 1345 91 1345 91 1214 44.5 c 128,-1,6
 1083 -2 1083 -2 843 -11 c 128,-1,7
 603 -20 603 -20 440.5 93 c 128,-1,8
 278 206 278 206 229.5 504 c 128,-1,9
 181 802 181 802 338 948 c 128,-1,10
 495 1094 495 1094 766 1185 c 1,11,12
 938 1204 938 1204 855 1067 c 1,13,14
 490 807 490 807 547.5 536.5 c 128,-1,15
 605 266 605 266 761 156.5 c 128,-1,16
 917 47 917 47 1131 105.5 c 128,-1,17
 1345 164 1345 164 1403 236 c 1,18,-1
 1407 678 l 1,19,-1
 1414 1071 l 1,20,21
 1504 1141 1504 1141 1692 1082 c 1,22,23
 1654 714 1654 714 1739 279 c 1,24,25
 1841 94 1841 94 2060 111.5 c 128,-1,26
 2279 129 2279 129 2347 270.5 c 128,-1,27
 2415 412 2415 412 2437 526.5 c 128,-1,28
 2459 641 2459 641 2422.5 788 c 128,-1,29
 2386 935 2386 935 2178 991 c 128,-1,30
 1970 1047 1970 1047 2079 1150 c 1,31,32
 2288 1143 2288 1143 2477 1089 c 1,33,34
 2772 887 2772 887 2727 584.5 c 128,-1,0
 2682 282 2682 282 2460 137 c 128,-1,1
EndSplineSet
Validated: 33
EndChar

StartChar: uni1F6E
Encoding: 8046 8046 785
Width: 2910
Flags: W
LayerCount: 2
Fore
SplineSet
2460 137 m 128,-1,1
 2238 -8 2238 -8 1981 -8 c 128,-1,2
 1724 -8 1724 -8 1656 76 c 128,-1,3
 1588 160 1588 160 1548 137 c 1,4,5
 1345 91 1345 91 1214 44.5 c 128,-1,6
 1083 -2 1083 -2 843 -11 c 128,-1,7
 603 -20 603 -20 440.5 93 c 128,-1,8
 278 206 278 206 229.5 504 c 128,-1,9
 181 802 181 802 338 948 c 128,-1,10
 495 1094 495 1094 766 1185 c 1,11,12
 938 1204 938 1204 855 1067 c 1,13,14
 490 807 490 807 547.5 536.5 c 128,-1,15
 605 266 605 266 761 156.5 c 128,-1,16
 917 47 917 47 1131 105.5 c 128,-1,17
 1345 164 1345 164 1403 236 c 1,18,-1
 1407 678 l 1,19,-1
 1414 1071 l 1,20,21
 1504 1141 1504 1141 1692 1082 c 1,22,23
 1654 714 1654 714 1739 279 c 1,24,25
 1841 94 1841 94 2060 111.5 c 128,-1,26
 2279 129 2279 129 2347 270.5 c 128,-1,27
 2415 412 2415 412 2437 526.5 c 128,-1,28
 2459 641 2459 641 2422.5 788 c 128,-1,29
 2386 935 2386 935 2178 991 c 128,-1,30
 1970 1047 1970 1047 2079 1150 c 1,31,32
 2288 1143 2288 1143 2477 1089 c 1,33,34
 2772 887 2772 887 2727 584.5 c 128,-1,0
 2682 282 2682 282 2460 137 c 128,-1,1
EndSplineSet
Validated: 33
EndChar

StartChar: uni1F6F
Encoding: 8047 8047 786
Width: 2910
Flags: W
LayerCount: 2
Fore
SplineSet
2460 137 m 128,-1,1
 2238 -8 2238 -8 1981 -8 c 128,-1,2
 1724 -8 1724 -8 1656 76 c 128,-1,3
 1588 160 1588 160 1548 137 c 1,4,5
 1345 91 1345 91 1214 44.5 c 128,-1,6
 1083 -2 1083 -2 843 -11 c 128,-1,7
 603 -20 603 -20 440.5 93 c 128,-1,8
 278 206 278 206 229.5 504 c 128,-1,9
 181 802 181 802 338 948 c 128,-1,10
 495 1094 495 1094 766 1185 c 1,11,12
 938 1204 938 1204 855 1067 c 1,13,14
 490 807 490 807 547.5 536.5 c 128,-1,15
 605 266 605 266 761 156.5 c 128,-1,16
 917 47 917 47 1131 105.5 c 128,-1,17
 1345 164 1345 164 1403 236 c 1,18,-1
 1407 678 l 1,19,-1
 1414 1071 l 1,20,21
 1504 1141 1504 1141 1692 1082 c 1,22,23
 1654 714 1654 714 1739 279 c 1,24,25
 1841 94 1841 94 2060 111.5 c 128,-1,26
 2279 129 2279 129 2347 270.5 c 128,-1,27
 2415 412 2415 412 2437 526.5 c 128,-1,28
 2459 641 2459 641 2422.5 788 c 128,-1,29
 2386 935 2386 935 2178 991 c 128,-1,30
 1970 1047 1970 1047 2079 1150 c 1,31,32
 2288 1143 2288 1143 2477 1089 c 1,33,34
 2772 887 2772 887 2727 584.5 c 128,-1,0
 2682 282 2682 282 2460 137 c 128,-1,1
EndSplineSet
Validated: 33
EndChar

StartChar: uni1FB5
Encoding: 8117 8117 787
Width: 1798
Flags: W
LayerCount: 2
Fore
SplineSet
1644 -1 m 1,0,1
 1332 -17 1332 -17 1260 16 c 128,-1,2
 1188 49 1188 49 908 407 c 1,3,4
 347 -55 347 -55 113 66 c 1,5,6
 9 96 9 96 138 265 c 2,7,-1
 618 876 l 1,8,-1
 480 1188 l 1,9,10
 635 1273 635 1273 823 1215 c 1,11,12
 1175 493 1175 493 1360.5 281 c 128,-1,13
 1546 69 1546 69 1590 75.5 c 128,-1,14
 1634 82 1634 82 1644 -1 c 1,0,1
419 383 m 2,15,16
 294 204 294 204 413 240 c 1,17,-1
 826 509 l 1,18,-1
 680 770 l 1,19,-1
 419 383 l 2,15,16
EndSplineSet
Validated: 33
EndChar

StartChar: uni1F70
Encoding: 8048 8048 788
Width: 1798
Flags: W
LayerCount: 2
Fore
SplineSet
1644 -1 m 1,0,1
 1332 -17 1332 -17 1260 16 c 128,-1,2
 1188 49 1188 49 908 407 c 1,3,4
 347 -55 347 -55 113 66 c 1,5,6
 9 96 9 96 138 265 c 2,7,-1
 618 876 l 1,8,-1
 480 1188 l 1,9,10
 635 1273 635 1273 823 1215 c 1,11,12
 1175 493 1175 493 1360.5 281 c 128,-1,13
 1546 69 1546 69 1590 75.5 c 128,-1,14
 1634 82 1634 82 1644 -1 c 1,0,1
419 383 m 2,15,16
 294 204 294 204 413 240 c 1,17,-1
 826 509 l 1,18,-1
 680 770 l 1,19,-1
 419 383 l 2,15,16
EndSplineSet
Validated: 33
EndChar

StartChar: uni1F71
Encoding: 8049 8049 789
Width: 1798
Flags: W
LayerCount: 2
Fore
SplineSet
1644 -1 m 1,0,1
 1332 -17 1332 -17 1260 16 c 128,-1,2
 1188 49 1188 49 908 407 c 1,3,4
 347 -55 347 -55 113 66 c 1,5,6
 9 96 9 96 138 265 c 2,7,-1
 618 876 l 1,8,-1
 480 1188 l 1,9,10
 635 1273 635 1273 823 1215 c 1,11,12
 1175 493 1175 493 1360.5 281 c 128,-1,13
 1546 69 1546 69 1590 75.5 c 128,-1,14
 1634 82 1634 82 1644 -1 c 1,0,1
419 383 m 2,15,16
 294 204 294 204 413 240 c 1,17,-1
 826 509 l 1,18,-1
 680 770 l 1,19,-1
 419 383 l 2,15,16
EndSplineSet
Validated: 33
EndChar

StartChar: uni1F72
Encoding: 8050 8050 790
Width: 1369
Flags: W
LayerCount: 2
Fore
SplineSet
992 1211 m 1,1,2
 779 1223 779 1223 695.5 1216.5 c 128,-1,3
 612 1210 612 1210 536.5 1088.5 c 128,-1,4
 461 967 461 967 447 779 c 1,5,6
 920 778 920 778 1261 759 c 1,7,8
 1302 697 1302 697 1216 665 c 1,9,10
 853 645 853 645 443 653 c 1,11,12
 435 375 435 375 501.5 268 c 128,-1,13
 568 161 568 161 742 159.5 c 128,-1,14
 916 158 916 158 1096.5 176 c 128,-1,15
 1277 194 1277 194 1207 80 c 1,16,17
 1012 16 1012 16 737 13 c 128,-1,18
 462 10 462 10 333.5 32.5 c 128,-1,19
 205 55 205 55 166.5 265 c 128,-1,20
 128 475 128 475 147.5 715.5 c 128,-1,21
 167 956 167 956 228.5 1130 c 128,-1,22
 290 1304 290 1304 544 1326 c 128,-1,23
 798 1348 798 1348 1055 1312.5 c 128,-1,24
 1312 1277 1312 1277 1223.5 1224.5 c 128,-1,0
 1135 1172 1135 1172 992 1211 c 1,1,2
EndSplineSet
Validated: 33
EndChar

StartChar: uni1F73
Encoding: 8051 8051 791
Width: 1369
Flags: W
LayerCount: 2
Fore
SplineSet
992 1211 m 1,1,2
 779 1223 779 1223 695.5 1216.5 c 128,-1,3
 612 1210 612 1210 536.5 1088.5 c 128,-1,4
 461 967 461 967 447 779 c 1,5,6
 920 778 920 778 1261 759 c 1,7,8
 1302 697 1302 697 1216 665 c 1,9,10
 853 645 853 645 443 653 c 1,11,12
 435 375 435 375 501.5 268 c 128,-1,13
 568 161 568 161 742 159.5 c 128,-1,14
 916 158 916 158 1096.5 176 c 128,-1,15
 1277 194 1277 194 1207 80 c 1,16,17
 1012 16 1012 16 737 13 c 128,-1,18
 462 10 462 10 333.5 32.5 c 128,-1,19
 205 55 205 55 166.5 265 c 128,-1,20
 128 475 128 475 147.5 715.5 c 128,-1,21
 167 956 167 956 228.5 1130 c 128,-1,22
 290 1304 290 1304 544 1326 c 128,-1,23
 798 1348 798 1348 1055 1312.5 c 128,-1,24
 1312 1277 1312 1277 1223.5 1224.5 c 128,-1,0
 1135 1172 1135 1172 992 1211 c 1,1,2
EndSplineSet
Validated: 33
EndChar

StartChar: uni1F74
Encoding: 8052 8052 792
Width: 1607
Flags: W
LayerCount: 2
Fore
SplineSet
1446 -7 m 1,0,-1
 1208 -11 l 1,1,-1
 1179 562 l 1,2,3
 840 571 840 571 441 576 c 1,4,-1
 435 -11 l 1,5,-1
 189 -7 l 1,6,7
 219 598 219 598 189 1203 c 1,8,-1
 440 1204 l 1,9,-1
 447 678 l 1,10,11
 850 681 850 681 1179 656 c 1,12,-1
 1199 1236 l 1,13,-1
 1446 1226 l 1,14,15
 1410 584 1410 584 1446 -7 c 1,0,-1
EndSplineSet
Validated: 33
EndChar

StartChar: uni1F75
Encoding: 8053 8053 793
Width: 1607
Flags: W
LayerCount: 2
Fore
SplineSet
1446 -7 m 1,0,-1
 1208 -11 l 1,1,-1
 1179 562 l 1,2,3
 840 571 840 571 441 576 c 1,4,-1
 435 -11 l 1,5,-1
 189 -7 l 1,6,7
 219 598 219 598 189 1203 c 1,8,-1
 440 1204 l 1,9,-1
 447 678 l 1,10,11
 850 681 850 681 1179 656 c 1,12,-1
 1199 1236 l 1,13,-1
 1446 1226 l 1,14,15
 1410 584 1410 584 1446 -7 c 1,0,-1
EndSplineSet
Validated: 33
EndChar

StartChar: uni1F76
Encoding: 8054 8054 794
Width: 780
Flags: W
LayerCount: 2
Fore
SplineSet
553 38 m 1,0,1
 540 -11 540 -11 373.5 -4.5 c 128,-1,2
 207 2 207 2 256 155 c 1,3,4
 261 577 261 577 257 1003 c 1,5,6
 229 1176 229 1176 322 1176 c 2,7,-1
 529 1181 l 1,8,9
 565 1149 565 1149 564 858.5 c 128,-1,10
 563 568 563 568 553 38 c 1,0,1
EndSplineSet
Validated: 33
EndChar

StartChar: uni1F77
Encoding: 8055 8055 795
Width: 780
Flags: W
LayerCount: 2
Fore
SplineSet
553 38 m 1,0,1
 540 -11 540 -11 373.5 -4.5 c 128,-1,2
 207 2 207 2 256 155 c 1,3,4
 261 577 261 577 257 1003 c 1,5,6
 229 1176 229 1176 322 1176 c 2,7,-1
 529 1181 l 1,8,9
 565 1149 565 1149 564 858.5 c 128,-1,10
 563 568 563 568 553 38 c 1,0,1
EndSplineSet
Validated: 33
EndChar

StartChar: uni1F90
Encoding: 8080 8080 796
Width: 1607
Flags: W
LayerCount: 2
Fore
SplineSet
1446 -7 m 1,0,-1
 1208 -11 l 1,1,-1
 1179 562 l 1,2,3
 840 571 840 571 441 576 c 1,4,-1
 435 -11 l 1,5,-1
 189 -7 l 1,6,7
 219 598 219 598 189 1203 c 1,8,-1
 440 1204 l 1,9,-1
 447 678 l 1,10,11
 850 681 850 681 1179 656 c 1,12,-1
 1199 1236 l 1,13,-1
 1446 1226 l 1,14,15
 1410 584 1410 584 1446 -7 c 1,0,-1
EndSplineSet
Validated: 33
EndChar

StartChar: uni1F91
Encoding: 8081 8081 797
Width: 1607
Flags: W
LayerCount: 2
Fore
SplineSet
1446 -7 m 1,0,-1
 1208 -11 l 1,1,-1
 1179 562 l 1,2,3
 840 571 840 571 441 576 c 1,4,-1
 435 -11 l 1,5,-1
 189 -7 l 1,6,7
 219 598 219 598 189 1203 c 1,8,-1
 440 1204 l 1,9,-1
 447 678 l 1,10,11
 850 681 850 681 1179 656 c 1,12,-1
 1199 1236 l 1,13,-1
 1446 1226 l 1,14,15
 1410 584 1410 584 1446 -7 c 1,0,-1
EndSplineSet
Validated: 33
EndChar

StartChar: uni1F92
Encoding: 8082 8082 798
Width: 1607
Flags: W
LayerCount: 2
Fore
SplineSet
1446 -7 m 1,0,-1
 1208 -11 l 1,1,-1
 1179 562 l 1,2,3
 840 571 840 571 441 576 c 1,4,-1
 435 -11 l 1,5,-1
 189 -7 l 1,6,7
 219 598 219 598 189 1203 c 1,8,-1
 440 1204 l 1,9,-1
 447 678 l 1,10,11
 850 681 850 681 1179 656 c 1,12,-1
 1199 1236 l 1,13,-1
 1446 1226 l 1,14,15
 1410 584 1410 584 1446 -7 c 1,0,-1
EndSplineSet
Validated: 33
EndChar

StartChar: uni1F93
Encoding: 8083 8083 799
Width: 1607
Flags: W
LayerCount: 2
Fore
SplineSet
1446 -7 m 1,0,-1
 1208 -11 l 1,1,-1
 1179 562 l 1,2,3
 840 571 840 571 441 576 c 1,4,-1
 435 -11 l 1,5,-1
 189 -7 l 1,6,7
 219 598 219 598 189 1203 c 1,8,-1
 440 1204 l 1,9,-1
 447 678 l 1,10,11
 850 681 850 681 1179 656 c 1,12,-1
 1199 1236 l 1,13,-1
 1446 1226 l 1,14,15
 1410 584 1410 584 1446 -7 c 1,0,-1
EndSplineSet
Validated: 33
EndChar

StartChar: uni1F94
Encoding: 8084 8084 800
Width: 1607
Flags: W
LayerCount: 2
Fore
SplineSet
1446 -7 m 1,0,-1
 1208 -11 l 1,1,-1
 1179 562 l 1,2,3
 840 571 840 571 441 576 c 1,4,-1
 435 -11 l 1,5,-1
 189 -7 l 1,6,7
 219 598 219 598 189 1203 c 1,8,-1
 440 1204 l 1,9,-1
 447 678 l 1,10,11
 850 681 850 681 1179 656 c 1,12,-1
 1199 1236 l 1,13,-1
 1446 1226 l 1,14,15
 1410 584 1410 584 1446 -7 c 1,0,-1
EndSplineSet
Validated: 33
EndChar

StartChar: uni1F95
Encoding: 8085 8085 801
Width: 1607
Flags: W
LayerCount: 2
Fore
SplineSet
1446 -7 m 1,0,-1
 1208 -11 l 1,1,-1
 1179 562 l 1,2,3
 840 571 840 571 441 576 c 1,4,-1
 435 -11 l 1,5,-1
 189 -7 l 1,6,7
 219 598 219 598 189 1203 c 1,8,-1
 440 1204 l 1,9,-1
 447 678 l 1,10,11
 850 681 850 681 1179 656 c 1,12,-1
 1199 1236 l 1,13,-1
 1446 1226 l 1,14,15
 1410 584 1410 584 1446 -7 c 1,0,-1
EndSplineSet
Validated: 33
EndChar

StartChar: uni1F96
Encoding: 8086 8086 802
Width: 1607
Flags: W
LayerCount: 2
Fore
SplineSet
1446 -7 m 1,0,-1
 1208 -11 l 1,1,-1
 1179 562 l 1,2,3
 840 571 840 571 441 576 c 1,4,-1
 435 -11 l 1,5,-1
 189 -7 l 1,6,7
 219 598 219 598 189 1203 c 1,8,-1
 440 1204 l 1,9,-1
 447 678 l 1,10,11
 850 681 850 681 1179 656 c 1,12,-1
 1199 1236 l 1,13,-1
 1446 1226 l 1,14,15
 1410 584 1410 584 1446 -7 c 1,0,-1
EndSplineSet
Validated: 33
EndChar

StartChar: uni1F97
Encoding: 8087 8087 803
Width: 1607
Flags: W
LayerCount: 2
Fore
SplineSet
1446 -7 m 1,0,-1
 1208 -11 l 1,1,-1
 1179 562 l 1,2,3
 840 571 840 571 441 576 c 1,4,-1
 435 -11 l 1,5,-1
 189 -7 l 1,6,7
 219 598 219 598 189 1203 c 1,8,-1
 440 1204 l 1,9,-1
 447 678 l 1,10,11
 850 681 850 681 1179 656 c 1,12,-1
 1199 1236 l 1,13,-1
 1446 1226 l 1,14,15
 1410 584 1410 584 1446 -7 c 1,0,-1
EndSplineSet
Validated: 33
EndChar

StartChar: uni1F98
Encoding: 8088 8088 804
Width: 1607
Flags: W
LayerCount: 2
Fore
SplineSet
1446 -7 m 1,0,-1
 1208 -11 l 1,1,-1
 1179 562 l 1,2,3
 840 571 840 571 441 576 c 1,4,-1
 435 -11 l 1,5,-1
 189 -7 l 1,6,7
 219 598 219 598 189 1203 c 1,8,-1
 440 1204 l 1,9,-1
 447 678 l 1,10,11
 850 681 850 681 1179 656 c 1,12,-1
 1199 1236 l 1,13,-1
 1446 1226 l 1,14,15
 1410 584 1410 584 1446 -7 c 1,0,-1
EndSplineSet
Validated: 33
EndChar

StartChar: uni1F99
Encoding: 8089 8089 805
Width: 1607
Flags: W
LayerCount: 2
Fore
SplineSet
1446 -7 m 1,0,-1
 1208 -11 l 1,1,-1
 1179 562 l 1,2,3
 840 571 840 571 441 576 c 1,4,-1
 435 -11 l 1,5,-1
 189 -7 l 1,6,7
 219 598 219 598 189 1203 c 1,8,-1
 440 1204 l 1,9,-1
 447 678 l 1,10,11
 850 681 850 681 1179 656 c 1,12,-1
 1199 1236 l 1,13,-1
 1446 1226 l 1,14,15
 1410 584 1410 584 1446 -7 c 1,0,-1
EndSplineSet
Validated: 33
EndChar

StartChar: uni1F9A
Encoding: 8090 8090 806
Width: 1607
Flags: W
LayerCount: 2
Fore
SplineSet
1446 -7 m 1,0,-1
 1208 -11 l 1,1,-1
 1179 562 l 1,2,3
 840 571 840 571 441 576 c 1,4,-1
 435 -11 l 1,5,-1
 189 -7 l 1,6,7
 219 598 219 598 189 1203 c 1,8,-1
 440 1204 l 1,9,-1
 447 678 l 1,10,11
 850 681 850 681 1179 656 c 1,12,-1
 1199 1236 l 1,13,-1
 1446 1226 l 1,14,15
 1410 584 1410 584 1446 -7 c 1,0,-1
EndSplineSet
Validated: 33
EndChar

StartChar: uni1F9B
Encoding: 8091 8091 807
Width: 1607
Flags: W
LayerCount: 2
Fore
SplineSet
1446 -7 m 1,0,-1
 1208 -11 l 1,1,-1
 1179 562 l 1,2,3
 840 571 840 571 441 576 c 1,4,-1
 435 -11 l 1,5,-1
 189 -7 l 1,6,7
 219 598 219 598 189 1203 c 1,8,-1
 440 1204 l 1,9,-1
 447 678 l 1,10,11
 850 681 850 681 1179 656 c 1,12,-1
 1199 1236 l 1,13,-1
 1446 1226 l 1,14,15
 1410 584 1410 584 1446 -7 c 1,0,-1
EndSplineSet
Validated: 33
EndChar

StartChar: uni1F9C
Encoding: 8092 8092 808
Width: 1607
Flags: W
LayerCount: 2
Fore
SplineSet
1446 -7 m 1,0,-1
 1208 -11 l 1,1,-1
 1179 562 l 1,2,3
 840 571 840 571 441 576 c 1,4,-1
 435 -11 l 1,5,-1
 189 -7 l 1,6,7
 219 598 219 598 189 1203 c 1,8,-1
 440 1204 l 1,9,-1
 447 678 l 1,10,11
 850 681 850 681 1179 656 c 1,12,-1
 1199 1236 l 1,13,-1
 1446 1226 l 1,14,15
 1410 584 1410 584 1446 -7 c 1,0,-1
EndSplineSet
Validated: 33
EndChar

StartChar: uni1F9D
Encoding: 8093 8093 809
Width: 1607
Flags: W
LayerCount: 2
Fore
SplineSet
1446 -7 m 1,0,-1
 1208 -11 l 1,1,-1
 1179 562 l 1,2,3
 840 571 840 571 441 576 c 1,4,-1
 435 -11 l 1,5,-1
 189 -7 l 1,6,7
 219 598 219 598 189 1203 c 1,8,-1
 440 1204 l 1,9,-1
 447 678 l 1,10,11
 850 681 850 681 1179 656 c 1,12,-1
 1199 1236 l 1,13,-1
 1446 1226 l 1,14,15
 1410 584 1410 584 1446 -7 c 1,0,-1
EndSplineSet
Validated: 33
EndChar

StartChar: uni1FC2
Encoding: 8130 8130 810
Width: 1607
Flags: W
LayerCount: 2
Fore
SplineSet
1446 -7 m 1,0,-1
 1208 -11 l 1,1,-1
 1179 562 l 1,2,3
 840 571 840 571 441 576 c 1,4,-1
 435 -11 l 1,5,-1
 189 -7 l 1,6,7
 219 598 219 598 189 1203 c 1,8,-1
 440 1204 l 1,9,-1
 447 678 l 1,10,11
 850 681 850 681 1179 656 c 1,12,-1
 1199 1236 l 1,13,-1
 1446 1226 l 1,14,15
 1410 584 1410 584 1446 -7 c 1,0,-1
EndSplineSet
Validated: 33
EndChar

